ISO-10303-21;
HEADER;
/* Generated by software containing ST-Developer
 * from STEP Tools, Inc. (www.steptools.com) 
 */

FILE_DESCRIPTION(
/* description */ (''),
/* implementation_level */ '2;1');

FILE_NAME(
/* name */ 'wii_jack_holder_bottom_v2a.step',
/* time_stamp */ '2026-02-14T16:07:42-06:00',
/* author */ (''),
/* organization */ (''),
/* preprocessor_version */ 'ST-DEVELOPER v20.1',
/* originating_system */ 'Autodesk Translation Framework v14.21.0.0',
/* authorisation */ '');

FILE_SCHEMA (('AUTOMOTIVE_DESIGN { 1 0 10303 214 3 1 1 }'));
ENDSEC;

DATA;
#10=MECHANICAL_DESIGN_GEOMETRIC_PRESENTATION_REPRESENTATION('',(#13),#585);
#11=SHAPE_REPRESENTATION_RELATIONSHIP('SRR','None',#592,#12);
#12=ADVANCED_BREP_SHAPE_REPRESENTATION('',(#14),#584);
#13=STYLED_ITEM('',(#601),#14);
#14=MANIFOLD_SOLID_BREP('wii_jack_holder_bottom_v2a',#361);
#15=CYLINDRICAL_SURFACE('',#387,1.25);
#16=FACE_BOUND('',#39,.T.);
#17=FACE_BOUND('',#52,.T.);
#18=CIRCLE('',#376,1.25);
#19=CIRCLE('',#388,1.25);
#20=FACE_OUTER_BOUND('',#38,.T.);
#21=FACE_OUTER_BOUND('',#40,.T.);
#22=FACE_OUTER_BOUND('',#41,.T.);
#23=FACE_OUTER_BOUND('',#42,.T.);
#24=FACE_OUTER_BOUND('',#43,.T.);
#25=FACE_OUTER_BOUND('',#44,.T.);
#26=FACE_OUTER_BOUND('',#45,.T.);
#27=FACE_OUTER_BOUND('',#46,.T.);
#28=FACE_OUTER_BOUND('',#47,.T.);
#29=FACE_OUTER_BOUND('',#48,.T.);
#30=FACE_OUTER_BOUND('',#49,.T.);
#31=FACE_OUTER_BOUND('',#50,.T.);
#32=FACE_OUTER_BOUND('',#51,.T.);
#33=FACE_OUTER_BOUND('',#53,.T.);
#34=FACE_OUTER_BOUND('',#54,.T.);
#35=FACE_OUTER_BOUND('',#55,.T.);
#36=FACE_OUTER_BOUND('',#56,.T.);
#37=FACE_OUTER_BOUND('',#57,.T.);
#38=EDGE_LOOP('',(#230,#231,#232,#233));
#39=EDGE_LOOP('',(#234));
#40=EDGE_LOOP('',(#235,#236,#237,#238));
#41=EDGE_LOOP('',(#239,#240,#241,#242,#243,#244,#245,#246));
#42=EDGE_LOOP('',(#247,#248,#249,#250));
#43=EDGE_LOOP('',(#251,#252,#253,#254));
#44=EDGE_LOOP('',(#255,#256,#257,#258));
#45=EDGE_LOOP('',(#259,#260,#261,#262));
#46=EDGE_LOOP('',(#263,#264,#265,#266));
#47=EDGE_LOOP('',(#267,#268,#269,#270,#271,#272,#273,#274,#275,#276,#277,
#278));
#48=EDGE_LOOP('',(#279,#280,#281,#282));
#49=EDGE_LOOP('',(#283,#284,#285,#286));
#50=EDGE_LOOP('',(#287,#288,#289,#290));
#51=EDGE_LOOP('',(#291,#292,#293,#294));
#52=EDGE_LOOP('',(#295));
#53=EDGE_LOOP('',(#296,#297,#298,#299,#300,#301,#302));
#54=EDGE_LOOP('',(#303,#304,#305,#306));
#55=EDGE_LOOP('',(#307,#308,#309,#310,#311,#312,#313));
#56=EDGE_LOOP('',(#314,#315,#316,#317));
#57=EDGE_LOOP('',(#318,#319,#320,#321,#322,#323,#324,#325));
#58=LINE('',#487,#104);
#59=LINE('',#489,#105);
#60=LINE('',#491,#106);
#61=LINE('',#492,#107);
#62=LINE('',#498,#108);
#63=LINE('',#499,#109);
#64=LINE('',#500,#110);
#65=LINE('',#504,#111);
#66=LINE('',#506,#112);
#67=LINE('',#508,#113);
#68=LINE('',#510,#114);
#69=LINE('',#512,#115);
#70=LINE('',#514,#116);
#71=LINE('',#516,#117);
#72=LINE('',#517,#118);
#73=LINE('',#521,#119);
#74=LINE('',#523,#120);
#75=LINE('',#525,#121);
#76=LINE('',#526,#122);
#77=LINE('',#528,#123);
#78=LINE('',#529,#124);
#79=LINE('',#532,#125);
#80=LINE('',#534,#126);
#81=LINE('',#535,#127);
#82=LINE('',#538,#128);
#83=LINE('',#539,#129);
#84=LINE('',#542,#130);
#85=LINE('',#543,#131);
#86=LINE('',#546,#132);
#87=LINE('',#548,#133);
#88=LINE('',#550,#134);
#89=LINE('',#552,#135);
#90=LINE('',#553,#136);
#91=LINE('',#554,#137);
#92=LINE('',#556,#138);
#93=LINE('',#561,#139);
#94=LINE('',#564,#140);
#95=LINE('',#566,#141);
#96=LINE('',#567,#142);
#97=LINE('',#570,#143);
#98=LINE('',#571,#144);
#99=LINE('',#572,#145);
#100=LINE('',#575,#146);
#101=LINE('',#576,#147);
#102=LINE('',#578,#148);
#103=LINE('',#579,#149);
#104=VECTOR('',#399,10.);
#105=VECTOR('',#400,10.);
#106=VECTOR('',#401,10.);
#107=VECTOR('',#402,10.);
#108=VECTOR('',#407,10.);
#109=VECTOR('',#408,10.);
#110=VECTOR('',#409,10.);
#111=VECTOR('',#412,10.);
#112=VECTOR('',#413,10.);
#113=VECTOR('',#414,10.);
#114=VECTOR('',#415,10.);
#115=VECTOR('',#416,10.);
#116=VECTOR('',#417,10.);
#117=VECTOR('',#418,10.);
#118=VECTOR('',#419,10.);
#119=VECTOR('',#422,10.);
#120=VECTOR('',#423,10.);
#121=VECTOR('',#424,10.);
#122=VECTOR('',#425,10.);
#123=VECTOR('',#428,10.);
#124=VECTOR('',#429,10.);
#125=VECTOR('',#432,10.);
#126=VECTOR('',#433,10.);
#127=VECTOR('',#434,10.);
#128=VECTOR('',#437,10.);
#129=VECTOR('',#438,10.);
#130=VECTOR('',#441,10.);
#131=VECTOR('',#442,10.);
#132=VECTOR('',#445,10.);
#133=VECTOR('',#446,10.);
#134=VECTOR('',#447,10.);
#135=VECTOR('',#448,10.);
#136=VECTOR('',#449,10.);
#137=VECTOR('',#450,10.);
#138=VECTOR('',#453,10.);
#139=VECTOR('',#460,1.25);
#140=VECTOR('',#463,10.);
#141=VECTOR('',#464,10.);
#142=VECTOR('',#465,10.);
#143=VECTOR('',#468,10.);
#144=VECTOR('',#469,10.);
#145=VECTOR('',#470,10.);
#146=VECTOR('',#473,10.);
#147=VECTOR('',#474,10.);
#148=VECTOR('',#477,10.);
#149=VECTOR('',#478,10.);
#150=VERTEX_POINT('',#485);
#151=VERTEX_POINT('',#486);
#152=VERTEX_POINT('',#488);
#153=VERTEX_POINT('',#490);
#154=VERTEX_POINT('',#493);
#155=VERTEX_POINT('',#496);
#156=VERTEX_POINT('',#497);
#157=VERTEX_POINT('',#502);
#158=VERTEX_POINT('',#503);
#159=VERTEX_POINT('',#505);
#160=VERTEX_POINT('',#507);
#161=VERTEX_POINT('',#509);
#162=VERTEX_POINT('',#511);
#163=VERTEX_POINT('',#513);
#164=VERTEX_POINT('',#515);
#165=VERTEX_POINT('',#519);
#166=VERTEX_POINT('',#520);
#167=VERTEX_POINT('',#522);
#168=VERTEX_POINT('',#524);
#169=VERTEX_POINT('',#531);
#170=VERTEX_POINT('',#533);
#171=VERTEX_POINT('',#537);
#172=VERTEX_POINT('',#541);
#173=VERTEX_POINT('',#545);
#174=VERTEX_POINT('',#547);
#175=VERTEX_POINT('',#549);
#176=VERTEX_POINT('',#551);
#177=VERTEX_POINT('',#559);
#178=VERTEX_POINT('',#563);
#179=VERTEX_POINT('',#565);
#180=VERTEX_POINT('',#569);
#181=VERTEX_POINT('',#574);
#182=EDGE_CURVE('',#150,#151,#58,.T.);
#183=EDGE_CURVE('',#152,#151,#59,.T.);
#184=EDGE_CURVE('',#153,#152,#60,.T.);
#185=EDGE_CURVE('',#153,#150,#61,.T.);
#186=EDGE_CURVE('',#154,#154,#18,.T.);
#187=EDGE_CURVE('',#155,#156,#62,.T.);
#188=EDGE_CURVE('',#156,#152,#63,.T.);
#189=EDGE_CURVE('',#151,#155,#64,.T.);
#190=EDGE_CURVE('',#157,#158,#65,.T.);
#191=EDGE_CURVE('',#158,#159,#66,.T.);
#192=EDGE_CURVE('',#159,#160,#67,.T.);
#193=EDGE_CURVE('',#160,#161,#68,.T.);
#194=EDGE_CURVE('',#161,#162,#69,.T.);
#195=EDGE_CURVE('',#162,#163,#70,.T.);
#196=EDGE_CURVE('',#163,#164,#71,.T.);
#197=EDGE_CURVE('',#164,#157,#72,.T.);
#198=EDGE_CURVE('',#165,#166,#73,.T.);
#199=EDGE_CURVE('',#165,#167,#74,.T.);
#200=EDGE_CURVE('',#168,#167,#75,.T.);
#201=EDGE_CURVE('',#166,#168,#76,.T.);
#202=EDGE_CURVE('',#161,#166,#77,.T.);
#203=EDGE_CURVE('',#165,#160,#78,.T.);
#204=EDGE_CURVE('',#158,#169,#79,.T.);
#205=EDGE_CURVE('',#169,#170,#80,.T.);
#206=EDGE_CURVE('',#170,#159,#81,.T.);
#207=EDGE_CURVE('',#171,#157,#82,.T.);
#208=EDGE_CURVE('',#169,#171,#83,.T.);
#209=EDGE_CURVE('',#172,#164,#84,.T.);
#210=EDGE_CURVE('',#171,#172,#85,.T.);
#211=EDGE_CURVE('',#170,#173,#86,.T.);
#212=EDGE_CURVE('',#173,#174,#87,.T.);
#213=EDGE_CURVE('',#175,#174,#88,.T.);
#214=EDGE_CURVE('',#175,#176,#89,.T.);
#215=EDGE_CURVE('',#176,#172,#90,.T.);
#216=EDGE_CURVE('',#167,#163,#91,.T.);
#217=EDGE_CURVE('',#168,#162,#92,.T.);
#218=EDGE_CURVE('',#177,#177,#19,.T.);
#219=EDGE_CURVE('',#177,#154,#93,.T.);
#220=EDGE_CURVE('',#178,#155,#94,.T.);
#221=EDGE_CURVE('',#179,#178,#95,.T.);
#222=EDGE_CURVE('',#156,#179,#96,.T.);
#223=EDGE_CURVE('',#179,#180,#97,.T.);
#224=EDGE_CURVE('',#174,#180,#98,.T.);
#225=EDGE_CURVE('',#153,#173,#99,.T.);
#226=EDGE_CURVE('',#181,#180,#100,.T.);
#227=EDGE_CURVE('',#181,#178,#101,.T.);
#228=EDGE_CURVE('',#150,#176,#102,.T.);
#229=EDGE_CURVE('',#181,#175,#103,.T.);
#230=ORIENTED_EDGE('',*,*,#182,.T.);
#231=ORIENTED_EDGE('',*,*,#183,.F.);
#232=ORIENTED_EDGE('',*,*,#184,.F.);
#233=ORIENTED_EDGE('',*,*,#185,.T.);
#234=ORIENTED_EDGE('',*,*,#186,.T.);
#235=ORIENTED_EDGE('',*,*,#187,.T.);
#236=ORIENTED_EDGE('',*,*,#188,.T.);
#237=ORIENTED_EDGE('',*,*,#183,.T.);
#238=ORIENTED_EDGE('',*,*,#189,.T.);
#239=ORIENTED_EDGE('',*,*,#190,.T.);
#240=ORIENTED_EDGE('',*,*,#191,.T.);
#241=ORIENTED_EDGE('',*,*,#192,.T.);
#242=ORIENTED_EDGE('',*,*,#193,.T.);
#243=ORIENTED_EDGE('',*,*,#194,.T.);
#244=ORIENTED_EDGE('',*,*,#195,.T.);
#245=ORIENTED_EDGE('',*,*,#196,.T.);
#246=ORIENTED_EDGE('',*,*,#197,.T.);
#247=ORIENTED_EDGE('',*,*,#198,.F.);
#248=ORIENTED_EDGE('',*,*,#199,.T.);
#249=ORIENTED_EDGE('',*,*,#200,.F.);
#250=ORIENTED_EDGE('',*,*,#201,.F.);
#251=ORIENTED_EDGE('',*,*,#198,.T.);
#252=ORIENTED_EDGE('',*,*,#202,.F.);
#253=ORIENTED_EDGE('',*,*,#193,.F.);
#254=ORIENTED_EDGE('',*,*,#203,.F.);
#255=ORIENTED_EDGE('',*,*,#204,.T.);
#256=ORIENTED_EDGE('',*,*,#205,.T.);
#257=ORIENTED_EDGE('',*,*,#206,.T.);
#258=ORIENTED_EDGE('',*,*,#191,.F.);
#259=ORIENTED_EDGE('',*,*,#207,.F.);
#260=ORIENTED_EDGE('',*,*,#208,.F.);
#261=ORIENTED_EDGE('',*,*,#204,.F.);
#262=ORIENTED_EDGE('',*,*,#190,.F.);
#263=ORIENTED_EDGE('',*,*,#209,.F.);
#264=ORIENTED_EDGE('',*,*,#210,.F.);
#265=ORIENTED_EDGE('',*,*,#207,.T.);
#266=ORIENTED_EDGE('',*,*,#197,.F.);
#267=ORIENTED_EDGE('',*,*,#206,.F.);
#268=ORIENTED_EDGE('',*,*,#211,.T.);
#269=ORIENTED_EDGE('',*,*,#212,.T.);
#270=ORIENTED_EDGE('',*,*,#213,.F.);
#271=ORIENTED_EDGE('',*,*,#214,.T.);
#272=ORIENTED_EDGE('',*,*,#215,.T.);
#273=ORIENTED_EDGE('',*,*,#209,.T.);
#274=ORIENTED_EDGE('',*,*,#196,.F.);
#275=ORIENTED_EDGE('',*,*,#216,.F.);
#276=ORIENTED_EDGE('',*,*,#199,.F.);
#277=ORIENTED_EDGE('',*,*,#203,.T.);
#278=ORIENTED_EDGE('',*,*,#192,.F.);
#279=ORIENTED_EDGE('',*,*,#201,.T.);
#280=ORIENTED_EDGE('',*,*,#217,.T.);
#281=ORIENTED_EDGE('',*,*,#194,.F.);
#282=ORIENTED_EDGE('',*,*,#202,.T.);
#283=ORIENTED_EDGE('',*,*,#200,.T.);
#284=ORIENTED_EDGE('',*,*,#216,.T.);
#285=ORIENTED_EDGE('',*,*,#195,.F.);
#286=ORIENTED_EDGE('',*,*,#217,.F.);
#287=ORIENTED_EDGE('',*,*,#218,.F.);
#288=ORIENTED_EDGE('',*,*,#219,.T.);
#289=ORIENTED_EDGE('',*,*,#186,.F.);
#290=ORIENTED_EDGE('',*,*,#219,.F.);
#291=ORIENTED_EDGE('',*,*,#220,.F.);
#292=ORIENTED_EDGE('',*,*,#221,.F.);
#293=ORIENTED_EDGE('',*,*,#222,.F.);
#294=ORIENTED_EDGE('',*,*,#187,.F.);
#295=ORIENTED_EDGE('',*,*,#218,.T.);
#296=ORIENTED_EDGE('',*,*,#222,.T.);
#297=ORIENTED_EDGE('',*,*,#223,.T.);
#298=ORIENTED_EDGE('',*,*,#224,.F.);
#299=ORIENTED_EDGE('',*,*,#212,.F.);
#300=ORIENTED_EDGE('',*,*,#225,.F.);
#301=ORIENTED_EDGE('',*,*,#184,.T.);
#302=ORIENTED_EDGE('',*,*,#188,.F.);
#303=ORIENTED_EDGE('',*,*,#226,.T.);
#304=ORIENTED_EDGE('',*,*,#223,.F.);
#305=ORIENTED_EDGE('',*,*,#221,.T.);
#306=ORIENTED_EDGE('',*,*,#227,.F.);
#307=ORIENTED_EDGE('',*,*,#182,.F.);
#308=ORIENTED_EDGE('',*,*,#228,.T.);
#309=ORIENTED_EDGE('',*,*,#214,.F.);
#310=ORIENTED_EDGE('',*,*,#229,.F.);
#311=ORIENTED_EDGE('',*,*,#227,.T.);
#312=ORIENTED_EDGE('',*,*,#220,.T.);
#313=ORIENTED_EDGE('',*,*,#189,.F.);
#314=ORIENTED_EDGE('',*,*,#229,.T.);
#315=ORIENTED_EDGE('',*,*,#213,.T.);
#316=ORIENTED_EDGE('',*,*,#224,.T.);
#317=ORIENTED_EDGE('',*,*,#226,.F.);
#318=ORIENTED_EDGE('',*,*,#208,.T.);
#319=ORIENTED_EDGE('',*,*,#210,.T.);
#320=ORIENTED_EDGE('',*,*,#215,.F.);
#321=ORIENTED_EDGE('',*,*,#228,.F.);
#322=ORIENTED_EDGE('',*,*,#185,.F.);
#323=ORIENTED_EDGE('',*,*,#225,.T.);
#324=ORIENTED_EDGE('',*,*,#211,.F.);
#325=ORIENTED_EDGE('',*,*,#205,.F.);
#326=PLANE('',#375);
#327=PLANE('',#377);
#328=PLANE('',#378);
#329=PLANE('',#379);
#330=PLANE('',#380);
#331=PLANE('',#381);
#332=PLANE('',#382);
#333=PLANE('',#383);
#334=PLANE('',#384);
#335=PLANE('',#385);
#336=PLANE('',#386);
#337=PLANE('',#389);
#338=PLANE('',#390);
#339=PLANE('',#391);
#340=PLANE('',#392);
#341=PLANE('',#393);
#342=PLANE('',#394);
#343=ADVANCED_FACE('',(#20,#16),#326,.F.);
#344=ADVANCED_FACE('',(#21),#327,.T.);
#345=ADVANCED_FACE('',(#22),#328,.T.);
#346=ADVANCED_FACE('',(#23),#329,.T.);
#347=ADVANCED_FACE('',(#24),#330,.T.);
#348=ADVANCED_FACE('',(#25),#331,.T.);
#349=ADVANCED_FACE('',(#26),#332,.F.);
#350=ADVANCED_FACE('',(#27),#333,.T.);
#351=ADVANCED_FACE('',(#28),#334,.T.);
#352=ADVANCED_FACE('',(#29),#335,.T.);
#353=ADVANCED_FACE('',(#30),#336,.T.);
#354=ADVANCED_FACE('',(#31),#15,.F.);
#355=ADVANCED_FACE('',(#32,#17),#337,.F.);
#356=ADVANCED_FACE('',(#33),#338,.F.);
#357=ADVANCED_FACE('',(#34),#339,.F.);
#358=ADVANCED_FACE('',(#35),#340,.F.);
#359=ADVANCED_FACE('',(#36),#341,.T.);
#360=ADVANCED_FACE('',(#37),#342,.T.);
#361=CLOSED_SHELL('',(#343,#344,#345,#346,#347,#348,#349,#350,#351,#352,
#353,#354,#355,#356,#357,#358,#359,#360));
#362=DERIVED_UNIT_ELEMENT(#364,1.);
#363=DERIVED_UNIT_ELEMENT(#587,-3.);
#364=(
MASS_UNIT()
NAMED_UNIT(*)
SI_UNIT(.KILO.,.GRAM.)
);
#365=DERIVED_UNIT((#362,#363));
#366=MEASURE_REPRESENTATION_ITEM('density measure',
POSITIVE_RATIO_MEASURE(7850.),#365);
#367=PROPERTY_DEFINITION_REPRESENTATION(#372,#369);
#368=PROPERTY_DEFINITION_REPRESENTATION(#373,#370);
#369=REPRESENTATION('material name',(#371),#584);
#370=REPRESENTATION('density',(#366),#584);
#371=DESCRIPTIVE_REPRESENTATION_ITEM('Steel','Steel');
#372=PROPERTY_DEFINITION('material property','material name',#594);
#373=PROPERTY_DEFINITION('material property','density of part',#594);
#374=AXIS2_PLACEMENT_3D('',#483,#395,#396);
#375=AXIS2_PLACEMENT_3D('',#484,#397,#398);
#376=AXIS2_PLACEMENT_3D('',#494,#403,#404);
#377=AXIS2_PLACEMENT_3D('',#495,#405,#406);
#378=AXIS2_PLACEMENT_3D('',#501,#410,#411);
#379=AXIS2_PLACEMENT_3D('',#518,#420,#421);
#380=AXIS2_PLACEMENT_3D('',#527,#426,#427);
#381=AXIS2_PLACEMENT_3D('',#530,#430,#431);
#382=AXIS2_PLACEMENT_3D('',#536,#435,#436);
#383=AXIS2_PLACEMENT_3D('',#540,#439,#440);
#384=AXIS2_PLACEMENT_3D('',#544,#443,#444);
#385=AXIS2_PLACEMENT_3D('',#555,#451,#452);
#386=AXIS2_PLACEMENT_3D('',#557,#454,#455);
#387=AXIS2_PLACEMENT_3D('',#558,#456,#457);
#388=AXIS2_PLACEMENT_3D('',#560,#458,#459);
#389=AXIS2_PLACEMENT_3D('',#562,#461,#462);
#390=AXIS2_PLACEMENT_3D('',#568,#466,#467);
#391=AXIS2_PLACEMENT_3D('',#573,#471,#472);
#392=AXIS2_PLACEMENT_3D('',#577,#475,#476);
#393=AXIS2_PLACEMENT_3D('',#580,#479,#480);
#394=AXIS2_PLACEMENT_3D('',#581,#481,#482);
#395=DIRECTION('axis',(0.,0.,1.));
#396=DIRECTION('refdir',(1.,0.,0.));
#397=DIRECTION('center_axis',(0.,0.,1.));
#398=DIRECTION('ref_axis',(1.,0.,0.));
#399=DIRECTION('',(0.,1.,0.));
#400=DIRECTION('',(-1.,0.,0.));
#401=DIRECTION('',(0.,1.,0.));
#402=DIRECTION('',(-1.,0.,0.));
#403=DIRECTION('center_axis',(0.,0.,1.));
#404=DIRECTION('ref_axis',(-1.,0.,0.));
#405=DIRECTION('center_axis',(0.,1.,0.));
#406=DIRECTION('ref_axis',(0.,0.,1.));
#407=DIRECTION('',(1.,0.,0.));
#408=DIRECTION('',(0.,0.,-1.));
#409=DIRECTION('',(0.,0.,1.));
#410=DIRECTION('center_axis',(0.,-1.,0.));
#411=DIRECTION('ref_axis',(0.,0.,-1.));
#412=DIRECTION('',(1.,0.,0.));
#413=DIRECTION('',(0.,0.,1.));
#414=DIRECTION('',(-1.,0.,0.));
#415=DIRECTION('',(0.,0.,-1.));
#416=DIRECTION('',(-1.,0.,0.));
#417=DIRECTION('',(0.,0.,1.));
#418=DIRECTION('',(-1.,0.,0.));
#419=DIRECTION('',(0.,0.,-1.));
#420=DIRECTION('center_axis',(0.,-1.,0.));
#421=DIRECTION('ref_axis',(0.,0.,-1.));
#422=DIRECTION('',(0.,0.,-1.));
#423=DIRECTION('',(-1.,0.,0.));
#424=DIRECTION('',(0.,0.,1.));
#425=DIRECTION('',(-1.,0.,0.));
#426=DIRECTION('center_axis',(-1.,0.,0.));
#427=DIRECTION('ref_axis',(0.,-1.,0.));
#428=DIRECTION('',(0.,1.,0.));
#429=DIRECTION('',(0.,-1.,0.));
#430=DIRECTION('center_axis',(1.,0.,0.));
#431=DIRECTION('ref_axis',(0.,1.,0.));
#432=DIRECTION('',(0.,1.,0.));
#433=DIRECTION('',(0.,0.,1.));
#434=DIRECTION('',(0.,-1.,0.));
#435=DIRECTION('center_axis',(0.,0.,1.));
#436=DIRECTION('ref_axis',(1.,0.,0.));
#437=DIRECTION('',(0.,-1.,0.));
#438=DIRECTION('',(-1.,0.,0.));
#439=DIRECTION('center_axis',(-1.,0.,0.));
#440=DIRECTION('ref_axis',(0.,-1.,0.));
#441=DIRECTION('',(0.,-1.,0.));
#442=DIRECTION('',(0.,0.,1.));
#443=DIRECTION('center_axis',(0.,0.,1.));
#444=DIRECTION('ref_axis',(1.,0.,0.));
#445=DIRECTION('',(1.,0.,0.));
#446=DIRECTION('',(0.,1.,0.));
#447=DIRECTION('',(1.,0.,0.));
#448=DIRECTION('',(0.,-1.,0.));
#449=DIRECTION('',(1.,0.,0.));
#450=DIRECTION('',(0.,-1.,0.));
#451=DIRECTION('center_axis',(0.,0.,1.));
#452=DIRECTION('ref_axis',(1.,0.,0.));
#453=DIRECTION('',(0.,-1.,0.));
#454=DIRECTION('center_axis',(1.,0.,0.));
#455=DIRECTION('ref_axis',(0.,1.,0.));
#456=DIRECTION('center_axis',(0.,0.,-1.));
#457=DIRECTION('ref_axis',(-1.,0.,0.));
#458=DIRECTION('center_axis',(0.,0.,-1.));
#459=DIRECTION('ref_axis',(-1.,0.,0.));
#460=DIRECTION('',(0.,0.,-1.));
#461=DIRECTION('center_axis',(0.,0.,-1.));
#462=DIRECTION('ref_axis',(-1.,0.,0.));
#463=DIRECTION('',(0.,1.,0.));
#464=DIRECTION('',(-1.,0.,0.));
#465=DIRECTION('',(0.,-1.,0.));
#466=DIRECTION('center_axis',(-1.,0.,0.));
#467=DIRECTION('ref_axis',(0.,0.,1.));
#468=DIRECTION('',(0.,0.,1.));
#469=DIRECTION('',(0.,0.707106781186548,-0.707106781186547));
#470=DIRECTION('',(0.,0.,1.));
#471=DIRECTION('center_axis',(0.,-1.,0.));
#472=DIRECTION('ref_axis',(-1.,0.,0.));
#473=DIRECTION('',(1.,0.,0.));
#474=DIRECTION('',(0.,0.,-1.));
#475=DIRECTION('center_axis',(1.,0.,0.));
#476=DIRECTION('ref_axis',(0.,0.,-1.));
#477=DIRECTION('',(0.,0.,1.));
#478=DIRECTION('',(0.,-0.707106781186548,0.707106781186547));
#479=DIRECTION('center_axis',(0.,0.707106781186547,0.707106781186548));
#480=DIRECTION('ref_axis',(1.,0.,0.));
#481=DIRECTION('center_axis',(0.,-1.,0.));
#482=DIRECTION('ref_axis',(1.,0.,0.));
#483=CARTESIAN_POINT('',(0.,0.,0.));
#484=CARTESIAN_POINT('Origin',(-98.325,-114.75,0.));
#485=CARTESIAN_POINT('',(-106.825,-119.,0.));
#486=CARTESIAN_POINT('',(-106.825,-96.5,0.));
#487=CARTESIAN_POINT('',(-106.825,-107.625,0.));
#488=CARTESIAN_POINT('',(-89.825,-96.5,0.));
#489=CARTESIAN_POINT('',(-106.575,-96.5,0.));
#490=CARTESIAN_POINT('',(-89.825,-119.,0.));
#491=CARTESIAN_POINT('',(-89.825,-99.5,0.));
#492=CARTESIAN_POINT('',(-105.,-119.,0.));
#493=CARTESIAN_POINT('',(-97.075,-100.,0.));
#494=CARTESIAN_POINT('Origin',(-98.325,-100.,0.));
#495=CARTESIAN_POINT('Origin',(-114.825,-96.5,0.));
#496=CARTESIAN_POINT('',(-106.825,-96.5,4.));
#497=CARTESIAN_POINT('',(-89.825,-96.5,4.));
#498=CARTESIAN_POINT('',(-108.575,-96.5,4.));
#499=CARTESIAN_POINT('',(-89.825,-96.5,0.));
#500=CARTESIAN_POINT('',(-106.825,-96.5,0.));
#501=CARTESIAN_POINT('Origin',(-105.725,-121.5,0.));
#502=CARTESIAN_POINT('',(-105.725,-121.5,3.));
#503=CARTESIAN_POINT('',(-90.925,-121.5,3.));
#504=CARTESIAN_POINT('',(-102.025,-121.5,3.));
#505=CARTESIAN_POINT('',(-90.925,-121.5,9.5));
#506=CARTESIAN_POINT('',(-90.925,-121.5,0.));
#507=CARTESIAN_POINT('',(-91.65,-121.5,9.5));
#508=CARTESIAN_POINT('',(-105.81875,-121.5,9.5));
#509=CARTESIAN_POINT('',(-91.65,-121.5,5.375));
#510=CARTESIAN_POINT('',(-91.65,-121.5,0.));
#511=CARTESIAN_POINT('',(-105.,-121.5,5.375));
#512=CARTESIAN_POINT('',(-102.025,-121.5,5.375));
#513=CARTESIAN_POINT('',(-105.,-121.5,9.5));
#514=CARTESIAN_POINT('',(-105.,-121.5,0.));
#515=CARTESIAN_POINT('',(-105.725,-121.5,9.5));
#516=CARTESIAN_POINT('',(-105.81875,-121.5,9.5));
#517=CARTESIAN_POINT('',(-105.725,-121.5,0.));
#518=CARTESIAN_POINT('Origin',(-114.825,-109.,0.));
#519=CARTESIAN_POINT('',(-91.65,-109.,9.5));
#520=CARTESIAN_POINT('',(-91.65,-109.,5.375));
#521=CARTESIAN_POINT('',(-91.65,-109.,0.));
#522=CARTESIAN_POINT('',(-105.,-109.,9.5));
#523=CARTESIAN_POINT('',(-110.36875,-109.,9.5));
#524=CARTESIAN_POINT('',(-105.,-109.,5.375));
#525=CARTESIAN_POINT('',(-105.,-109.,0.));
#526=CARTESIAN_POINT('',(-106.575,-109.,5.375));
#527=CARTESIAN_POINT('Origin',(-91.65,-108.5,0.));
#528=CARTESIAN_POINT('',(-91.65,-109.,5.375));
#529=CARTESIAN_POINT('',(-91.65,-108.5,9.5));
#530=CARTESIAN_POINT('Origin',(-90.925,-121.,0.));
#531=CARTESIAN_POINT('',(-90.925,-119.,3.));
#532=CARTESIAN_POINT('',(-90.925,-120.,3.));
#533=CARTESIAN_POINT('',(-90.925,-119.,9.5));
#534=CARTESIAN_POINT('',(-90.925,-119.,0.));
#535=CARTESIAN_POINT('',(-90.925,-121.,9.5));
#536=CARTESIAN_POINT('Origin',(-98.325,-120.,3.));
#537=CARTESIAN_POINT('',(-105.725,-119.,3.));
#538=CARTESIAN_POINT('',(-105.725,-121.,3.));
#539=CARTESIAN_POINT('',(-91.65,-119.,3.));
#540=CARTESIAN_POINT('Origin',(-105.725,-119.,0.));
#541=CARTESIAN_POINT('',(-105.725,-119.,9.5));
#542=CARTESIAN_POINT('',(-105.725,-121.,9.5));
#543=CARTESIAN_POINT('',(-105.725,-119.,0.));
#544=CARTESIAN_POINT('Origin',(-105.9125,-113.75,9.5));
#545=CARTESIAN_POINT('',(-89.825,-119.,9.5));
#546=CARTESIAN_POINT('',(-91.65,-119.,9.5));
#547=CARTESIAN_POINT('',(-89.825,-108.,9.5));
#548=CARTESIAN_POINT('',(-89.825,-119.,9.5));
#549=CARTESIAN_POINT('',(-106.825,-108.,9.5));
#550=CARTESIAN_POINT('',(-97.86875,-108.,9.5));
#551=CARTESIAN_POINT('',(-106.825,-119.,9.5));
#552=CARTESIAN_POINT('',(-106.825,-106.5,9.5));
#553=CARTESIAN_POINT('',(-105.,-119.,9.5));
#554=CARTESIAN_POINT('',(-105.,-121.,9.5));
#555=CARTESIAN_POINT('Origin',(-98.325,-114.75,5.375));
#556=CARTESIAN_POINT('',(-105.,-121.,5.375));
#557=CARTESIAN_POINT('Origin',(-105.,-119.,0.));
#558=CARTESIAN_POINT('Origin',(-98.325,-100.,4.));
#559=CARTESIAN_POINT('',(-97.075,-100.,4.));
#560=CARTESIAN_POINT('Origin',(-98.325,-100.,4.));
#561=CARTESIAN_POINT('',(-97.075,-100.,4.));
#562=CARTESIAN_POINT('Origin',(-102.325,-101.,4.));
#563=CARTESIAN_POINT('',(-106.825,-106.5,4.));
#564=CARTESIAN_POINT('',(-106.825,-97.25,4.));
#565=CARTESIAN_POINT('',(-89.825,-106.5,4.));
#566=CARTESIAN_POINT('',(-96.075,-106.5,4.));
#567=CARTESIAN_POINT('',(-89.825,-104.75,4.));
#568=CARTESIAN_POINT('Origin',(-89.825,-108.5,0.));
#569=CARTESIAN_POINT('',(-89.825,-106.5,8.));
#570=CARTESIAN_POINT('',(-89.825,-106.5,4.));
#571=CARTESIAN_POINT('',(-89.825,-108.,9.5));
#572=CARTESIAN_POINT('',(-89.825,-119.,0.));
#573=CARTESIAN_POINT('Origin',(-89.825,-106.5,8.));
#574=CARTESIAN_POINT('',(-106.825,-106.5,8.));
#575=CARTESIAN_POINT('',(-96.075,-106.5,8.));
#576=CARTESIAN_POINT('',(-106.825,-106.5,4.));
#577=CARTESIAN_POINT('Origin',(-106.825,-93.5,0.));
#578=CARTESIAN_POINT('',(-106.825,-119.,0.));
#579=CARTESIAN_POINT('',(-106.825,-105.375,6.875));
#580=CARTESIAN_POINT('Origin',(-97.86875,-107.25,8.75));
#581=CARTESIAN_POINT('Origin',(-106.825,-119.,0.));
#582=UNCERTAINTY_MEASURE_WITH_UNIT(LENGTH_MEASURE(0.01),#586,
'DISTANCE_ACCURACY_VALUE',
'Maximum model space distance between geometric entities at asserted c
onnectivities');
#583=UNCERTAINTY_MEASURE_WITH_UNIT(LENGTH_MEASURE(0.01),#586,
'DISTANCE_ACCURACY_VALUE',
'Maximum model space distance between geometric entities at asserted c
onnectivities');
#584=(
GEOMETRIC_REPRESENTATION_CONTEXT(3)
GLOBAL_UNCERTAINTY_ASSIGNED_CONTEXT((#582))
GLOBAL_UNIT_ASSIGNED_CONTEXT((#586,#588,#589))
REPRESENTATION_CONTEXT('','3D')
);
#585=(
GEOMETRIC_REPRESENTATION_CONTEXT(3)
GLOBAL_UNCERTAINTY_ASSIGNED_CONTEXT((#583))
GLOBAL_UNIT_ASSIGNED_CONTEXT((#586,#588,#589))
REPRESENTATION_CONTEXT('','3D')
);
#586=(
LENGTH_UNIT()
NAMED_UNIT(*)
SI_UNIT(.MILLI.,.METRE.)
);
#587=(
LENGTH_UNIT()
NAMED_UNIT(*)
SI_UNIT($,.METRE.)
);
#588=(
NAMED_UNIT(*)
PLANE_ANGLE_UNIT()
SI_UNIT($,.RADIAN.)
);
#589=(
NAMED_UNIT(*)
SI_UNIT($,.STERADIAN.)
SOLID_ANGLE_UNIT()
);
#590=SHAPE_DEFINITION_REPRESENTATION(#591,#592);
#591=PRODUCT_DEFINITION_SHAPE('',$,#594);
#592=SHAPE_REPRESENTATION('',(#374),#584);
#593=PRODUCT_DEFINITION_CONTEXT('part definition',#598,'design');
#594=PRODUCT_DEFINITION('wii_and_hdmi_mount','wii_and_hdmi_mount v13',#595,
#593);
#595=PRODUCT_DEFINITION_FORMATION('',$,#600);
#596=PRODUCT_RELATED_PRODUCT_CATEGORY('wii_and_hdmi_mount v13',
'wii_and_hdmi_mount v13',(#600));
#597=APPLICATION_PROTOCOL_DEFINITION('international standard',
'automotive_design',2009,#598);
#598=APPLICATION_CONTEXT(
'Core Data for Automotive Mechanical Design Process');
#599=PRODUCT_CONTEXT('part definition',#598,'mechanical');
#600=PRODUCT('wii_and_hdmi_mount','wii_and_hdmi_mount v13',$,(#599));
#601=PRESENTATION_STYLE_ASSIGNMENT((#602));
#602=SURFACE_STYLE_USAGE(.BOTH.,#603);
#603=SURFACE_SIDE_STYLE('',(#604));
#604=SURFACE_STYLE_FILL_AREA(#605);
#605=FILL_AREA_STYLE('Steel - Satin',(#606));
#606=FILL_AREA_STYLE_COLOUR('Steel - Satin',#607);
#607=COLOUR_RGB('Steel - Satin',0.627450980392157,0.627450980392157,0.627450980392157);
ENDSEC;
END-ISO-10303-21;
