ISO-10303-21;
HEADER;
/* Generated by software containing ST-Developer
 * from STEP Tools, Inc. (www.steptools.com) 
 */

FILE_DESCRIPTION(
/* description */ (''),
/* implementation_level */ '2;1');

FILE_NAME(
/* name */ 'wii_jack_holder_bottom.step',
/* time_stamp */ '2026-02-11T07:55:36-06:00',
/* author */ (''),
/* organization */ (''),
/* preprocessor_version */ 'ST-DEVELOPER v20.1',
/* originating_system */ 'Autodesk Translation Framework v14.21.0.0',
/* authorisation */ '');

FILE_SCHEMA (('AUTOMOTIVE_DESIGN { 1 0 10303 214 3 1 1 }'));
ENDSEC;

DATA;
#10=MECHANICAL_DESIGN_GEOMETRIC_PRESENTATION_REPRESENTATION('',(#13),#810);
#11=SHAPE_REPRESENTATION_RELATIONSHIP('SRR','None',#817,#12);
#12=ADVANCED_BREP_SHAPE_REPRESENTATION('',(#14),#809);
#13=STYLED_ITEM('',(#826),#14);
#14=MANIFOLD_SOLID_BREP('wii_jack_holder_bottom',#506);
#15=FACE_OUTER_BOUND('',#40,.T.);
#16=FACE_OUTER_BOUND('',#41,.T.);
#17=FACE_OUTER_BOUND('',#42,.T.);
#18=FACE_OUTER_BOUND('',#43,.T.);
#19=FACE_OUTER_BOUND('',#44,.T.);
#20=FACE_OUTER_BOUND('',#45,.T.);
#21=FACE_OUTER_BOUND('',#46,.T.);
#22=FACE_OUTER_BOUND('',#47,.T.);
#23=FACE_OUTER_BOUND('',#48,.T.);
#24=FACE_OUTER_BOUND('',#49,.T.);
#25=FACE_OUTER_BOUND('',#50,.T.);
#26=FACE_OUTER_BOUND('',#51,.T.);
#27=FACE_OUTER_BOUND('',#52,.T.);
#28=FACE_OUTER_BOUND('',#53,.T.);
#29=FACE_OUTER_BOUND('',#54,.T.);
#30=FACE_OUTER_BOUND('',#55,.T.);
#31=FACE_OUTER_BOUND('',#56,.T.);
#32=FACE_OUTER_BOUND('',#57,.T.);
#33=FACE_OUTER_BOUND('',#58,.T.);
#34=FACE_OUTER_BOUND('',#59,.T.);
#35=FACE_OUTER_BOUND('',#60,.T.);
#36=FACE_OUTER_BOUND('',#61,.T.);
#37=FACE_OUTER_BOUND('',#62,.T.);
#38=FACE_OUTER_BOUND('',#63,.T.);
#39=FACE_OUTER_BOUND('',#64,.T.);
#40=EDGE_LOOP('',(#318,#319,#320,#321));
#41=EDGE_LOOP('',(#322,#323,#324,#325,#326,#327,#328,#329,#330));
#42=EDGE_LOOP('',(#331,#332,#333,#334));
#43=EDGE_LOOP('',(#335,#336,#337,#338,#339,#340,#341,#342,#343));
#44=EDGE_LOOP('',(#344,#345,#346,#347));
#45=EDGE_LOOP('',(#348,#349,#350,#351));
#46=EDGE_LOOP('',(#352,#353,#354,#355));
#47=EDGE_LOOP('',(#356,#357,#358,#359));
#48=EDGE_LOOP('',(#360,#361,#362,#363,#364,#365,#366,#367));
#49=EDGE_LOOP('',(#368,#369,#370,#371));
#50=EDGE_LOOP('',(#372,#373,#374,#375,#376,#377,#378,#379));
#51=EDGE_LOOP('',(#380,#381,#382,#383));
#52=EDGE_LOOP('',(#384,#385,#386,#387,#388,#389));
#53=EDGE_LOOP('',(#390,#391,#392,#393));
#54=EDGE_LOOP('',(#394,#395,#396,#397,#398,#399,#400,#401,#402,#403,#404,
#405));
#55=EDGE_LOOP('',(#406,#407,#408,#409));
#56=EDGE_LOOP('',(#410,#411,#412,#413,#414,#415,#416,#417));
#57=EDGE_LOOP('',(#418,#419,#420,#421));
#58=EDGE_LOOP('',(#422,#423,#424,#425));
#59=EDGE_LOOP('',(#426,#427,#428,#429));
#60=EDGE_LOOP('',(#430,#431,#432,#433));
#61=EDGE_LOOP('',(#434,#435,#436,#437,#438,#439,#440,#441));
#62=EDGE_LOOP('',(#442,#443,#444,#445));
#63=EDGE_LOOP('',(#446,#447,#448,#449,#450,#451));
#64=EDGE_LOOP('',(#452,#453,#454,#455));
#65=LINE('',#670,#134);
#66=LINE('',#672,#135);
#67=LINE('',#674,#136);
#68=LINE('',#675,#137);
#69=LINE('',#678,#138);
#70=LINE('',#680,#139);
#71=LINE('',#682,#140);
#72=LINE('',#684,#141);
#73=LINE('',#686,#142);
#74=LINE('',#688,#143);
#75=LINE('',#690,#144);
#76=LINE('',#691,#145);
#77=LINE('',#694,#146);
#78=LINE('',#695,#147);
#79=LINE('',#698,#148);
#80=LINE('',#700,#149);
#81=LINE('',#702,#150);
#82=LINE('',#704,#151);
#83=LINE('',#706,#152);
#84=LINE('',#708,#153);
#85=LINE('',#709,#154);
#86=LINE('',#711,#155);
#87=LINE('',#712,#156);
#88=LINE('',#714,#157);
#89=LINE('',#716,#158);
#90=LINE('',#720,#159);
#91=LINE('',#722,#160);
#92=LINE('',#724,#161);
#93=LINE('',#726,#162);
#94=LINE('',#727,#163);
#95=LINE('',#730,#164);
#96=LINE('',#731,#165);
#97=LINE('',#734,#166);
#98=LINE('',#736,#167);
#99=LINE('',#738,#168);
#100=LINE('',#739,#169);
#101=LINE('',#741,#170);
#102=LINE('',#744,#171);
#103=LINE('',#746,#172);
#104=LINE('',#747,#173);
#105=LINE('',#750,#174);
#106=LINE('',#751,#175);
#107=LINE('',#754,#176);
#108=LINE('',#756,#177);
#109=LINE('',#758,#178);
#110=LINE('',#760,#179);
#111=LINE('',#762,#180);
#112=LINE('',#764,#181);
#113=LINE('',#766,#182);
#114=LINE('',#768,#183);
#115=LINE('',#770,#184);
#116=LINE('',#771,#185);
#117=LINE('',#774,#186);
#118=LINE('',#776,#187);
#119=LINE('',#777,#188);
#120=LINE('',#781,#189);
#121=LINE('',#782,#190);
#122=LINE('',#784,#191);
#123=LINE('',#786,#192);
#124=LINE('',#787,#193);
#125=LINE('',#788,#194);
#126=LINE('',#791,#195);
#127=LINE('',#792,#196);
#128=LINE('',#794,#197);
#129=LINE('',#797,#198);
#130=LINE('',#798,#199);
#131=LINE('',#800,#200);
#132=LINE('',#802,#201);
#133=LINE('',#803,#202);
#134=VECTOR('',#549,10.);
#135=VECTOR('',#550,10.);
#136=VECTOR('',#551,10.);
#137=VECTOR('',#552,10.);
#138=VECTOR('',#555,10.);
#139=VECTOR('',#556,10.);
#140=VECTOR('',#557,10.);
#141=VECTOR('',#558,10.);
#142=VECTOR('',#559,10.);
#143=VECTOR('',#560,10.);
#144=VECTOR('',#561,10.);
#145=VECTOR('',#562,10.);
#146=VECTOR('',#565,10.);
#147=VECTOR('',#566,10.);
#148=VECTOR('',#569,10.);
#149=VECTOR('',#570,10.);
#150=VECTOR('',#571,10.);
#151=VECTOR('',#572,10.);
#152=VECTOR('',#573,10.);
#153=VECTOR('',#574,10.);
#154=VECTOR('',#575,10.);
#155=VECTOR('',#578,10.);
#156=VECTOR('',#579,10.);
#157=VECTOR('',#582,10.);
#158=VECTOR('',#585,10.);
#159=VECTOR('',#590,10.);
#160=VECTOR('',#591,10.);
#161=VECTOR('',#592,10.);
#162=VECTOR('',#593,10.);
#163=VECTOR('',#594,10.);
#164=VECTOR('',#597,10.);
#165=VECTOR('',#598,10.);
#166=VECTOR('',#601,10.);
#167=VECTOR('',#602,10.);
#168=VECTOR('',#603,10.);
#169=VECTOR('',#604,10.);
#170=VECTOR('',#607,10.);
#171=VECTOR('',#610,10.);
#172=VECTOR('',#611,10.);
#173=VECTOR('',#612,10.);
#174=VECTOR('',#615,10.);
#175=VECTOR('',#616,10.);
#176=VECTOR('',#619,10.);
#177=VECTOR('',#620,10.);
#178=VECTOR('',#621,10.);
#179=VECTOR('',#622,10.);
#180=VECTOR('',#623,10.);
#181=VECTOR('',#624,10.);
#182=VECTOR('',#625,10.);
#183=VECTOR('',#626,10.);
#184=VECTOR('',#627,10.);
#185=VECTOR('',#628,10.);
#186=VECTOR('',#631,10.);
#187=VECTOR('',#632,10.);
#188=VECTOR('',#633,10.);
#189=VECTOR('',#636,10.);
#190=VECTOR('',#637,10.);
#191=VECTOR('',#638,10.);
#192=VECTOR('',#639,10.);
#193=VECTOR('',#640,10.);
#194=VECTOR('',#641,10.);
#195=VECTOR('',#644,10.);
#196=VECTOR('',#645,10.);
#197=VECTOR('',#648,10.);
#198=VECTOR('',#651,10.);
#199=VECTOR('',#652,10.);
#200=VECTOR('',#655,10.);
#201=VECTOR('',#658,10.);
#202=VECTOR('',#659,10.);
#203=VERTEX_POINT('',#668);
#204=VERTEX_POINT('',#669);
#205=VERTEX_POINT('',#671);
#206=VERTEX_POINT('',#673);
#207=VERTEX_POINT('',#677);
#208=VERTEX_POINT('',#679);
#209=VERTEX_POINT('',#681);
#210=VERTEX_POINT('',#683);
#211=VERTEX_POINT('',#685);
#212=VERTEX_POINT('',#687);
#213=VERTEX_POINT('',#689);
#214=VERTEX_POINT('',#693);
#215=VERTEX_POINT('',#697);
#216=VERTEX_POINT('',#699);
#217=VERTEX_POINT('',#701);
#218=VERTEX_POINT('',#703);
#219=VERTEX_POINT('',#705);
#220=VERTEX_POINT('',#707);
#221=VERTEX_POINT('',#719);
#222=VERTEX_POINT('',#721);
#223=VERTEX_POINT('',#723);
#224=VERTEX_POINT('',#725);
#225=VERTEX_POINT('',#729);
#226=VERTEX_POINT('',#733);
#227=VERTEX_POINT('',#735);
#228=VERTEX_POINT('',#737);
#229=VERTEX_POINT('',#743);
#230=VERTEX_POINT('',#745);
#231=VERTEX_POINT('',#749);
#232=VERTEX_POINT('',#753);
#233=VERTEX_POINT('',#755);
#234=VERTEX_POINT('',#757);
#235=VERTEX_POINT('',#759);
#236=VERTEX_POINT('',#761);
#237=VERTEX_POINT('',#763);
#238=VERTEX_POINT('',#765);
#239=VERTEX_POINT('',#767);
#240=VERTEX_POINT('',#769);
#241=VERTEX_POINT('',#773);
#242=VERTEX_POINT('',#775);
#243=VERTEX_POINT('',#779);
#244=VERTEX_POINT('',#780);
#245=VERTEX_POINT('',#783);
#246=VERTEX_POINT('',#785);
#247=VERTEX_POINT('',#790);
#248=VERTEX_POINT('',#796);
#249=EDGE_CURVE('',#203,#204,#65,.T.);
#250=EDGE_CURVE('',#205,#203,#66,.T.);
#251=EDGE_CURVE('',#206,#205,#67,.T.);
#252=EDGE_CURVE('',#204,#206,#68,.T.);
#253=EDGE_CURVE('',#203,#207,#69,.T.);
#254=EDGE_CURVE('',#207,#208,#70,.T.);
#255=EDGE_CURVE('',#208,#209,#71,.T.);
#256=EDGE_CURVE('',#209,#210,#72,.T.);
#257=EDGE_CURVE('',#211,#210,#73,.T.);
#258=EDGE_CURVE('',#211,#212,#74,.T.);
#259=EDGE_CURVE('',#213,#212,#75,.T.);
#260=EDGE_CURVE('',#205,#213,#76,.T.);
#261=EDGE_CURVE('',#214,#204,#77,.T.);
#262=EDGE_CURVE('',#214,#207,#78,.T.);
#263=EDGE_CURVE('',#215,#206,#79,.T.);
#264=EDGE_CURVE('',#216,#215,#80,.T.);
#265=EDGE_CURVE('',#216,#217,#81,.T.);
#266=EDGE_CURVE('',#218,#217,#82,.T.);
#267=EDGE_CURVE('',#218,#219,#83,.T.);
#268=EDGE_CURVE('',#219,#220,#84,.T.);
#269=EDGE_CURVE('',#220,#214,#85,.T.);
#270=EDGE_CURVE('',#217,#211,#86,.T.);
#271=EDGE_CURVE('',#210,#218,#87,.T.);
#272=EDGE_CURVE('',#209,#219,#88,.T.);
#273=EDGE_CURVE('',#220,#208,#89,.T.);
#274=EDGE_CURVE('',#221,#216,#90,.T.);
#275=EDGE_CURVE('',#222,#221,#91,.T.);
#276=EDGE_CURVE('',#222,#223,#92,.T.);
#277=EDGE_CURVE('',#223,#224,#93,.T.);
#278=EDGE_CURVE('',#212,#224,#94,.T.);
#279=EDGE_CURVE('',#215,#225,#95,.T.);
#280=EDGE_CURVE('',#221,#225,#96,.T.);
#281=EDGE_CURVE('',#226,#213,#97,.T.);
#282=EDGE_CURVE('',#226,#227,#98,.T.);
#283=EDGE_CURVE('',#227,#228,#99,.T.);
#284=EDGE_CURVE('',#225,#228,#100,.T.);
#285=EDGE_CURVE('',#224,#226,#101,.T.);
#286=EDGE_CURVE('',#229,#228,#102,.T.);
#287=EDGE_CURVE('',#230,#229,#103,.T.);
#288=EDGE_CURVE('',#222,#230,#104,.T.);
#289=EDGE_CURVE('',#227,#231,#105,.T.);
#290=EDGE_CURVE('',#231,#229,#106,.T.);
#291=EDGE_CURVE('',#231,#232,#107,.T.);
#292=EDGE_CURVE('',#232,#233,#108,.T.);
#293=EDGE_CURVE('',#233,#234,#109,.T.);
#294=EDGE_CURVE('',#234,#235,#110,.T.);
#295=EDGE_CURVE('',#235,#236,#111,.T.);
#296=EDGE_CURVE('',#236,#237,#112,.T.);
#297=EDGE_CURVE('',#237,#238,#113,.T.);
#298=EDGE_CURVE('',#238,#239,#114,.T.);
#299=EDGE_CURVE('',#239,#240,#115,.T.);
#300=EDGE_CURVE('',#240,#230,#116,.T.);
#301=EDGE_CURVE('',#241,#237,#117,.T.);
#302=EDGE_CURVE('',#242,#236,#118,.T.);
#303=EDGE_CURVE('',#241,#242,#119,.T.);
#304=EDGE_CURVE('',#243,#244,#120,.T.);
#305=EDGE_CURVE('',#244,#239,#121,.T.);
#306=EDGE_CURVE('',#245,#238,#122,.T.);
#307=EDGE_CURVE('',#246,#245,#123,.T.);
#308=EDGE_CURVE('',#246,#235,#124,.T.);
#309=EDGE_CURVE('',#243,#234,#125,.T.);
#310=EDGE_CURVE('',#244,#247,#126,.T.);
#311=EDGE_CURVE('',#247,#240,#127,.T.);
#312=EDGE_CURVE('',#245,#241,#128,.T.);
#313=EDGE_CURVE('',#248,#243,#129,.T.);
#314=EDGE_CURVE('',#247,#248,#130,.T.);
#315=EDGE_CURVE('',#242,#246,#131,.T.);
#316=EDGE_CURVE('',#248,#233,#132,.T.);
#317=EDGE_CURVE('',#223,#232,#133,.T.);
#318=ORIENTED_EDGE('',*,*,#249,.F.);
#319=ORIENTED_EDGE('',*,*,#250,.F.);
#320=ORIENTED_EDGE('',*,*,#251,.F.);
#321=ORIENTED_EDGE('',*,*,#252,.F.);
#322=ORIENTED_EDGE('',*,*,#250,.T.);
#323=ORIENTED_EDGE('',*,*,#253,.T.);
#324=ORIENTED_EDGE('',*,*,#254,.T.);
#325=ORIENTED_EDGE('',*,*,#255,.T.);
#326=ORIENTED_EDGE('',*,*,#256,.T.);
#327=ORIENTED_EDGE('',*,*,#257,.F.);
#328=ORIENTED_EDGE('',*,*,#258,.T.);
#329=ORIENTED_EDGE('',*,*,#259,.F.);
#330=ORIENTED_EDGE('',*,*,#260,.F.);
#331=ORIENTED_EDGE('',*,*,#249,.T.);
#332=ORIENTED_EDGE('',*,*,#261,.F.);
#333=ORIENTED_EDGE('',*,*,#262,.T.);
#334=ORIENTED_EDGE('',*,*,#253,.F.);
#335=ORIENTED_EDGE('',*,*,#252,.T.);
#336=ORIENTED_EDGE('',*,*,#263,.F.);
#337=ORIENTED_EDGE('',*,*,#264,.F.);
#338=ORIENTED_EDGE('',*,*,#265,.T.);
#339=ORIENTED_EDGE('',*,*,#266,.F.);
#340=ORIENTED_EDGE('',*,*,#267,.T.);
#341=ORIENTED_EDGE('',*,*,#268,.T.);
#342=ORIENTED_EDGE('',*,*,#269,.T.);
#343=ORIENTED_EDGE('',*,*,#261,.T.);
#344=ORIENTED_EDGE('',*,*,#266,.T.);
#345=ORIENTED_EDGE('',*,*,#270,.T.);
#346=ORIENTED_EDGE('',*,*,#257,.T.);
#347=ORIENTED_EDGE('',*,*,#271,.T.);
#348=ORIENTED_EDGE('',*,*,#271,.F.);
#349=ORIENTED_EDGE('',*,*,#256,.F.);
#350=ORIENTED_EDGE('',*,*,#272,.T.);
#351=ORIENTED_EDGE('',*,*,#267,.F.);
#352=ORIENTED_EDGE('',*,*,#268,.F.);
#353=ORIENTED_EDGE('',*,*,#272,.F.);
#354=ORIENTED_EDGE('',*,*,#255,.F.);
#355=ORIENTED_EDGE('',*,*,#273,.F.);
#356=ORIENTED_EDGE('',*,*,#262,.F.);
#357=ORIENTED_EDGE('',*,*,#269,.F.);
#358=ORIENTED_EDGE('',*,*,#273,.T.);
#359=ORIENTED_EDGE('',*,*,#254,.F.);
#360=ORIENTED_EDGE('',*,*,#270,.F.);
#361=ORIENTED_EDGE('',*,*,#265,.F.);
#362=ORIENTED_EDGE('',*,*,#274,.F.);
#363=ORIENTED_EDGE('',*,*,#275,.F.);
#364=ORIENTED_EDGE('',*,*,#276,.T.);
#365=ORIENTED_EDGE('',*,*,#277,.T.);
#366=ORIENTED_EDGE('',*,*,#278,.F.);
#367=ORIENTED_EDGE('',*,*,#258,.F.);
#368=ORIENTED_EDGE('',*,*,#279,.T.);
#369=ORIENTED_EDGE('',*,*,#280,.F.);
#370=ORIENTED_EDGE('',*,*,#274,.T.);
#371=ORIENTED_EDGE('',*,*,#264,.T.);
#372=ORIENTED_EDGE('',*,*,#251,.T.);
#373=ORIENTED_EDGE('',*,*,#260,.T.);
#374=ORIENTED_EDGE('',*,*,#281,.F.);
#375=ORIENTED_EDGE('',*,*,#282,.T.);
#376=ORIENTED_EDGE('',*,*,#283,.T.);
#377=ORIENTED_EDGE('',*,*,#284,.F.);
#378=ORIENTED_EDGE('',*,*,#279,.F.);
#379=ORIENTED_EDGE('',*,*,#263,.T.);
#380=ORIENTED_EDGE('',*,*,#281,.T.);
#381=ORIENTED_EDGE('',*,*,#259,.T.);
#382=ORIENTED_EDGE('',*,*,#278,.T.);
#383=ORIENTED_EDGE('',*,*,#285,.T.);
#384=ORIENTED_EDGE('',*,*,#280,.T.);
#385=ORIENTED_EDGE('',*,*,#284,.T.);
#386=ORIENTED_EDGE('',*,*,#286,.F.);
#387=ORIENTED_EDGE('',*,*,#287,.F.);
#388=ORIENTED_EDGE('',*,*,#288,.F.);
#389=ORIENTED_EDGE('',*,*,#275,.T.);
#390=ORIENTED_EDGE('',*,*,#289,.T.);
#391=ORIENTED_EDGE('',*,*,#290,.T.);
#392=ORIENTED_EDGE('',*,*,#286,.T.);
#393=ORIENTED_EDGE('',*,*,#283,.F.);
#394=ORIENTED_EDGE('',*,*,#290,.F.);
#395=ORIENTED_EDGE('',*,*,#291,.T.);
#396=ORIENTED_EDGE('',*,*,#292,.T.);
#397=ORIENTED_EDGE('',*,*,#293,.T.);
#398=ORIENTED_EDGE('',*,*,#294,.T.);
#399=ORIENTED_EDGE('',*,*,#295,.T.);
#400=ORIENTED_EDGE('',*,*,#296,.T.);
#401=ORIENTED_EDGE('',*,*,#297,.T.);
#402=ORIENTED_EDGE('',*,*,#298,.T.);
#403=ORIENTED_EDGE('',*,*,#299,.T.);
#404=ORIENTED_EDGE('',*,*,#300,.T.);
#405=ORIENTED_EDGE('',*,*,#287,.T.);
#406=ORIENTED_EDGE('',*,*,#301,.T.);
#407=ORIENTED_EDGE('',*,*,#296,.F.);
#408=ORIENTED_EDGE('',*,*,#302,.F.);
#409=ORIENTED_EDGE('',*,*,#303,.F.);
#410=ORIENTED_EDGE('',*,*,#304,.T.);
#411=ORIENTED_EDGE('',*,*,#305,.T.);
#412=ORIENTED_EDGE('',*,*,#298,.F.);
#413=ORIENTED_EDGE('',*,*,#306,.F.);
#414=ORIENTED_EDGE('',*,*,#307,.F.);
#415=ORIENTED_EDGE('',*,*,#308,.T.);
#416=ORIENTED_EDGE('',*,*,#294,.F.);
#417=ORIENTED_EDGE('',*,*,#309,.F.);
#418=ORIENTED_EDGE('',*,*,#310,.T.);
#419=ORIENTED_EDGE('',*,*,#311,.T.);
#420=ORIENTED_EDGE('',*,*,#299,.F.);
#421=ORIENTED_EDGE('',*,*,#305,.F.);
#422=ORIENTED_EDGE('',*,*,#312,.F.);
#423=ORIENTED_EDGE('',*,*,#306,.T.);
#424=ORIENTED_EDGE('',*,*,#297,.F.);
#425=ORIENTED_EDGE('',*,*,#301,.F.);
#426=ORIENTED_EDGE('',*,*,#304,.F.);
#427=ORIENTED_EDGE('',*,*,#313,.F.);
#428=ORIENTED_EDGE('',*,*,#314,.F.);
#429=ORIENTED_EDGE('',*,*,#310,.F.);
#430=ORIENTED_EDGE('',*,*,#315,.F.);
#431=ORIENTED_EDGE('',*,*,#302,.T.);
#432=ORIENTED_EDGE('',*,*,#295,.F.);
#433=ORIENTED_EDGE('',*,*,#308,.F.);
#434=ORIENTED_EDGE('',*,*,#314,.T.);
#435=ORIENTED_EDGE('',*,*,#316,.T.);
#436=ORIENTED_EDGE('',*,*,#292,.F.);
#437=ORIENTED_EDGE('',*,*,#317,.F.);
#438=ORIENTED_EDGE('',*,*,#276,.F.);
#439=ORIENTED_EDGE('',*,*,#288,.T.);
#440=ORIENTED_EDGE('',*,*,#300,.F.);
#441=ORIENTED_EDGE('',*,*,#311,.F.);
#442=ORIENTED_EDGE('',*,*,#313,.T.);
#443=ORIENTED_EDGE('',*,*,#309,.T.);
#444=ORIENTED_EDGE('',*,*,#293,.F.);
#445=ORIENTED_EDGE('',*,*,#316,.F.);
#446=ORIENTED_EDGE('',*,*,#289,.F.);
#447=ORIENTED_EDGE('',*,*,#282,.F.);
#448=ORIENTED_EDGE('',*,*,#285,.F.);
#449=ORIENTED_EDGE('',*,*,#277,.F.);
#450=ORIENTED_EDGE('',*,*,#317,.T.);
#451=ORIENTED_EDGE('',*,*,#291,.F.);
#452=ORIENTED_EDGE('',*,*,#312,.T.);
#453=ORIENTED_EDGE('',*,*,#303,.T.);
#454=ORIENTED_EDGE('',*,*,#315,.T.);
#455=ORIENTED_EDGE('',*,*,#307,.T.);
#456=PLANE('',#520);
#457=PLANE('',#521);
#458=PLANE('',#522);
#459=PLANE('',#523);
#460=PLANE('',#524);
#461=PLANE('',#525);
#462=PLANE('',#526);
#463=PLANE('',#527);
#464=PLANE('',#528);
#465=PLANE('',#529);
#466=PLANE('',#530);
#467=PLANE('',#531);
#468=PLANE('',#532);
#469=PLANE('',#533);
#470=PLANE('',#534);
#471=PLANE('',#535);
#472=PLANE('',#536);
#473=PLANE('',#537);
#474=PLANE('',#538);
#475=PLANE('',#539);
#476=PLANE('',#540);
#477=PLANE('',#541);
#478=PLANE('',#542);
#479=PLANE('',#543);
#480=PLANE('',#544);
#481=ADVANCED_FACE('',(#15),#456,.F.);
#482=ADVANCED_FACE('',(#16),#457,.T.);
#483=ADVANCED_FACE('',(#17),#458,.F.);
#484=ADVANCED_FACE('',(#18),#459,.T.);
#485=ADVANCED_FACE('',(#19),#460,.T.);
#486=ADVANCED_FACE('',(#20),#461,.F.);
#487=ADVANCED_FACE('',(#21),#462,.F.);
#488=ADVANCED_FACE('',(#22),#463,.F.);
#489=ADVANCED_FACE('',(#23),#464,.F.);
#490=ADVANCED_FACE('',(#24),#465,.T.);
#491=ADVANCED_FACE('',(#25),#466,.T.);
#492=ADVANCED_FACE('',(#26),#467,.T.);
#493=ADVANCED_FACE('',(#27),#468,.T.);
#494=ADVANCED_FACE('',(#28),#469,.T.);
#495=ADVANCED_FACE('',(#29),#470,.T.);
#496=ADVANCED_FACE('',(#30),#471,.T.);
#497=ADVANCED_FACE('',(#31),#472,.T.);
#498=ADVANCED_FACE('',(#32),#473,.T.);
#499=ADVANCED_FACE('',(#33),#474,.T.);
#500=ADVANCED_FACE('',(#34),#475,.F.);
#501=ADVANCED_FACE('',(#35),#476,.T.);
#502=ADVANCED_FACE('',(#36),#477,.T.);
#503=ADVANCED_FACE('',(#37),#478,.T.);
#504=ADVANCED_FACE('',(#38),#479,.T.);
#505=ADVANCED_FACE('',(#39),#480,.T.);
#506=CLOSED_SHELL('',(#481,#482,#483,#484,#485,#486,#487,#488,#489,#490,
#491,#492,#493,#494,#495,#496,#497,#498,#499,#500,#501,#502,#503,#504,#505));
#507=DERIVED_UNIT_ELEMENT(#509,1.);
#508=DERIVED_UNIT_ELEMENT(#812,-3.);
#509=(
MASS_UNIT()
NAMED_UNIT(*)
SI_UNIT(.KILO.,.GRAM.)
);
#510=DERIVED_UNIT((#507,#508));
#511=MEASURE_REPRESENTATION_ITEM('density measure',
POSITIVE_RATIO_MEASURE(7850.),#510);
#512=PROPERTY_DEFINITION_REPRESENTATION(#517,#514);
#513=PROPERTY_DEFINITION_REPRESENTATION(#518,#515);
#514=REPRESENTATION('material name',(#516),#809);
#515=REPRESENTATION('density',(#511),#809);
#516=DESCRIPTIVE_REPRESENTATION_ITEM('Steel','Steel');
#517=PROPERTY_DEFINITION('material property','material name',#819);
#518=PROPERTY_DEFINITION('material property','density of part',#819);
#519=AXIS2_PLACEMENT_3D('',#666,#545,#546);
#520=AXIS2_PLACEMENT_3D('',#667,#547,#548);
#521=AXIS2_PLACEMENT_3D('',#676,#553,#554);
#522=AXIS2_PLACEMENT_3D('',#692,#563,#564);
#523=AXIS2_PLACEMENT_3D('',#696,#567,#568);
#524=AXIS2_PLACEMENT_3D('',#710,#576,#577);
#525=AXIS2_PLACEMENT_3D('',#713,#580,#581);
#526=AXIS2_PLACEMENT_3D('',#715,#583,#584);
#527=AXIS2_PLACEMENT_3D('',#717,#586,#587);
#528=AXIS2_PLACEMENT_3D('',#718,#588,#589);
#529=AXIS2_PLACEMENT_3D('',#728,#595,#596);
#530=AXIS2_PLACEMENT_3D('',#732,#599,#600);
#531=AXIS2_PLACEMENT_3D('',#740,#605,#606);
#532=AXIS2_PLACEMENT_3D('',#742,#608,#609);
#533=AXIS2_PLACEMENT_3D('',#748,#613,#614);
#534=AXIS2_PLACEMENT_3D('',#752,#617,#618);
#535=AXIS2_PLACEMENT_3D('',#772,#629,#630);
#536=AXIS2_PLACEMENT_3D('',#778,#634,#635);
#537=AXIS2_PLACEMENT_3D('',#789,#642,#643);
#538=AXIS2_PLACEMENT_3D('',#793,#646,#647);
#539=AXIS2_PLACEMENT_3D('',#795,#649,#650);
#540=AXIS2_PLACEMENT_3D('',#799,#653,#654);
#541=AXIS2_PLACEMENT_3D('',#801,#656,#657);
#542=AXIS2_PLACEMENT_3D('',#804,#660,#661);
#543=AXIS2_PLACEMENT_3D('',#805,#662,#663);
#544=AXIS2_PLACEMENT_3D('',#806,#664,#665);
#545=DIRECTION('axis',(0.,0.,1.));
#546=DIRECTION('refdir',(1.,0.,0.));
#547=DIRECTION('center_axis',(0.,-1.,0.));
#548=DIRECTION('ref_axis',(0.,0.,-1.));
#549=DIRECTION('',(1.,0.,0.));
#550=DIRECTION('',(0.,0.,-1.));
#551=DIRECTION('',(-1.,0.,0.));
#552=DIRECTION('',(0.,0.,1.));
#553=DIRECTION('center_axis',(-1.,0.,0.));
#554=DIRECTION('ref_axis',(0.,-1.,0.));
#555=DIRECTION('',(0.,-1.,0.));
#556=DIRECTION('',(0.,0.,1.));
#557=DIRECTION('',(0.,-1.,0.));
#558=DIRECTION('',(0.,0.,-1.));
#559=DIRECTION('',(0.,0.707106781186547,0.707106781186548));
#560=DIRECTION('',(0.,-1.,0.));
#561=DIRECTION('',(0.,0.,-1.));
#562=DIRECTION('',(0.,-1.,0.));
#563=DIRECTION('center_axis',(0.,0.,1.));
#564=DIRECTION('ref_axis',(1.,0.,0.));
#565=DIRECTION('',(0.,1.,0.));
#566=DIRECTION('',(-1.,0.,0.));
#567=DIRECTION('center_axis',(1.,0.,0.));
#568=DIRECTION('ref_axis',(0.,1.,0.));
#569=DIRECTION('',(0.,1.,0.));
#570=DIRECTION('',(0.,0.,1.));
#571=DIRECTION('',(0.,1.,0.));
#572=DIRECTION('',(0.,-0.707106781186547,-0.707106781186548));
#573=DIRECTION('',(0.,0.,1.));
#574=DIRECTION('',(0.,1.,0.));
#575=DIRECTION('',(0.,0.,-1.));
#576=DIRECTION('center_axis',(0.,0.707106781186548,-0.707106781186547));
#577=DIRECTION('ref_axis',(-1.,0.,0.));
#578=DIRECTION('',(-1.,0.,0.));
#579=DIRECTION('',(1.,0.,0.));
#580=DIRECTION('center_axis',(0.,-1.,0.));
#581=DIRECTION('ref_axis',(1.,0.,0.));
#582=DIRECTION('',(1.,0.,0.));
#583=DIRECTION('center_axis',(0.,0.,1.));
#584=DIRECTION('ref_axis',(1.,0.,0.));
#585=DIRECTION('',(-1.,0.,0.));
#586=DIRECTION('center_axis',(0.,1.,0.));
#587=DIRECTION('ref_axis',(-1.,0.,0.));
#588=DIRECTION('center_axis',(0.,0.,1.));
#589=DIRECTION('ref_axis',(1.,0.,0.));
#590=DIRECTION('',(0.707106781186548,0.707106781186548,0.));
#591=DIRECTION('',(0.,1.,0.));
#592=DIRECTION('',(-1.,0.,0.));
#593=DIRECTION('',(0.,1.,0.));
#594=DIRECTION('',(0.707106781186548,-0.707106781186547,0.));
#595=DIRECTION('center_axis',(0.707106781186548,-0.707106781186548,0.));
#596=DIRECTION('ref_axis',(0.,0.,-1.));
#597=DIRECTION('',(-0.707106781186548,-0.707106781186548,0.));
#598=DIRECTION('',(0.,0.,1.));
#599=DIRECTION('center_axis',(0.,0.,1.));
#600=DIRECTION('ref_axis',(1.,0.,0.));
#601=DIRECTION('',(-0.707106781186548,0.707106781186547,0.));
#602=DIRECTION('',(0.,1.,0.));
#603=DIRECTION('',(1.,0.,0.));
#604=DIRECTION('',(0.,1.,0.));
#605=DIRECTION('center_axis',(-0.707106781186547,-0.707106781186548,0.));
#606=DIRECTION('ref_axis',(0.,0.,1.));
#607=DIRECTION('',(0.,0.,1.));
#608=DIRECTION('center_axis',(1.,0.,0.));
#609=DIRECTION('ref_axis',(0.,1.,0.));
#610=DIRECTION('',(0.,0.707106781186548,-0.707106781186547));
#611=DIRECTION('',(0.,1.,0.));
#612=DIRECTION('',(0.,0.,1.));
#613=DIRECTION('center_axis',(0.,0.707106781186547,0.707106781186548));
#614=DIRECTION('ref_axis',(1.,0.,0.));
#615=DIRECTION('',(0.,-0.707106781186548,0.707106781186547));
#616=DIRECTION('',(1.,0.,0.));
#617=DIRECTION('center_axis',(0.,0.,1.));
#618=DIRECTION('ref_axis',(1.,0.,0.));
#619=DIRECTION('',(0.,-1.,0.));
#620=DIRECTION('',(1.,0.,0.));
#621=DIRECTION('',(0.,-1.,0.));
#622=DIRECTION('',(1.,0.,0.));
#623=DIRECTION('',(0.,1.,0.));
#624=DIRECTION('',(1.,0.,0.));
#625=DIRECTION('',(0.,-1.,0.));
#626=DIRECTION('',(1.,0.,0.));
#627=DIRECTION('',(0.,1.,0.));
#628=DIRECTION('',(1.,0.,0.));
#629=DIRECTION('center_axis',(0.,-1.,0.));
#630=DIRECTION('ref_axis',(1.,0.,0.));
#631=DIRECTION('',(0.,0.,1.));
#632=DIRECTION('',(0.,0.,1.));
#633=DIRECTION('',(-1.,0.,0.));
#634=DIRECTION('center_axis',(0.,-1.,0.));
#635=DIRECTION('ref_axis',(1.,0.,0.));
#636=DIRECTION('',(1.,0.,0.));
#637=DIRECTION('',(0.,0.,1.));
#638=DIRECTION('',(0.,0.,1.));
#639=DIRECTION('',(1.,0.,0.));
#640=DIRECTION('',(0.,0.,1.));
#641=DIRECTION('',(0.,0.,1.));
#642=DIRECTION('center_axis',(1.,0.,0.));
#643=DIRECTION('ref_axis',(0.,1.,0.));
#644=DIRECTION('',(0.,1.,0.));
#645=DIRECTION('',(0.,0.,1.));
#646=DIRECTION('center_axis',(-1.,0.,0.));
#647=DIRECTION('ref_axis',(0.,-1.,0.));
#648=DIRECTION('',(0.,1.,0.));
#649=DIRECTION('center_axis',(0.,0.,1.));
#650=DIRECTION('ref_axis',(1.,0.,0.));
#651=DIRECTION('',(0.,-1.,0.));
#652=DIRECTION('',(-1.,0.,0.));
#653=DIRECTION('center_axis',(1.,0.,0.));
#654=DIRECTION('ref_axis',(0.,1.,0.));
#655=DIRECTION('',(0.,-1.,0.));
#656=DIRECTION('center_axis',(0.,-1.,0.));
#657=DIRECTION('ref_axis',(1.,0.,0.));
#658=DIRECTION('',(0.,0.,1.));
#659=DIRECTION('',(0.,0.,1.));
#660=DIRECTION('center_axis',(-1.,0.,0.));
#661=DIRECTION('ref_axis',(0.,-1.,0.));
#662=DIRECTION('center_axis',(-1.,0.,0.));
#663=DIRECTION('ref_axis',(0.,-1.,0.));
#664=DIRECTION('center_axis',(0.,0.,1.));
#665=DIRECTION('ref_axis',(1.,0.,0.));
#666=CARTESIAN_POINT('',(0.,0.,0.));
#667=CARTESIAN_POINT('Origin',(107.175,45.,0.));
#668=CARTESIAN_POINT('',(74.175,45.,0.));
#669=CARTESIAN_POINT('',(107.175,45.,0.));
#670=CARTESIAN_POINT('',(98.925,45.,0.));
#671=CARTESIAN_POINT('',(74.175,45.,8.));
#672=CARTESIAN_POINT('',(74.175,45.,0.));
#673=CARTESIAN_POINT('',(107.175,45.,8.));
#674=CARTESIAN_POINT('',(96.925,45.,8.));
#675=CARTESIAN_POINT('',(107.175,45.,0.));
#676=CARTESIAN_POINT('Origin',(74.175,27.5,0.));
#677=CARTESIAN_POINT('',(74.175,40.,0.));
#678=CARTESIAN_POINT('',(74.175,70.,0.));
#679=CARTESIAN_POINT('',(74.175,40.,6.));
#680=CARTESIAN_POINT('',(74.175,40.,0.));
#681=CARTESIAN_POINT('',(74.175,27.5,6.));
#682=CARTESIAN_POINT('',(74.175,30.625,6.));
#683=CARTESIAN_POINT('',(74.175,27.5,3.));
#684=CARTESIAN_POINT('',(74.175,27.5,0.));
#685=CARTESIAN_POINT('',(74.175,24.5,0.));
#686=CARTESIAN_POINT('',(74.175,26.,1.5));
#687=CARTESIAN_POINT('',(74.175,20.5,0.));
#688=CARTESIAN_POINT('',(74.175,70.,0.));
#689=CARTESIAN_POINT('',(74.175,20.5,8.));
#690=CARTESIAN_POINT('',(74.175,20.5,0.));
#691=CARTESIAN_POINT('',(74.175,70.,8.));
#692=CARTESIAN_POINT('Origin',(90.675,6.25,0.));
#693=CARTESIAN_POINT('',(107.175,40.,0.));
#694=CARTESIAN_POINT('',(107.175,12.5,0.));
#695=CARTESIAN_POINT('',(98.925,40.,0.));
#696=CARTESIAN_POINT('Origin',(107.175,12.5,0.));
#697=CARTESIAN_POINT('',(107.175,20.5,8.));
#698=CARTESIAN_POINT('',(107.175,12.5,8.));
#699=CARTESIAN_POINT('',(107.175,20.5,0.));
#700=CARTESIAN_POINT('',(107.175,20.5,0.));
#701=CARTESIAN_POINT('',(107.175,24.5,0.));
#702=CARTESIAN_POINT('',(107.175,12.5,0.));
#703=CARTESIAN_POINT('',(107.175,27.5,3.));
#704=CARTESIAN_POINT('',(107.175,22.25,-2.25));
#705=CARTESIAN_POINT('',(107.175,27.5,6.));
#706=CARTESIAN_POINT('',(107.175,27.5,0.));
#707=CARTESIAN_POINT('',(107.175,40.,6.));
#708=CARTESIAN_POINT('',(107.175,23.125,6.));
#709=CARTESIAN_POINT('',(107.175,40.,0.));
#710=CARTESIAN_POINT('Origin',(82.425,26.,1.5));
#711=CARTESIAN_POINT('',(82.425,24.5,0.));
#712=CARTESIAN_POINT('',(82.425,27.5,3.));
#713=CARTESIAN_POINT('Origin',(74.175,27.5,0.));
#714=CARTESIAN_POINT('',(74.175,27.5,6.));
#715=CARTESIAN_POINT('Origin',(90.675,33.75,6.));
#716=CARTESIAN_POINT('',(74.175,40.,6.));
#717=CARTESIAN_POINT('Origin',(107.175,40.,0.));
#718=CARTESIAN_POINT('Origin',(90.675,6.25,0.));
#719=CARTESIAN_POINT('',(99.175,12.5,0.));
#720=CARTESIAN_POINT('',(97.4875,10.8125,0.));
#721=CARTESIAN_POINT('',(99.175,2.,0.));
#722=CARTESIAN_POINT('',(99.175,2.,0.));
#723=CARTESIAN_POINT('',(82.175,2.,0.));
#724=CARTESIAN_POINT('',(84.,2.,0.));
#725=CARTESIAN_POINT('',(82.175,12.5,0.));
#726=CARTESIAN_POINT('',(82.175,2.,0.));
#727=CARTESIAN_POINT('',(83.8625,10.8125,0.));
#728=CARTESIAN_POINT('Origin',(103.175,16.5,0.));
#729=CARTESIAN_POINT('',(99.175,12.5,8.));
#730=CARTESIAN_POINT('',(99.925,13.25,8.));
#731=CARTESIAN_POINT('',(99.175,12.5,0.));
#732=CARTESIAN_POINT('Origin',(86.675,20.,8.));
#733=CARTESIAN_POINT('',(82.175,12.5,8.));
#734=CARTESIAN_POINT('',(79.425,15.25,8.));
#735=CARTESIAN_POINT('',(82.175,14.5,8.));
#736=CARTESIAN_POINT('',(82.175,17.25,8.));
#737=CARTESIAN_POINT('',(99.175,14.5,8.));
#738=CARTESIAN_POINT('',(92.925,14.5,8.));
#739=CARTESIAN_POINT('',(99.175,11.,8.));
#740=CARTESIAN_POINT('Origin',(78.175,16.5,0.));
#741=CARTESIAN_POINT('',(82.175,12.5,0.));
#742=CARTESIAN_POINT('Origin',(99.175,2.,0.));
#743=CARTESIAN_POINT('',(99.175,13.,9.5));
#744=CARTESIAN_POINT('',(99.175,13.,9.5));
#745=CARTESIAN_POINT('',(99.175,2.,9.5));
#746=CARTESIAN_POINT('',(99.175,2.,9.5));
#747=CARTESIAN_POINT('',(99.175,2.,0.));
#748=CARTESIAN_POINT('Origin',(91.13125,13.75,8.75));
#749=CARTESIAN_POINT('',(82.175,13.,9.5));
#750=CARTESIAN_POINT('',(82.175,15.625,6.875));
#751=CARTESIAN_POINT('',(91.13125,13.,9.5));
#752=CARTESIAN_POINT('Origin',(83.0875,7.25,9.5));
#753=CARTESIAN_POINT('',(82.175,2.,9.5));
#754=CARTESIAN_POINT('',(82.175,14.5,9.5));
#755=CARTESIAN_POINT('',(83.275,2.,9.5));
#756=CARTESIAN_POINT('',(84.,2.,9.5));
#757=CARTESIAN_POINT('',(83.275,0.,9.5));
#758=CARTESIAN_POINT('',(83.275,0.,9.5));
#759=CARTESIAN_POINT('',(84.,0.,9.5));
#760=CARTESIAN_POINT('',(84.,0.,9.5));
#761=CARTESIAN_POINT('',(84.,12.5,9.5));
#762=CARTESIAN_POINT('',(84.,2.,9.5));
#763=CARTESIAN_POINT('',(97.35,12.5,9.5));
#764=CARTESIAN_POINT('',(82.175,12.5,9.5));
#765=CARTESIAN_POINT('',(97.35,0.,9.5));
#766=CARTESIAN_POINT('',(97.35,12.5,9.5));
#767=CARTESIAN_POINT('',(98.075,0.,9.5));
#768=CARTESIAN_POINT('',(97.35,0.,9.5));
#769=CARTESIAN_POINT('',(98.075,2.,9.5));
#770=CARTESIAN_POINT('',(98.075,0.,9.5));
#771=CARTESIAN_POINT('',(97.35,2.,9.5));
#772=CARTESIAN_POINT('Origin',(74.175,12.5,0.));
#773=CARTESIAN_POINT('',(97.35,12.5,5.375));
#774=CARTESIAN_POINT('',(97.35,12.5,0.));
#775=CARTESIAN_POINT('',(84.,12.5,5.375));
#776=CARTESIAN_POINT('',(84.,12.5,0.));
#777=CARTESIAN_POINT('',(99.175,12.5,5.375));
#778=CARTESIAN_POINT('Origin',(83.275,0.,0.));
#779=CARTESIAN_POINT('',(83.275,0.,3.));
#780=CARTESIAN_POINT('',(98.075,0.,3.));
#781=CARTESIAN_POINT('',(90.3125,0.,3.));
#782=CARTESIAN_POINT('',(98.075,0.,0.));
#783=CARTESIAN_POINT('',(97.35,0.,5.375));
#784=CARTESIAN_POINT('',(97.35,0.,0.));
#785=CARTESIAN_POINT('',(84.,0.,5.375));
#786=CARTESIAN_POINT('',(84.,0.,5.375));
#787=CARTESIAN_POINT('',(84.,0.,0.));
#788=CARTESIAN_POINT('',(83.275,0.,0.));
#789=CARTESIAN_POINT('Origin',(98.075,0.,0.));
#790=CARTESIAN_POINT('',(98.075,2.,3.));
#791=CARTESIAN_POINT('',(98.075,1.,3.));
#792=CARTESIAN_POINT('',(98.075,2.,0.));
#793=CARTESIAN_POINT('Origin',(97.35,12.5,0.));
#794=CARTESIAN_POINT('',(97.35,9.375,5.375));
#795=CARTESIAN_POINT('Origin',(90.675,1.,3.));
#796=CARTESIAN_POINT('',(83.275,2.,3.));
#797=CARTESIAN_POINT('',(83.275,1.,3.));
#798=CARTESIAN_POINT('',(97.35,2.,3.));
#799=CARTESIAN_POINT('Origin',(84.,2.,0.));
#800=CARTESIAN_POINT('',(84.,4.125,5.375));
#801=CARTESIAN_POINT('Origin',(82.175,2.,0.));
#802=CARTESIAN_POINT('',(83.275,2.,0.));
#803=CARTESIAN_POINT('',(82.175,2.,0.));
#804=CARTESIAN_POINT('Origin',(83.275,2.,0.));
#805=CARTESIAN_POINT('Origin',(82.175,12.5,0.));
#806=CARTESIAN_POINT('Origin',(90.675,6.25,5.375));
#807=UNCERTAINTY_MEASURE_WITH_UNIT(LENGTH_MEASURE(0.01),#811,
'DISTANCE_ACCURACY_VALUE',
'Maximum model space distance between geometric entities at asserted c
onnectivities');
#808=UNCERTAINTY_MEASURE_WITH_UNIT(LENGTH_MEASURE(0.01),#811,
'DISTANCE_ACCURACY_VALUE',
'Maximum model space distance between geometric entities at asserted c
onnectivities');
#809=(
GEOMETRIC_REPRESENTATION_CONTEXT(3)
GLOBAL_UNCERTAINTY_ASSIGNED_CONTEXT((#807))
GLOBAL_UNIT_ASSIGNED_CONTEXT((#811,#813,#814))
REPRESENTATION_CONTEXT('','3D')
);
#810=(
GEOMETRIC_REPRESENTATION_CONTEXT(3)
GLOBAL_UNCERTAINTY_ASSIGNED_CONTEXT((#808))
GLOBAL_UNIT_ASSIGNED_CONTEXT((#811,#813,#814))
REPRESENTATION_CONTEXT('','3D')
);
#811=(
LENGTH_UNIT()
NAMED_UNIT(*)
SI_UNIT(.MILLI.,.METRE.)
);
#812=(
LENGTH_UNIT()
NAMED_UNIT(*)
SI_UNIT($,.METRE.)
);
#813=(
NAMED_UNIT(*)
PLANE_ANGLE_UNIT()
SI_UNIT($,.RADIAN.)
);
#814=(
NAMED_UNIT(*)
SI_UNIT($,.STERADIAN.)
SOLID_ANGLE_UNIT()
);
#815=SHAPE_DEFINITION_REPRESENTATION(#816,#817);
#816=PRODUCT_DEFINITION_SHAPE('',$,#819);
#817=SHAPE_REPRESENTATION('',(#519),#809);
#818=PRODUCT_DEFINITION_CONTEXT('part definition',#823,'design');
#819=PRODUCT_DEFINITION('wii_and_hdmi_mount','wii_and_hdmi_mount v5',#820,
#818);
#820=PRODUCT_DEFINITION_FORMATION('',$,#825);
#821=PRODUCT_RELATED_PRODUCT_CATEGORY('wii_and_hdmi_mount v5',
'wii_and_hdmi_mount v5',(#825));
#822=APPLICATION_PROTOCOL_DEFINITION('international standard',
'automotive_design',2009,#823);
#823=APPLICATION_CONTEXT(
'Core Data for Automotive Mechanical Design Process');
#824=PRODUCT_CONTEXT('part definition',#823,'mechanical');
#825=PRODUCT('wii_and_hdmi_mount','wii_and_hdmi_mount v5',$,(#824));
#826=PRESENTATION_STYLE_ASSIGNMENT((#827));
#827=SURFACE_STYLE_USAGE(.BOTH.,#828);
#828=SURFACE_SIDE_STYLE('',(#829));
#829=SURFACE_STYLE_FILL_AREA(#830);
#830=FILL_AREA_STYLE('Steel - Satin',(#831));
#831=FILL_AREA_STYLE_COLOUR('Steel - Satin',#832);
#832=COLOUR_RGB('Steel - Satin',0.627450980392157,0.627450980392157,0.627450980392157);
ENDSEC;
END-ISO-10303-21;
