ISO-10303-21;
HEADER;
/* Generated by software containing ST-Developer
 * from STEP Tools, Inc. (www.steptools.com) 
 */

FILE_DESCRIPTION(
/* description */ (''),
/* implementation_level */ '2;1');

FILE_NAME(
/* name */ 'wii_and_hdmi_mount.step',
/* time_stamp */ '2026-02-11T07:52:07-06:00',
/* author */ (''),
/* organization */ (''),
/* preprocessor_version */ 'ST-DEVELOPER v20.1',
/* originating_system */ 'Autodesk Translation Framework v14.21.0.0',
/* authorisation */ '');

FILE_SCHEMA (('AUTOMOTIVE_DESIGN { 1 0 10303 214 3 1 1 }'));
ENDSEC;

DATA;
#10=MECHANICAL_DESIGN_GEOMETRIC_PRESENTATION_REPRESENTATION('',(#13),#1119);
#11=SHAPE_REPRESENTATION_RELATIONSHIP('SRR','None',#1126,#12);
#12=ADVANCED_BREP_SHAPE_REPRESENTATION('',(#14),#1118);
#13=STYLED_ITEM('',(#1135),#14);
#14=MANIFOLD_SOLID_BREP('Body2',#699);
#15=CYLINDRICAL_SURFACE('',#729,1.00000000000001);
#16=CYLINDRICAL_SURFACE('',#730,1.00000000000001);
#17=FACE_BOUND('',#60,.T.);
#18=FACE_BOUND('',#62,.T.);
#19=FACE_BOUND('',#72,.T.);
#20=FACE_BOUND('',#73,.T.);
#21=CIRCLE('',#714,1.00000000000001);
#22=CIRCLE('',#716,1.00000000000001);
#23=CIRCLE('',#726,1.00000000000001);
#24=CIRCLE('',#727,1.00000000000001);
#25=FACE_OUTER_BOUND('',#59,.T.);
#26=FACE_OUTER_BOUND('',#61,.T.);
#27=FACE_OUTER_BOUND('',#63,.T.);
#28=FACE_OUTER_BOUND('',#64,.T.);
#29=FACE_OUTER_BOUND('',#65,.T.);
#30=FACE_OUTER_BOUND('',#66,.T.);
#31=FACE_OUTER_BOUND('',#67,.T.);
#32=FACE_OUTER_BOUND('',#68,.T.);
#33=FACE_OUTER_BOUND('',#69,.T.);
#34=FACE_OUTER_BOUND('',#70,.T.);
#35=FACE_OUTER_BOUND('',#71,.T.);
#36=FACE_OUTER_BOUND('',#74,.T.);
#37=FACE_OUTER_BOUND('',#75,.T.);
#38=FACE_OUTER_BOUND('',#76,.T.);
#39=FACE_OUTER_BOUND('',#77,.T.);
#40=FACE_OUTER_BOUND('',#78,.T.);
#41=FACE_OUTER_BOUND('',#79,.T.);
#42=FACE_OUTER_BOUND('',#80,.T.);
#43=FACE_OUTER_BOUND('',#81,.T.);
#44=FACE_OUTER_BOUND('',#82,.T.);
#45=FACE_OUTER_BOUND('',#83,.T.);
#46=FACE_OUTER_BOUND('',#84,.T.);
#47=FACE_OUTER_BOUND('',#85,.T.);
#48=FACE_OUTER_BOUND('',#86,.T.);
#49=FACE_OUTER_BOUND('',#87,.T.);
#50=FACE_OUTER_BOUND('',#88,.T.);
#51=FACE_OUTER_BOUND('',#89,.T.);
#52=FACE_OUTER_BOUND('',#90,.T.);
#53=FACE_OUTER_BOUND('',#91,.T.);
#54=FACE_OUTER_BOUND('',#92,.T.);
#55=FACE_OUTER_BOUND('',#93,.T.);
#56=FACE_OUTER_BOUND('',#94,.T.);
#57=FACE_OUTER_BOUND('',#95,.T.);
#58=FACE_OUTER_BOUND('',#96,.T.);
#59=EDGE_LOOP('',(#441,#442,#443,#444,#445,#446,#447));
#60=EDGE_LOOP('',(#448));
#61=EDGE_LOOP('',(#449,#450,#451,#452,#453,#454,#455));
#62=EDGE_LOOP('',(#456));
#63=EDGE_LOOP('',(#457,#458,#459,#460));
#64=EDGE_LOOP('',(#461,#462,#463,#464));
#65=EDGE_LOOP('',(#465,#466,#467,#468));
#66=EDGE_LOOP('',(#469,#470,#471,#472,#473,#474,#475,#476,#477,#478,#479,
#480));
#67=EDGE_LOOP('',(#481,#482,#483,#484));
#68=EDGE_LOOP('',(#485,#486,#487,#488));
#69=EDGE_LOOP('',(#489,#490,#491,#492,#493,#494,#495,#496,#497,#498,#499,
#500));
#70=EDGE_LOOP('',(#501,#502,#503,#504));
#71=EDGE_LOOP('',(#505,#506,#507,#508,#509,#510,#511,#512,#513,#514));
#72=EDGE_LOOP('',(#515));
#73=EDGE_LOOP('',(#516));
#74=EDGE_LOOP('',(#517,#518,#519,#520));
#75=EDGE_LOOP('',(#521,#522,#523,#524));
#76=EDGE_LOOP('',(#525,#526,#527,#528));
#77=EDGE_LOOP('',(#529,#530,#531,#532));
#78=EDGE_LOOP('',(#533,#534,#535,#536));
#79=EDGE_LOOP('',(#537,#538,#539,#540));
#80=EDGE_LOOP('',(#541,#542,#543,#544));
#81=EDGE_LOOP('',(#545,#546,#547,#548));
#82=EDGE_LOOP('',(#549,#550,#551,#552));
#83=EDGE_LOOP('',(#553,#554,#555,#556));
#84=EDGE_LOOP('',(#557,#558,#559,#560));
#85=EDGE_LOOP('',(#561,#562,#563,#564));
#86=EDGE_LOOP('',(#565,#566,#567,#568));
#87=EDGE_LOOP('',(#569,#570,#571,#572,#573,#574,#575,#576,#577,#578,#579,
#580));
#88=EDGE_LOOP('',(#581,#582,#583,#584));
#89=EDGE_LOOP('',(#585,#586,#587,#588));
#90=EDGE_LOOP('',(#589,#590,#591,#592,#593,#594,#595,#596));
#91=EDGE_LOOP('',(#597,#598,#599,#600,#601,#602,#603,#604));
#92=EDGE_LOOP('',(#605,#606,#607,#608));
#93=EDGE_LOOP('',(#609,#610,#611,#612,#613,#614,#615,#616));
#94=EDGE_LOOP('',(#617,#618,#619,#620));
#95=EDGE_LOOP('',(#621,#622,#623,#624,#625,#626));
#96=EDGE_LOOP('',(#627,#628,#629,#630,#631,#632));
#97=LINE('',#925,#189);
#98=LINE('',#927,#190);
#99=LINE('',#929,#191);
#100=LINE('',#931,#192);
#101=LINE('',#933,#193);
#102=LINE('',#935,#194);
#103=LINE('',#936,#195);
#104=LINE('',#942,#196);
#105=LINE('',#944,#197);
#106=LINE('',#946,#198);
#107=LINE('',#948,#199);
#108=LINE('',#950,#200);
#109=LINE('',#952,#201);
#110=LINE('',#953,#202);
#111=LINE('',#958,#203);
#112=LINE('',#960,#204);
#113=LINE('',#961,#205);
#114=LINE('',#964,#206);
#115=LINE('',#965,#207);
#116=LINE('',#968,#208);
#117=LINE('',#970,#209);
#118=LINE('',#971,#210);
#119=LINE('',#974,#211);
#120=LINE('',#976,#212);
#121=LINE('',#977,#213);
#122=LINE('',#979,#214);
#123=LINE('',#981,#215);
#124=LINE('',#983,#216);
#125=LINE('',#985,#217);
#126=LINE('',#987,#218);
#127=LINE('',#988,#219);
#128=LINE('',#991,#220);
#129=LINE('',#992,#221);
#130=LINE('',#995,#222);
#131=LINE('',#996,#223);
#132=LINE('',#999,#224);
#133=LINE('',#1001,#225);
#134=LINE('',#1003,#226);
#135=LINE('',#1005,#227);
#136=LINE('',#1007,#228);
#137=LINE('',#1009,#229);
#138=LINE('',#1010,#230);
#139=LINE('',#1012,#231);
#140=LINE('',#1013,#232);
#141=LINE('',#1016,#233);
#142=LINE('',#1017,#234);
#143=LINE('',#1019,#235);
#144=LINE('',#1020,#236);
#145=LINE('',#1027,#237);
#146=LINE('',#1029,#238);
#147=LINE('',#1032,#239);
#148=LINE('',#1036,#240);
#149=LINE('',#1038,#241);
#150=LINE('',#1040,#242);
#151=LINE('',#1041,#243);
#152=LINE('',#1044,#244);
#153=LINE('',#1046,#245);
#154=LINE('',#1047,#246);
#155=LINE('',#1050,#247);
#156=LINE('',#1052,#248);
#157=LINE('',#1053,#249);
#158=LINE('',#1055,#250);
#159=LINE('',#1059,#251);
#160=LINE('',#1061,#252);
#161=LINE('',#1063,#253);
#162=LINE('',#1064,#254);
#163=LINE('',#1067,#255);
#164=LINE('',#1069,#256);
#165=LINE('',#1070,#257);
#166=LINE('',#1073,#258);
#167=LINE('',#1075,#259);
#168=LINE('',#1076,#260);
#169=LINE('',#1078,#261);
#170=LINE('',#1080,#262);
#171=LINE('',#1081,#263);
#172=LINE('',#1083,#264);
#173=LINE('',#1085,#265);
#174=LINE('',#1086,#266);
#175=LINE('',#1089,#267);
#176=LINE('',#1091,#268);
#177=LINE('',#1092,#269);
#178=LINE('',#1095,#270);
#179=LINE('',#1096,#271);
#180=LINE('',#1099,#272);
#181=LINE('',#1100,#273);
#182=LINE('',#1103,#274);
#183=LINE('',#1104,#275);
#184=LINE('',#1107,#276);
#185=LINE('',#1108,#277);
#186=LINE('',#1110,#278);
#187=LINE('',#1111,#279);
#188=LINE('',#1113,#280);
#189=VECTOR('',#755,10.);
#190=VECTOR('',#756,10.);
#191=VECTOR('',#757,10.);
#192=VECTOR('',#758,10.);
#193=VECTOR('',#759,10.);
#194=VECTOR('',#760,10.);
#195=VECTOR('',#761,10.);
#196=VECTOR('',#766,10.);
#197=VECTOR('',#767,10.);
#198=VECTOR('',#768,10.);
#199=VECTOR('',#769,10.);
#200=VECTOR('',#770,10.);
#201=VECTOR('',#771,10.);
#202=VECTOR('',#772,10.);
#203=VECTOR('',#777,10.);
#204=VECTOR('',#778,10.);
#205=VECTOR('',#779,10.);
#206=VECTOR('',#782,10.);
#207=VECTOR('',#783,10.);
#208=VECTOR('',#786,10.);
#209=VECTOR('',#787,10.);
#210=VECTOR('',#788,10.);
#211=VECTOR('',#791,10.);
#212=VECTOR('',#792,10.);
#213=VECTOR('',#793,10.);
#214=VECTOR('',#794,10.);
#215=VECTOR('',#795,10.);
#216=VECTOR('',#796,10.);
#217=VECTOR('',#797,10.);
#218=VECTOR('',#798,10.);
#219=VECTOR('',#799,10.);
#220=VECTOR('',#802,10.);
#221=VECTOR('',#803,10.);
#222=VECTOR('',#806,10.);
#223=VECTOR('',#807,10.);
#224=VECTOR('',#810,10.);
#225=VECTOR('',#811,10.);
#226=VECTOR('',#812,10.);
#227=VECTOR('',#813,10.);
#228=VECTOR('',#814,10.);
#229=VECTOR('',#815,10.);
#230=VECTOR('',#816,10.);
#231=VECTOR('',#817,10.);
#232=VECTOR('',#818,10.);
#233=VECTOR('',#821,10.);
#234=VECTOR('',#822,10.);
#235=VECTOR('',#825,10.);
#236=VECTOR('',#826,10.);
#237=VECTOR('',#835,1.00000000000001);
#238=VECTOR('',#838,1.00000000000001);
#239=VECTOR('',#843,10.);
#240=VECTOR('',#846,10.);
#241=VECTOR('',#847,10.);
#242=VECTOR('',#848,10.);
#243=VECTOR('',#849,10.);
#244=VECTOR('',#852,10.);
#245=VECTOR('',#853,10.);
#246=VECTOR('',#854,10.);
#247=VECTOR('',#857,10.);
#248=VECTOR('',#858,10.);
#249=VECTOR('',#859,10.);
#250=VECTOR('',#862,10.);
#251=VECTOR('',#865,10.);
#252=VECTOR('',#866,10.);
#253=VECTOR('',#867,10.);
#254=VECTOR('',#868,10.);
#255=VECTOR('',#871,10.);
#256=VECTOR('',#872,10.);
#257=VECTOR('',#873,10.);
#258=VECTOR('',#876,10.);
#259=VECTOR('',#877,10.);
#260=VECTOR('',#878,10.);
#261=VECTOR('',#881,10.);
#262=VECTOR('',#884,10.);
#263=VECTOR('',#885,10.);
#264=VECTOR('',#886,10.);
#265=VECTOR('',#887,10.);
#266=VECTOR('',#888,10.);
#267=VECTOR('',#891,10.);
#268=VECTOR('',#892,10.);
#269=VECTOR('',#893,10.);
#270=VECTOR('',#896,10.);
#271=VECTOR('',#897,10.);
#272=VECTOR('',#900,10.);
#273=VECTOR('',#901,10.);
#274=VECTOR('',#904,10.);
#275=VECTOR('',#905,10.);
#276=VECTOR('',#908,10.);
#277=VECTOR('',#909,10.);
#278=VECTOR('',#912,10.);
#279=VECTOR('',#913,10.);
#280=VECTOR('',#916,10.);
#281=VERTEX_POINT('',#923);
#282=VERTEX_POINT('',#924);
#283=VERTEX_POINT('',#926);
#284=VERTEX_POINT('',#928);
#285=VERTEX_POINT('',#930);
#286=VERTEX_POINT('',#932);
#287=VERTEX_POINT('',#934);
#288=VERTEX_POINT('',#937);
#289=VERTEX_POINT('',#940);
#290=VERTEX_POINT('',#941);
#291=VERTEX_POINT('',#943);
#292=VERTEX_POINT('',#945);
#293=VERTEX_POINT('',#947);
#294=VERTEX_POINT('',#949);
#295=VERTEX_POINT('',#951);
#296=VERTEX_POINT('',#954);
#297=VERTEX_POINT('',#957);
#298=VERTEX_POINT('',#959);
#299=VERTEX_POINT('',#963);
#300=VERTEX_POINT('',#967);
#301=VERTEX_POINT('',#969);
#302=VERTEX_POINT('',#973);
#303=VERTEX_POINT('',#975);
#304=VERTEX_POINT('',#978);
#305=VERTEX_POINT('',#980);
#306=VERTEX_POINT('',#982);
#307=VERTEX_POINT('',#984);
#308=VERTEX_POINT('',#986);
#309=VERTEX_POINT('',#990);
#310=VERTEX_POINT('',#994);
#311=VERTEX_POINT('',#998);
#312=VERTEX_POINT('',#1000);
#313=VERTEX_POINT('',#1002);
#314=VERTEX_POINT('',#1004);
#315=VERTEX_POINT('',#1006);
#316=VERTEX_POINT('',#1008);
#317=VERTEX_POINT('',#1011);
#318=VERTEX_POINT('',#1015);
#319=VERTEX_POINT('',#1021);
#320=VERTEX_POINT('',#1023);
#321=VERTEX_POINT('',#1034);
#322=VERTEX_POINT('',#1035);
#323=VERTEX_POINT('',#1037);
#324=VERTEX_POINT('',#1039);
#325=VERTEX_POINT('',#1043);
#326=VERTEX_POINT('',#1045);
#327=VERTEX_POINT('',#1049);
#328=VERTEX_POINT('',#1051);
#329=VERTEX_POINT('',#1057);
#330=VERTEX_POINT('',#1058);
#331=VERTEX_POINT('',#1060);
#332=VERTEX_POINT('',#1062);
#333=VERTEX_POINT('',#1066);
#334=VERTEX_POINT('',#1068);
#335=VERTEX_POINT('',#1072);
#336=VERTEX_POINT('',#1074);
#337=VERTEX_POINT('',#1082);
#338=VERTEX_POINT('',#1084);
#339=VERTEX_POINT('',#1088);
#340=VERTEX_POINT('',#1090);
#341=VERTEX_POINT('',#1094);
#342=VERTEX_POINT('',#1098);
#343=VERTEX_POINT('',#1102);
#344=VERTEX_POINT('',#1106);
#345=EDGE_CURVE('',#281,#282,#97,.T.);
#346=EDGE_CURVE('',#283,#281,#98,.T.);
#347=EDGE_CURVE('',#284,#283,#99,.T.);
#348=EDGE_CURVE('',#285,#284,#100,.T.);
#349=EDGE_CURVE('',#286,#285,#101,.T.);
#350=EDGE_CURVE('',#287,#286,#102,.T.);
#351=EDGE_CURVE('',#282,#287,#103,.T.);
#352=EDGE_CURVE('',#288,#288,#21,.T.);
#353=EDGE_CURVE('',#289,#290,#104,.T.);
#354=EDGE_CURVE('',#291,#289,#105,.T.);
#355=EDGE_CURVE('',#292,#291,#106,.T.);
#356=EDGE_CURVE('',#293,#292,#107,.T.);
#357=EDGE_CURVE('',#294,#293,#108,.T.);
#358=EDGE_CURVE('',#295,#294,#109,.T.);
#359=EDGE_CURVE('',#290,#295,#110,.T.);
#360=EDGE_CURVE('',#296,#296,#22,.T.);
#361=EDGE_CURVE('',#297,#281,#111,.T.);
#362=EDGE_CURVE('',#297,#298,#112,.T.);
#363=EDGE_CURVE('',#283,#298,#113,.T.);
#364=EDGE_CURVE('',#282,#299,#114,.T.);
#365=EDGE_CURVE('',#299,#297,#115,.T.);
#366=EDGE_CURVE('',#291,#300,#116,.T.);
#367=EDGE_CURVE('',#300,#301,#117,.T.);
#368=EDGE_CURVE('',#301,#292,#118,.T.);
#369=EDGE_CURVE('',#302,#284,#119,.T.);
#370=EDGE_CURVE('',#298,#303,#120,.T.);
#371=EDGE_CURVE('',#303,#295,#121,.T.);
#372=EDGE_CURVE('',#294,#304,#122,.T.);
#373=EDGE_CURVE('',#304,#305,#123,.T.);
#374=EDGE_CURVE('',#305,#306,#124,.T.);
#375=EDGE_CURVE('',#306,#307,#125,.T.);
#376=EDGE_CURVE('',#307,#308,#126,.T.);
#377=EDGE_CURVE('',#308,#302,#127,.T.);
#378=EDGE_CURVE('',#309,#289,#128,.T.);
#379=EDGE_CURVE('',#309,#300,#129,.T.);
#380=EDGE_CURVE('',#290,#310,#130,.T.);
#381=EDGE_CURVE('',#310,#309,#131,.T.);
#382=EDGE_CURVE('',#285,#311,#132,.T.);
#383=EDGE_CURVE('',#311,#312,#133,.T.);
#384=EDGE_CURVE('',#312,#313,#134,.T.);
#385=EDGE_CURVE('',#313,#314,#135,.T.);
#386=EDGE_CURVE('',#314,#315,#136,.T.);
#387=EDGE_CURVE('',#316,#315,#137,.T.);
#388=EDGE_CURVE('',#316,#293,#138,.T.);
#389=EDGE_CURVE('',#301,#317,#139,.T.);
#390=EDGE_CURVE('',#286,#317,#140,.T.);
#391=EDGE_CURVE('',#318,#287,#141,.T.);
#392=EDGE_CURVE('',#318,#299,#142,.T.);
#393=EDGE_CURVE('',#317,#318,#143,.T.);
#394=EDGE_CURVE('',#310,#303,#144,.T.);
#395=EDGE_CURVE('',#319,#319,#23,.T.);
#396=EDGE_CURVE('',#320,#320,#24,.T.);
#397=EDGE_CURVE('',#319,#296,#145,.T.);
#398=EDGE_CURVE('',#320,#288,#146,.T.);
#399=EDGE_CURVE('',#316,#304,#147,.T.);
#400=EDGE_CURVE('',#321,#322,#148,.T.);
#401=EDGE_CURVE('',#321,#323,#149,.T.);
#402=EDGE_CURVE('',#323,#324,#150,.T.);
#403=EDGE_CURVE('',#322,#324,#151,.T.);
#404=EDGE_CURVE('',#325,#321,#152,.T.);
#405=EDGE_CURVE('',#325,#326,#153,.T.);
#406=EDGE_CURVE('',#326,#323,#154,.T.);
#407=EDGE_CURVE('',#327,#325,#155,.T.);
#408=EDGE_CURVE('',#327,#328,#156,.T.);
#409=EDGE_CURVE('',#328,#326,#157,.T.);
#410=EDGE_CURVE('',#324,#328,#158,.T.);
#411=EDGE_CURVE('',#329,#330,#159,.T.);
#412=EDGE_CURVE('',#329,#331,#160,.T.);
#413=EDGE_CURVE('',#331,#332,#161,.T.);
#414=EDGE_CURVE('',#330,#332,#162,.T.);
#415=EDGE_CURVE('',#333,#329,#163,.T.);
#416=EDGE_CURVE('',#333,#334,#164,.T.);
#417=EDGE_CURVE('',#334,#331,#165,.T.);
#418=EDGE_CURVE('',#330,#335,#166,.T.);
#419=EDGE_CURVE('',#332,#336,#167,.T.);
#420=EDGE_CURVE('',#335,#336,#168,.T.);
#421=EDGE_CURVE('',#336,#334,#169,.T.);
#422=EDGE_CURVE('',#314,#322,#170,.T.);
#423=EDGE_CURVE('',#313,#333,#171,.T.);
#424=EDGE_CURVE('',#335,#337,#172,.T.);
#425=EDGE_CURVE('',#338,#337,#173,.T.);
#426=EDGE_CURVE('',#327,#338,#174,.T.);
#427=EDGE_CURVE('',#307,#339,#175,.T.);
#428=EDGE_CURVE('',#340,#339,#176,.T.);
#429=EDGE_CURVE('',#308,#340,#177,.T.);
#430=EDGE_CURVE('',#306,#341,#178,.T.);
#431=EDGE_CURVE('',#339,#341,#179,.T.);
#432=EDGE_CURVE('',#312,#342,#180,.T.);
#433=EDGE_CURVE('',#337,#342,#181,.T.);
#434=EDGE_CURVE('',#343,#338,#182,.T.);
#435=EDGE_CURVE('',#315,#343,#183,.T.);
#436=EDGE_CURVE('',#305,#344,#184,.T.);
#437=EDGE_CURVE('',#341,#344,#185,.T.);
#438=EDGE_CURVE('',#344,#343,#186,.T.);
#439=EDGE_CURVE('',#342,#340,#187,.T.);
#440=EDGE_CURVE('',#311,#302,#188,.T.);
#441=ORIENTED_EDGE('',*,*,#345,.F.);
#442=ORIENTED_EDGE('',*,*,#346,.F.);
#443=ORIENTED_EDGE('',*,*,#347,.F.);
#444=ORIENTED_EDGE('',*,*,#348,.F.);
#445=ORIENTED_EDGE('',*,*,#349,.F.);
#446=ORIENTED_EDGE('',*,*,#350,.F.);
#447=ORIENTED_EDGE('',*,*,#351,.F.);
#448=ORIENTED_EDGE('',*,*,#352,.F.);
#449=ORIENTED_EDGE('',*,*,#353,.F.);
#450=ORIENTED_EDGE('',*,*,#354,.F.);
#451=ORIENTED_EDGE('',*,*,#355,.F.);
#452=ORIENTED_EDGE('',*,*,#356,.F.);
#453=ORIENTED_EDGE('',*,*,#357,.F.);
#454=ORIENTED_EDGE('',*,*,#358,.F.);
#455=ORIENTED_EDGE('',*,*,#359,.F.);
#456=ORIENTED_EDGE('',*,*,#360,.F.);
#457=ORIENTED_EDGE('',*,*,#346,.T.);
#458=ORIENTED_EDGE('',*,*,#361,.F.);
#459=ORIENTED_EDGE('',*,*,#362,.T.);
#460=ORIENTED_EDGE('',*,*,#363,.F.);
#461=ORIENTED_EDGE('',*,*,#345,.T.);
#462=ORIENTED_EDGE('',*,*,#364,.T.);
#463=ORIENTED_EDGE('',*,*,#365,.T.);
#464=ORIENTED_EDGE('',*,*,#361,.T.);
#465=ORIENTED_EDGE('',*,*,#355,.T.);
#466=ORIENTED_EDGE('',*,*,#366,.T.);
#467=ORIENTED_EDGE('',*,*,#367,.T.);
#468=ORIENTED_EDGE('',*,*,#368,.T.);
#469=ORIENTED_EDGE('',*,*,#369,.T.);
#470=ORIENTED_EDGE('',*,*,#347,.T.);
#471=ORIENTED_EDGE('',*,*,#363,.T.);
#472=ORIENTED_EDGE('',*,*,#370,.T.);
#473=ORIENTED_EDGE('',*,*,#371,.T.);
#474=ORIENTED_EDGE('',*,*,#358,.T.);
#475=ORIENTED_EDGE('',*,*,#372,.T.);
#476=ORIENTED_EDGE('',*,*,#373,.T.);
#477=ORIENTED_EDGE('',*,*,#374,.T.);
#478=ORIENTED_EDGE('',*,*,#375,.T.);
#479=ORIENTED_EDGE('',*,*,#376,.T.);
#480=ORIENTED_EDGE('',*,*,#377,.T.);
#481=ORIENTED_EDGE('',*,*,#354,.T.);
#482=ORIENTED_EDGE('',*,*,#378,.F.);
#483=ORIENTED_EDGE('',*,*,#379,.T.);
#484=ORIENTED_EDGE('',*,*,#366,.F.);
#485=ORIENTED_EDGE('',*,*,#353,.T.);
#486=ORIENTED_EDGE('',*,*,#380,.T.);
#487=ORIENTED_EDGE('',*,*,#381,.T.);
#488=ORIENTED_EDGE('',*,*,#378,.T.);
#489=ORIENTED_EDGE('',*,*,#349,.T.);
#490=ORIENTED_EDGE('',*,*,#382,.T.);
#491=ORIENTED_EDGE('',*,*,#383,.T.);
#492=ORIENTED_EDGE('',*,*,#384,.T.);
#493=ORIENTED_EDGE('',*,*,#385,.T.);
#494=ORIENTED_EDGE('',*,*,#386,.T.);
#495=ORIENTED_EDGE('',*,*,#387,.F.);
#496=ORIENTED_EDGE('',*,*,#388,.T.);
#497=ORIENTED_EDGE('',*,*,#356,.T.);
#498=ORIENTED_EDGE('',*,*,#368,.F.);
#499=ORIENTED_EDGE('',*,*,#389,.T.);
#500=ORIENTED_EDGE('',*,*,#390,.F.);
#501=ORIENTED_EDGE('',*,*,#351,.T.);
#502=ORIENTED_EDGE('',*,*,#391,.F.);
#503=ORIENTED_EDGE('',*,*,#392,.T.);
#504=ORIENTED_EDGE('',*,*,#364,.F.);
#505=ORIENTED_EDGE('',*,*,#365,.F.);
#506=ORIENTED_EDGE('',*,*,#392,.F.);
#507=ORIENTED_EDGE('',*,*,#393,.F.);
#508=ORIENTED_EDGE('',*,*,#389,.F.);
#509=ORIENTED_EDGE('',*,*,#367,.F.);
#510=ORIENTED_EDGE('',*,*,#379,.F.);
#511=ORIENTED_EDGE('',*,*,#381,.F.);
#512=ORIENTED_EDGE('',*,*,#394,.T.);
#513=ORIENTED_EDGE('',*,*,#370,.F.);
#514=ORIENTED_EDGE('',*,*,#362,.F.);
#515=ORIENTED_EDGE('',*,*,#395,.T.);
#516=ORIENTED_EDGE('',*,*,#396,.T.);
#517=ORIENTED_EDGE('',*,*,#350,.T.);
#518=ORIENTED_EDGE('',*,*,#390,.T.);
#519=ORIENTED_EDGE('',*,*,#393,.T.);
#520=ORIENTED_EDGE('',*,*,#391,.T.);
#521=ORIENTED_EDGE('',*,*,#395,.F.);
#522=ORIENTED_EDGE('',*,*,#397,.T.);
#523=ORIENTED_EDGE('',*,*,#360,.T.);
#524=ORIENTED_EDGE('',*,*,#397,.F.);
#525=ORIENTED_EDGE('',*,*,#396,.F.);
#526=ORIENTED_EDGE('',*,*,#398,.T.);
#527=ORIENTED_EDGE('',*,*,#352,.T.);
#528=ORIENTED_EDGE('',*,*,#398,.F.);
#529=ORIENTED_EDGE('',*,*,#359,.T.);
#530=ORIENTED_EDGE('',*,*,#371,.F.);
#531=ORIENTED_EDGE('',*,*,#394,.F.);
#532=ORIENTED_EDGE('',*,*,#380,.F.);
#533=ORIENTED_EDGE('',*,*,#388,.F.);
#534=ORIENTED_EDGE('',*,*,#399,.T.);
#535=ORIENTED_EDGE('',*,*,#372,.F.);
#536=ORIENTED_EDGE('',*,*,#357,.T.);
#537=ORIENTED_EDGE('',*,*,#400,.F.);
#538=ORIENTED_EDGE('',*,*,#401,.T.);
#539=ORIENTED_EDGE('',*,*,#402,.T.);
#540=ORIENTED_EDGE('',*,*,#403,.F.);
#541=ORIENTED_EDGE('',*,*,#404,.F.);
#542=ORIENTED_EDGE('',*,*,#405,.T.);
#543=ORIENTED_EDGE('',*,*,#406,.T.);
#544=ORIENTED_EDGE('',*,*,#401,.F.);
#545=ORIENTED_EDGE('',*,*,#407,.F.);
#546=ORIENTED_EDGE('',*,*,#408,.T.);
#547=ORIENTED_EDGE('',*,*,#409,.T.);
#548=ORIENTED_EDGE('',*,*,#405,.F.);
#549=ORIENTED_EDGE('',*,*,#410,.F.);
#550=ORIENTED_EDGE('',*,*,#402,.F.);
#551=ORIENTED_EDGE('',*,*,#406,.F.);
#552=ORIENTED_EDGE('',*,*,#409,.F.);
#553=ORIENTED_EDGE('',*,*,#411,.F.);
#554=ORIENTED_EDGE('',*,*,#412,.T.);
#555=ORIENTED_EDGE('',*,*,#413,.T.);
#556=ORIENTED_EDGE('',*,*,#414,.F.);
#557=ORIENTED_EDGE('',*,*,#415,.F.);
#558=ORIENTED_EDGE('',*,*,#416,.T.);
#559=ORIENTED_EDGE('',*,*,#417,.T.);
#560=ORIENTED_EDGE('',*,*,#412,.F.);
#561=ORIENTED_EDGE('',*,*,#418,.F.);
#562=ORIENTED_EDGE('',*,*,#414,.T.);
#563=ORIENTED_EDGE('',*,*,#419,.T.);
#564=ORIENTED_EDGE('',*,*,#420,.F.);
#565=ORIENTED_EDGE('',*,*,#419,.F.);
#566=ORIENTED_EDGE('',*,*,#413,.F.);
#567=ORIENTED_EDGE('',*,*,#417,.F.);
#568=ORIENTED_EDGE('',*,*,#421,.F.);
#569=ORIENTED_EDGE('',*,*,#407,.T.);
#570=ORIENTED_EDGE('',*,*,#404,.T.);
#571=ORIENTED_EDGE('',*,*,#400,.T.);
#572=ORIENTED_EDGE('',*,*,#422,.F.);
#573=ORIENTED_EDGE('',*,*,#385,.F.);
#574=ORIENTED_EDGE('',*,*,#423,.T.);
#575=ORIENTED_EDGE('',*,*,#415,.T.);
#576=ORIENTED_EDGE('',*,*,#411,.T.);
#577=ORIENTED_EDGE('',*,*,#418,.T.);
#578=ORIENTED_EDGE('',*,*,#424,.T.);
#579=ORIENTED_EDGE('',*,*,#425,.F.);
#580=ORIENTED_EDGE('',*,*,#426,.F.);
#581=ORIENTED_EDGE('',*,*,#376,.F.);
#582=ORIENTED_EDGE('',*,*,#427,.T.);
#583=ORIENTED_EDGE('',*,*,#428,.F.);
#584=ORIENTED_EDGE('',*,*,#429,.F.);
#585=ORIENTED_EDGE('',*,*,#375,.F.);
#586=ORIENTED_EDGE('',*,*,#430,.T.);
#587=ORIENTED_EDGE('',*,*,#431,.F.);
#588=ORIENTED_EDGE('',*,*,#427,.F.);
#589=ORIENTED_EDGE('',*,*,#384,.F.);
#590=ORIENTED_EDGE('',*,*,#432,.T.);
#591=ORIENTED_EDGE('',*,*,#433,.F.);
#592=ORIENTED_EDGE('',*,*,#424,.F.);
#593=ORIENTED_EDGE('',*,*,#420,.T.);
#594=ORIENTED_EDGE('',*,*,#421,.T.);
#595=ORIENTED_EDGE('',*,*,#416,.F.);
#596=ORIENTED_EDGE('',*,*,#423,.F.);
#597=ORIENTED_EDGE('',*,*,#386,.F.);
#598=ORIENTED_EDGE('',*,*,#422,.T.);
#599=ORIENTED_EDGE('',*,*,#403,.T.);
#600=ORIENTED_EDGE('',*,*,#410,.T.);
#601=ORIENTED_EDGE('',*,*,#408,.F.);
#602=ORIENTED_EDGE('',*,*,#426,.T.);
#603=ORIENTED_EDGE('',*,*,#434,.F.);
#604=ORIENTED_EDGE('',*,*,#435,.F.);
#605=ORIENTED_EDGE('',*,*,#374,.F.);
#606=ORIENTED_EDGE('',*,*,#436,.T.);
#607=ORIENTED_EDGE('',*,*,#437,.F.);
#608=ORIENTED_EDGE('',*,*,#430,.F.);
#609=ORIENTED_EDGE('',*,*,#431,.T.);
#610=ORIENTED_EDGE('',*,*,#437,.T.);
#611=ORIENTED_EDGE('',*,*,#438,.T.);
#612=ORIENTED_EDGE('',*,*,#434,.T.);
#613=ORIENTED_EDGE('',*,*,#425,.T.);
#614=ORIENTED_EDGE('',*,*,#433,.T.);
#615=ORIENTED_EDGE('',*,*,#439,.T.);
#616=ORIENTED_EDGE('',*,*,#428,.T.);
#617=ORIENTED_EDGE('',*,*,#369,.F.);
#618=ORIENTED_EDGE('',*,*,#440,.F.);
#619=ORIENTED_EDGE('',*,*,#382,.F.);
#620=ORIENTED_EDGE('',*,*,#348,.T.);
#621=ORIENTED_EDGE('',*,*,#383,.F.);
#622=ORIENTED_EDGE('',*,*,#440,.T.);
#623=ORIENTED_EDGE('',*,*,#377,.F.);
#624=ORIENTED_EDGE('',*,*,#429,.T.);
#625=ORIENTED_EDGE('',*,*,#439,.F.);
#626=ORIENTED_EDGE('',*,*,#432,.F.);
#627=ORIENTED_EDGE('',*,*,#387,.T.);
#628=ORIENTED_EDGE('',*,*,#435,.T.);
#629=ORIENTED_EDGE('',*,*,#438,.F.);
#630=ORIENTED_EDGE('',*,*,#436,.F.);
#631=ORIENTED_EDGE('',*,*,#373,.F.);
#632=ORIENTED_EDGE('',*,*,#399,.F.);
#633=PLANE('',#713);
#634=PLANE('',#715);
#635=PLANE('',#717);
#636=PLANE('',#718);
#637=PLANE('',#719);
#638=PLANE('',#720);
#639=PLANE('',#721);
#640=PLANE('',#722);
#641=PLANE('',#723);
#642=PLANE('',#724);
#643=PLANE('',#725);
#644=PLANE('',#728);
#645=PLANE('',#731);
#646=PLANE('',#732);
#647=PLANE('',#733);
#648=PLANE('',#734);
#649=PLANE('',#735);
#650=PLANE('',#736);
#651=PLANE('',#737);
#652=PLANE('',#738);
#653=PLANE('',#739);
#654=PLANE('',#740);
#655=PLANE('',#741);
#656=PLANE('',#742);
#657=PLANE('',#743);
#658=PLANE('',#744);
#659=PLANE('',#745);
#660=PLANE('',#746);
#661=PLANE('',#747);
#662=PLANE('',#748);
#663=PLANE('',#749);
#664=PLANE('',#750);
#665=ADVANCED_FACE('',(#25,#17),#633,.T.);
#666=ADVANCED_FACE('',(#26,#18),#634,.T.);
#667=ADVANCED_FACE('',(#27),#635,.T.);
#668=ADVANCED_FACE('',(#28),#636,.T.);
#669=ADVANCED_FACE('',(#29),#637,.T.);
#670=ADVANCED_FACE('',(#30),#638,.T.);
#671=ADVANCED_FACE('',(#31),#639,.T.);
#672=ADVANCED_FACE('',(#32),#640,.T.);
#673=ADVANCED_FACE('',(#33),#641,.F.);
#674=ADVANCED_FACE('',(#34),#642,.T.);
#675=ADVANCED_FACE('',(#35,#19,#20),#643,.T.);
#676=ADVANCED_FACE('',(#36),#644,.T.);
#677=ADVANCED_FACE('',(#37),#15,.F.);
#678=ADVANCED_FACE('',(#38),#16,.F.);
#679=ADVANCED_FACE('',(#39),#645,.T.);
#680=ADVANCED_FACE('',(#40),#646,.T.);
#681=ADVANCED_FACE('',(#41),#647,.F.);
#682=ADVANCED_FACE('',(#42),#648,.F.);
#683=ADVANCED_FACE('',(#43),#649,.F.);
#684=ADVANCED_FACE('',(#44),#650,.F.);
#685=ADVANCED_FACE('',(#45),#651,.F.);
#686=ADVANCED_FACE('',(#46),#652,.F.);
#687=ADVANCED_FACE('',(#47),#653,.F.);
#688=ADVANCED_FACE('',(#48),#654,.F.);
#689=ADVANCED_FACE('',(#49),#655,.T.);
#690=ADVANCED_FACE('',(#50),#656,.T.);
#691=ADVANCED_FACE('',(#51),#657,.T.);
#692=ADVANCED_FACE('',(#52),#658,.T.);
#693=ADVANCED_FACE('',(#53),#659,.T.);
#694=ADVANCED_FACE('',(#54),#660,.T.);
#695=ADVANCED_FACE('',(#55),#661,.T.);
#696=ADVANCED_FACE('',(#56),#662,.T.);
#697=ADVANCED_FACE('',(#57),#663,.T.);
#698=ADVANCED_FACE('',(#58),#664,.T.);
#699=CLOSED_SHELL('',(#665,#666,#667,#668,#669,#670,#671,#672,#673,#674,
#675,#676,#677,#678,#679,#680,#681,#682,#683,#684,#685,#686,#687,#688,#689,
#690,#691,#692,#693,#694,#695,#696,#697,#698));
#700=DERIVED_UNIT_ELEMENT(#702,1.);
#701=DERIVED_UNIT_ELEMENT(#1121,-3.);
#702=(
MASS_UNIT()
NAMED_UNIT(*)
SI_UNIT(.KILO.,.GRAM.)
);
#703=DERIVED_UNIT((#700,#701));
#704=MEASURE_REPRESENTATION_ITEM('density measure',
POSITIVE_RATIO_MEASURE(7850.),#703);
#705=PROPERTY_DEFINITION_REPRESENTATION(#710,#707);
#706=PROPERTY_DEFINITION_REPRESENTATION(#711,#708);
#707=REPRESENTATION('material name',(#709),#1118);
#708=REPRESENTATION('density',(#704),#1118);
#709=DESCRIPTIVE_REPRESENTATION_ITEM('Steel','Steel');
#710=PROPERTY_DEFINITION('material property','material name',#1128);
#711=PROPERTY_DEFINITION('material property','density of part',#1128);
#712=AXIS2_PLACEMENT_3D('',#921,#751,#752);
#713=AXIS2_PLACEMENT_3D('',#922,#753,#754);
#714=AXIS2_PLACEMENT_3D('',#938,#762,#763);
#715=AXIS2_PLACEMENT_3D('',#939,#764,#765);
#716=AXIS2_PLACEMENT_3D('',#955,#773,#774);
#717=AXIS2_PLACEMENT_3D('',#956,#775,#776);
#718=AXIS2_PLACEMENT_3D('',#962,#780,#781);
#719=AXIS2_PLACEMENT_3D('',#966,#784,#785);
#720=AXIS2_PLACEMENT_3D('',#972,#789,#790);
#721=AXIS2_PLACEMENT_3D('',#989,#800,#801);
#722=AXIS2_PLACEMENT_3D('',#993,#804,#805);
#723=AXIS2_PLACEMENT_3D('',#997,#808,#809);
#724=AXIS2_PLACEMENT_3D('',#1014,#819,#820);
#725=AXIS2_PLACEMENT_3D('',#1018,#823,#824);
#726=AXIS2_PLACEMENT_3D('',#1022,#827,#828);
#727=AXIS2_PLACEMENT_3D('',#1024,#829,#830);
#728=AXIS2_PLACEMENT_3D('',#1025,#831,#832);
#729=AXIS2_PLACEMENT_3D('',#1026,#833,#834);
#730=AXIS2_PLACEMENT_3D('',#1028,#836,#837);
#731=AXIS2_PLACEMENT_3D('',#1030,#839,#840);
#732=AXIS2_PLACEMENT_3D('',#1031,#841,#842);
#733=AXIS2_PLACEMENT_3D('',#1033,#844,#845);
#734=AXIS2_PLACEMENT_3D('',#1042,#850,#851);
#735=AXIS2_PLACEMENT_3D('',#1048,#855,#856);
#736=AXIS2_PLACEMENT_3D('',#1054,#860,#861);
#737=AXIS2_PLACEMENT_3D('',#1056,#863,#864);
#738=AXIS2_PLACEMENT_3D('',#1065,#869,#870);
#739=AXIS2_PLACEMENT_3D('',#1071,#874,#875);
#740=AXIS2_PLACEMENT_3D('',#1077,#879,#880);
#741=AXIS2_PLACEMENT_3D('',#1079,#882,#883);
#742=AXIS2_PLACEMENT_3D('',#1087,#889,#890);
#743=AXIS2_PLACEMENT_3D('',#1093,#894,#895);
#744=AXIS2_PLACEMENT_3D('',#1097,#898,#899);
#745=AXIS2_PLACEMENT_3D('',#1101,#902,#903);
#746=AXIS2_PLACEMENT_3D('',#1105,#906,#907);
#747=AXIS2_PLACEMENT_3D('',#1109,#910,#911);
#748=AXIS2_PLACEMENT_3D('',#1112,#914,#915);
#749=AXIS2_PLACEMENT_3D('',#1114,#917,#918);
#750=AXIS2_PLACEMENT_3D('',#1115,#919,#920);
#751=DIRECTION('axis',(0.,0.,1.));
#752=DIRECTION('refdir',(1.,0.,0.));
#753=DIRECTION('center_axis',(0.,-1.,0.));
#754=DIRECTION('ref_axis',(1.,0.,0.));
#755=DIRECTION('',(-0.707106781186553,0.,-0.707106781186543));
#756=DIRECTION('',(0.,0.,-1.));
#757=DIRECTION('',(1.,0.,0.));
#758=DIRECTION('',(0.,0.,1.));
#759=DIRECTION('',(1.,0.,0.));
#760=DIRECTION('',(-0.707106781186553,0.,0.707106781186543));
#761=DIRECTION('',(-1.,0.,0.));
#762=DIRECTION('center_axis',(0.,-1.,0.));
#763=DIRECTION('ref_axis',(-1.,0.,0.));
#764=DIRECTION('center_axis',(0.,-1.,0.));
#765=DIRECTION('ref_axis',(1.,0.,0.));
#766=DIRECTION('',(-0.707106781186553,0.,0.707106781186543));
#767=DIRECTION('',(-1.,0.,0.));
#768=DIRECTION('',(-0.707106781186553,0.,-0.707106781186543));
#769=DIRECTION('',(1.,0.,0.));
#770=DIRECTION('',(0.,0.,-1.));
#771=DIRECTION('',(1.,0.,0.));
#772=DIRECTION('',(0.,0.,1.));
#773=DIRECTION('center_axis',(0.,-1.,0.));
#774=DIRECTION('ref_axis',(-1.,0.,0.));
#775=DIRECTION('center_axis',(1.,0.,0.));
#776=DIRECTION('ref_axis',(0.,1.,0.));
#777=DIRECTION('',(0.,-1.,0.));
#778=DIRECTION('',(0.,0.,1.));
#779=DIRECTION('',(0.,1.,0.));
#780=DIRECTION('center_axis',(0.707106781186543,0.,-0.707106781186553));
#781=DIRECTION('ref_axis',(-0.707106781186553,0.,-0.707106781186543));
#782=DIRECTION('',(0.,1.,0.));
#783=DIRECTION('',(0.707106781186553,0.,0.707106781186543));
#784=DIRECTION('center_axis',(0.707106781186543,0.,-0.707106781186553));
#785=DIRECTION('ref_axis',(-0.707106781186553,0.,-0.707106781186543));
#786=DIRECTION('',(0.,1.,0.));
#787=DIRECTION('',(0.707106781186553,0.,0.707106781186543));
#788=DIRECTION('',(0.,-1.,0.));
#789=DIRECTION('center_axis',(0.,0.,1.));
#790=DIRECTION('ref_axis',(1.,0.,0.));
#791=DIRECTION('',(0.,1.,0.));
#792=DIRECTION('',(-1.,0.,0.));
#793=DIRECTION('',(0.,-1.,0.));
#794=DIRECTION('',(0.,-1.,0.));
#795=DIRECTION('',(1.,0.,0.));
#796=DIRECTION('',(0.,1.,0.));
#797=DIRECTION('',(1.,0.,0.));
#798=DIRECTION('',(0.,-1.,0.));
#799=DIRECTION('',(1.,0.,0.));
#800=DIRECTION('center_axis',(0.,0.,-1.));
#801=DIRECTION('ref_axis',(-1.,0.,0.));
#802=DIRECTION('',(0.,-1.,0.));
#803=DIRECTION('',(1.,0.,0.));
#804=DIRECTION('center_axis',(-0.707106781186543,0.,-0.707106781186553));
#805=DIRECTION('ref_axis',(-0.707106781186553,0.,0.707106781186543));
#806=DIRECTION('',(0.,1.,0.));
#807=DIRECTION('',(0.707106781186553,0.,-0.707106781186543));
#808=DIRECTION('center_axis',(0.,0.,1.));
#809=DIRECTION('ref_axis',(1.,0.,0.));
#810=DIRECTION('',(0.,-1.,0.));
#811=DIRECTION('',(-1.,0.,0.));
#812=DIRECTION('',(0.,1.,0.));
#813=DIRECTION('',(-1.,0.,0.));
#814=DIRECTION('',(0.,-1.,0.));
#815=DIRECTION('',(1.,0.,0.));
#816=DIRECTION('',(0.,1.,0.));
#817=DIRECTION('',(1.,0.,0.));
#818=DIRECTION('',(0.,1.,0.));
#819=DIRECTION('center_axis',(0.,0.,-1.));
#820=DIRECTION('ref_axis',(-1.,0.,0.));
#821=DIRECTION('',(0.,-1.,0.));
#822=DIRECTION('',(1.,0.,0.));
#823=DIRECTION('center_axis',(0.,1.,0.));
#824=DIRECTION('ref_axis',(-1.,0.,0.));
#825=DIRECTION('',(0.707106781186553,0.,-0.707106781186543));
#826=DIRECTION('',(0.,0.,1.));
#827=DIRECTION('center_axis',(0.,-1.,0.));
#828=DIRECTION('ref_axis',(-1.,0.,0.));
#829=DIRECTION('center_axis',(0.,-1.,0.));
#830=DIRECTION('ref_axis',(-1.,0.,0.));
#831=DIRECTION('center_axis',(-0.707106781186543,0.,-0.707106781186553));
#832=DIRECTION('ref_axis',(-0.707106781186553,0.,0.707106781186543));
#833=DIRECTION('center_axis',(0.,-1.,0.));
#834=DIRECTION('ref_axis',(-1.,0.,0.));
#835=DIRECTION('',(0.,-1.,0.));
#836=DIRECTION('center_axis',(0.,-1.,0.));
#837=DIRECTION('ref_axis',(-1.,0.,0.));
#838=DIRECTION('',(0.,-1.,0.));
#839=DIRECTION('center_axis',(-1.,0.,0.));
#840=DIRECTION('ref_axis',(0.,-1.,0.));
#841=DIRECTION('center_axis',(-1.,0.,0.));
#842=DIRECTION('ref_axis',(0.,-1.,0.));
#843=DIRECTION('',(0.,0.,1.));
#844=DIRECTION('center_axis',(0.,0.,-1.));
#845=DIRECTION('ref_axis',(-1.,0.,0.));
#846=DIRECTION('',(-1.,0.,0.));
#847=DIRECTION('',(0.,1.,0.));
#848=DIRECTION('',(-1.,0.,0.));
#849=DIRECTION('',(0.,1.,0.));
#850=DIRECTION('center_axis',(1.,0.,0.));
#851=DIRECTION('ref_axis',(0.,0.,-1.));
#852=DIRECTION('',(0.,0.,-1.));
#853=DIRECTION('',(0.,1.,0.));
#854=DIRECTION('',(0.,0.,-1.));
#855=DIRECTION('center_axis',(0.,0.,1.));
#856=DIRECTION('ref_axis',(1.,0.,0.));
#857=DIRECTION('',(1.,0.,0.));
#858=DIRECTION('',(0.,1.,0.));
#859=DIRECTION('',(1.,0.,0.));
#860=DIRECTION('center_axis',(0.,1.,0.));
#861=DIRECTION('ref_axis',(0.,0.,1.));
#862=DIRECTION('',(0.,0.,1.));
#863=DIRECTION('center_axis',(-1.,0.,0.));
#864=DIRECTION('ref_axis',(0.,0.,1.));
#865=DIRECTION('',(0.,0.,1.));
#866=DIRECTION('',(0.,1.,0.));
#867=DIRECTION('',(0.,0.,1.));
#868=DIRECTION('',(0.,1.,0.));
#869=DIRECTION('center_axis',(0.,0.,-1.));
#870=DIRECTION('ref_axis',(-1.,0.,0.));
#871=DIRECTION('',(-1.,0.,0.));
#872=DIRECTION('',(0.,1.,0.));
#873=DIRECTION('',(-1.,0.,0.));
#874=DIRECTION('center_axis',(0.,0.,1.));
#875=DIRECTION('ref_axis',(1.,0.,0.));
#876=DIRECTION('',(1.,0.,0.));
#877=DIRECTION('',(1.,0.,0.));
#878=DIRECTION('',(0.,1.,0.));
#879=DIRECTION('center_axis',(0.,1.,0.));
#880=DIRECTION('ref_axis',(0.,0.,1.));
#881=DIRECTION('',(0.,0.,-1.));
#882=DIRECTION('center_axis',(0.,-1.,0.));
#883=DIRECTION('ref_axis',(1.,0.,0.));
#884=DIRECTION('',(0.,0.,1.));
#885=DIRECTION('',(0.,0.,1.));
#886=DIRECTION('',(0.,0.,1.));
#887=DIRECTION('',(1.,0.,0.));
#888=DIRECTION('',(0.,0.,1.));
#889=DIRECTION('center_axis',(1.,0.,0.));
#890=DIRECTION('ref_axis',(0.,1.,0.));
#891=DIRECTION('',(0.,0.,1.));
#892=DIRECTION('',(0.,1.,0.));
#893=DIRECTION('',(0.,0.,1.));
#894=DIRECTION('center_axis',(0.,1.,0.));
#895=DIRECTION('ref_axis',(-1.,0.,0.));
#896=DIRECTION('',(0.,0.,1.));
#897=DIRECTION('',(-1.,0.,0.));
#898=DIRECTION('center_axis',(-1.,0.,0.));
#899=DIRECTION('ref_axis',(0.,-1.,0.));
#900=DIRECTION('',(0.,0.,1.));
#901=DIRECTION('',(0.,-1.,0.));
#902=DIRECTION('center_axis',(1.,0.,0.));
#903=DIRECTION('ref_axis',(0.,1.,0.));
#904=DIRECTION('',(0.,1.,0.));
#905=DIRECTION('',(0.,0.,1.));
#906=DIRECTION('center_axis',(-1.,0.,0.));
#907=DIRECTION('ref_axis',(0.,-1.,0.));
#908=DIRECTION('',(0.,0.,1.));
#909=DIRECTION('',(0.,-1.,0.));
#910=DIRECTION('center_axis',(0.,0.,1.));
#911=DIRECTION('ref_axis',(1.,0.,0.));
#912=DIRECTION('',(1.,0.,0.));
#913=DIRECTION('',(1.,0.,0.));
#914=DIRECTION('center_axis',(1.,0.,0.));
#915=DIRECTION('ref_axis',(0.,1.,0.));
#916=DIRECTION('',(0.,0.,1.));
#917=DIRECTION('center_axis',(0.,-1.,0.));
#918=DIRECTION('ref_axis',(1.,0.,0.));
#919=DIRECTION('center_axis',(0.,-1.,0.));
#920=DIRECTION('ref_axis',(1.,0.,0.));
#921=CARTESIAN_POINT('',(0.,0.,0.));
#922=CARTESIAN_POINT('Origin',(-171.739753312901,6.8,0.));
#923=CARTESIAN_POINT('',(-167.739753312901,6.8,-1.));
#924=CARTESIAN_POINT('',(-168.739753312901,6.8,-2.));
#925=CARTESIAN_POINT('',(-168.739753312901,6.8,-2.00000000000001));
#926=CARTESIAN_POINT('',(-167.739753312901,6.8,6.));
#927=CARTESIAN_POINT('',(-167.739753312901,6.8,0.));
#928=CARTESIAN_POINT('',(-171.739753312901,6.8,6.));
#929=CARTESIAN_POINT('',(-175.989753312901,6.8,6.));
#930=CARTESIAN_POINT('',(-171.739753312901,6.8,0.));
#931=CARTESIAN_POINT('',(-171.739753312901,6.8,0.));
#932=CARTESIAN_POINT('',(-172.739753312901,6.8,0.));
#933=CARTESIAN_POINT('',(-175.989753312901,6.8,0.));
#934=CARTESIAN_POINT('',(-170.739753312901,6.8,-2.));
#935=CARTESIAN_POINT('',(-171.739753312901,6.8,-0.999999999999995));
#936=CARTESIAN_POINT('',(-170.739753312901,6.8,-2.));
#937=CARTESIAN_POINT('',(-168.639753312901,6.8,1.));
#938=CARTESIAN_POINT('Origin',(-169.639753312901,6.8,1.));
#939=CARTESIAN_POINT('Origin',(-192.739753312901,6.8,0.));
#940=CARTESIAN_POINT('',(-191.739753312901,6.8,-2.));
#941=CARTESIAN_POINT('',(-192.739753312901,6.8,-1.));
#942=CARTESIAN_POINT('',(-192.739753312901,6.8,-1.00000000000001));
#943=CARTESIAN_POINT('',(-189.739753312901,6.8,-2.));
#944=CARTESIAN_POINT('',(-191.739753312901,6.8,-2.));
#945=CARTESIAN_POINT('',(-187.739753312901,6.8,0.));
#946=CARTESIAN_POINT('',(-189.739753312901,6.8,-1.99999999999999));
#947=CARTESIAN_POINT('',(-188.739753312901,6.8,0.));
#948=CARTESIAN_POINT('',(-186.489753312901,6.8,0.));
#949=CARTESIAN_POINT('',(-188.739753312901,6.8,6.));
#950=CARTESIAN_POINT('',(-188.739753312901,6.8,0.));
#951=CARTESIAN_POINT('',(-192.739753312901,6.8,6.));
#952=CARTESIAN_POINT('',(-186.489753312901,6.8,6.));
#953=CARTESIAN_POINT('',(-192.739753312901,6.8,0.));
#954=CARTESIAN_POINT('',(-189.839753312901,6.8,1.));
#955=CARTESIAN_POINT('Origin',(-190.839753312901,6.8,1.));
#956=CARTESIAN_POINT('Origin',(-167.739753312901,6.5,0.));
#957=CARTESIAN_POINT('',(-167.739753312901,9.5,-1.));
#958=CARTESIAN_POINT('',(-167.739753312901,7.25,-1.));
#959=CARTESIAN_POINT('',(-167.739753312901,9.5,6.));
#960=CARTESIAN_POINT('',(-167.739753312901,9.5,0.));
#961=CARTESIAN_POINT('',(-167.739753312901,9.5,6.));
#962=CARTESIAN_POINT('Origin',(-168.239753312901,7.25,-1.5));
#963=CARTESIAN_POINT('',(-168.739753312901,9.5,-2.));
#964=CARTESIAN_POINT('',(-168.739753312901,7.25,-2.));
#965=CARTESIAN_POINT('',(-168.739753312901,9.5,-2.));
#966=CARTESIAN_POINT('Origin',(-189.239753312901,8.75,-1.5));
#967=CARTESIAN_POINT('',(-189.739753312901,9.5,-2.));
#968=CARTESIAN_POINT('',(-189.739753312901,8.75,-2.));
#969=CARTESIAN_POINT('',(-187.739753312901,9.5,0.));
#970=CARTESIAN_POINT('',(-184.489753312901,9.5,3.24999999999999));
#971=CARTESIAN_POINT('',(-187.739753312901,7.125,0.));
#972=CARTESIAN_POINT('Origin',(-180.239753312901,4.75,6.));
#973=CARTESIAN_POINT('',(-171.739753312901,0.,6.));
#974=CARTESIAN_POINT('',(-171.739753312901,5.625,6.));
#975=CARTESIAN_POINT('',(-192.739753312901,9.5,6.));
#976=CARTESIAN_POINT('',(-171.739753312901,9.5,6.));
#977=CARTESIAN_POINT('',(-192.739753312901,9.5,6.));
#978=CARTESIAN_POINT('',(-188.739753312901,0.,6.));
#979=CARTESIAN_POINT('',(-188.739753312901,0.,6.));
#980=CARTESIAN_POINT('',(-187.639753312901,0.,6.));
#981=CARTESIAN_POINT('',(-188.739753312901,0.,6.));
#982=CARTESIAN_POINT('',(-187.639753312901,6.5,6.));
#983=CARTESIAN_POINT('',(-187.639753312901,0.,6.));
#984=CARTESIAN_POINT('',(-172.839753312901,6.5,6.));
#985=CARTESIAN_POINT('',(-187.639753312901,6.5,6.));
#986=CARTESIAN_POINT('',(-172.839753312901,0.,6.));
#987=CARTESIAN_POINT('',(-172.839753312901,6.5,6.));
#988=CARTESIAN_POINT('',(-171.739753312901,0.,6.));
#989=CARTESIAN_POINT('Origin',(-190.739753312901,8.,-2.));
#990=CARTESIAN_POINT('',(-191.739753312901,9.5,-2.));
#991=CARTESIAN_POINT('',(-191.739753312901,8.75,-2.));
#992=CARTESIAN_POINT('',(-188.739753312901,9.5,-2.));
#993=CARTESIAN_POINT('Origin',(-192.239753312901,8.75,-1.5));
#994=CARTESIAN_POINT('',(-192.739753312901,9.5,-1.));
#995=CARTESIAN_POINT('',(-192.739753312901,8.75,-1.));
#996=CARTESIAN_POINT('',(-187.489753312901,9.5,-6.25));
#997=CARTESIAN_POINT('Origin',(-180.239753312901,4.75,0.));
#998=CARTESIAN_POINT('',(-171.739753312901,0.,0.));
#999=CARTESIAN_POINT('',(-171.739753312901,9.5,0.));
#1000=CARTESIAN_POINT('',(-173.564753312901,0.,0.));
#1001=CARTESIAN_POINT('',(-172.839753312901,0.,0.));
#1002=CARTESIAN_POINT('',(-173.564753312901,4.125,0.));
#1003=CARTESIAN_POINT('',(-173.564753312901,0.,0.));
#1004=CARTESIAN_POINT('',(-186.914753312901,4.125,0.));
#1005=CARTESIAN_POINT('',(-173.564753312901,4.125,0.));
#1006=CARTESIAN_POINT('',(-186.914753312901,0.,0.));
#1007=CARTESIAN_POINT('',(-186.914753312901,4.125,0.));
#1008=CARTESIAN_POINT('',(-188.739753312901,0.,0.));
#1009=CARTESIAN_POINT('',(-188.739753312901,0.,0.));
#1010=CARTESIAN_POINT('',(-188.739753312901,0.,0.));
#1011=CARTESIAN_POINT('',(-172.739753312901,9.5,0.));
#1012=CARTESIAN_POINT('',(-171.739753312901,9.5,0.));
#1013=CARTESIAN_POINT('',(-172.739753312901,5.625,0.));
#1014=CARTESIAN_POINT('Origin',(-169.739753312901,8.,-2.));
#1015=CARTESIAN_POINT('',(-170.739753312901,9.5,-2.));
#1016=CARTESIAN_POINT('',(-170.739753312901,7.25,-2.));
#1017=CARTESIAN_POINT('',(-171.739753312901,9.5,-2.));
#1018=CARTESIAN_POINT('Origin',(-171.739753312901,9.5,0.));
#1019=CARTESIAN_POINT('',(-171.739753312901,9.5,-1.));
#1020=CARTESIAN_POINT('',(-192.739753312901,9.5,0.));
#1021=CARTESIAN_POINT('',(-189.839753312901,9.5,1.));
#1022=CARTESIAN_POINT('Origin',(-190.839753312901,9.5,1.));
#1023=CARTESIAN_POINT('',(-168.639753312901,9.5,1.));
#1024=CARTESIAN_POINT('Origin',(-169.639753312901,9.5,1.));
#1025=CARTESIAN_POINT('Origin',(-171.239753312901,7.25,-1.5));
#1026=CARTESIAN_POINT('Origin',(-190.839753312901,9.5,1.));
#1027=CARTESIAN_POINT('',(-189.839753312901,9.5,1.));
#1028=CARTESIAN_POINT('Origin',(-169.639753312901,9.5,1.));
#1029=CARTESIAN_POINT('',(-168.639753312901,9.5,1.));
#1030=CARTESIAN_POINT('Origin',(-192.739753312901,9.5,0.));
#1031=CARTESIAN_POINT('Origin',(-188.739753312901,9.5,0.));
#1032=CARTESIAN_POINT('',(-188.739753312901,0.,0.));
#1033=CARTESIAN_POINT('Origin',(-185.914753312901,4.125,3.));
#1034=CARTESIAN_POINT('',(-185.914753312901,4.125,3.));
#1035=CARTESIAN_POINT('',(-186.914753312901,4.125,3.));
#1036=CARTESIAN_POINT('',(-186.414753312901,4.125,3.));
#1037=CARTESIAN_POINT('',(-185.914753312901,8.125,3.));
#1038=CARTESIAN_POINT('',(-185.914753312901,4.125,3.));
#1039=CARTESIAN_POINT('',(-186.914753312901,8.125,3.));
#1040=CARTESIAN_POINT('',(-186.914753312901,8.125,3.));
#1041=CARTESIAN_POINT('',(-186.914753312901,4.125,3.));
#1042=CARTESIAN_POINT('Origin',(-185.914753312901,4.125,5.));
#1043=CARTESIAN_POINT('',(-185.914753312901,4.125,5.));
#1044=CARTESIAN_POINT('',(-185.914753312901,4.125,2.5));
#1045=CARTESIAN_POINT('',(-185.914753312901,8.125,5.));
#1046=CARTESIAN_POINT('',(-185.914753312901,4.125,5.));
#1047=CARTESIAN_POINT('',(-185.914753312901,8.125,3.));
#1048=CARTESIAN_POINT('Origin',(-186.914753312901,4.125,5.));
#1049=CARTESIAN_POINT('',(-186.914753312901,4.125,5.));
#1050=CARTESIAN_POINT('',(-186.914753312901,4.125,5.));
#1051=CARTESIAN_POINT('',(-186.914753312901,8.125,5.));
#1052=CARTESIAN_POINT('',(-186.914753312901,4.125,5.));
#1053=CARTESIAN_POINT('',(-185.914753312901,8.125,5.));
#1054=CARTESIAN_POINT('Origin',(-186.414753312901,8.125,4.));
#1055=CARTESIAN_POINT('',(-186.914753312901,8.125,5.));
#1056=CARTESIAN_POINT('Origin',(-174.564753312901,4.125,3.));
#1057=CARTESIAN_POINT('',(-174.564753312901,4.125,3.));
#1058=CARTESIAN_POINT('',(-174.564753312901,4.125,5.));
#1059=CARTESIAN_POINT('',(-174.564753312901,4.125,1.5));
#1060=CARTESIAN_POINT('',(-174.564753312901,8.125,3.));
#1061=CARTESIAN_POINT('',(-174.564753312901,4.125,3.));
#1062=CARTESIAN_POINT('',(-174.564753312901,8.125,5.));
#1063=CARTESIAN_POINT('',(-174.564753312901,8.125,3.));
#1064=CARTESIAN_POINT('',(-174.564753312901,4.125,5.));
#1065=CARTESIAN_POINT('Origin',(-173.564753312901,4.125,3.));
#1066=CARTESIAN_POINT('',(-173.564753312901,4.125,3.));
#1067=CARTESIAN_POINT('',(-180.239753312901,4.125,3.));
#1068=CARTESIAN_POINT('',(-173.564753312901,8.125,3.));
#1069=CARTESIAN_POINT('',(-173.564753312901,4.125,3.));
#1070=CARTESIAN_POINT('',(-173.564753312901,8.125,3.));
#1071=CARTESIAN_POINT('Origin',(-174.564753312901,4.125,5.));
#1072=CARTESIAN_POINT('',(-173.564753312901,4.125,5.));
#1073=CARTESIAN_POINT('',(-180.739753312901,4.125,5.));
#1074=CARTESIAN_POINT('',(-173.564753312901,8.125,5.));
#1075=CARTESIAN_POINT('',(-174.564753312901,8.125,5.));
#1076=CARTESIAN_POINT('',(-173.564753312901,4.125,5.));
#1077=CARTESIAN_POINT('Origin',(-174.064753312901,8.125,4.));
#1078=CARTESIAN_POINT('',(-173.564753312901,8.125,5.));
#1079=CARTESIAN_POINT('Origin',(-186.914753312901,4.125,0.));
#1080=CARTESIAN_POINT('',(-186.914753312901,4.125,0.));
#1081=CARTESIAN_POINT('',(-173.564753312901,4.125,0.));
#1082=CARTESIAN_POINT('',(-173.564753312901,4.125,8.));
#1083=CARTESIAN_POINT('',(-173.564753312901,4.125,0.));
#1084=CARTESIAN_POINT('',(-186.914753312901,4.125,8.));
#1085=CARTESIAN_POINT('',(-173.564753312901,4.125,8.));
#1086=CARTESIAN_POINT('',(-186.914753312901,4.125,0.));
#1087=CARTESIAN_POINT('Origin',(-172.839753312901,0.,0.));
#1088=CARTESIAN_POINT('',(-172.839753312901,6.5,8.));
#1089=CARTESIAN_POINT('',(-172.839753312901,6.5,0.));
#1090=CARTESIAN_POINT('',(-172.839753312901,0.,8.));
#1091=CARTESIAN_POINT('',(-172.839753312901,6.5,8.));
#1092=CARTESIAN_POINT('',(-172.839753312901,0.,0.));
#1093=CARTESIAN_POINT('Origin',(-172.839753312901,6.5,0.));
#1094=CARTESIAN_POINT('',(-187.639753312901,6.5,8.));
#1095=CARTESIAN_POINT('',(-187.639753312901,6.5,0.));
#1096=CARTESIAN_POINT('',(-187.639753312901,6.5,8.));
#1097=CARTESIAN_POINT('Origin',(-173.564753312901,4.125,0.));
#1098=CARTESIAN_POINT('',(-173.564753312901,0.,8.));
#1099=CARTESIAN_POINT('',(-173.564753312901,0.,0.));
#1100=CARTESIAN_POINT('',(-173.564753312901,0.,8.));
#1101=CARTESIAN_POINT('Origin',(-186.914753312901,0.,0.));
#1102=CARTESIAN_POINT('',(-186.914753312901,0.,8.));
#1103=CARTESIAN_POINT('',(-186.914753312901,4.125,8.));
#1104=CARTESIAN_POINT('',(-186.914753312901,0.,0.));
#1105=CARTESIAN_POINT('Origin',(-187.639753312901,6.5,0.));
#1106=CARTESIAN_POINT('',(-187.639753312901,0.,8.));
#1107=CARTESIAN_POINT('',(-187.639753312901,0.,0.));
#1108=CARTESIAN_POINT('',(-187.639753312901,0.,8.));
#1109=CARTESIAN_POINT('Origin',(-180.239753312901,3.25,8.));
#1110=CARTESIAN_POINT('',(-172.839753312901,0.,8.));
#1111=CARTESIAN_POINT('',(-172.839753312901,0.,8.));
#1112=CARTESIAN_POINT('Origin',(-171.739753312901,0.,0.));
#1113=CARTESIAN_POINT('',(-171.739753312901,0.,0.));
#1114=CARTESIAN_POINT('Origin',(-172.839753312901,0.,0.));
#1115=CARTESIAN_POINT('Origin',(-188.739753312901,0.,0.));
#1116=UNCERTAINTY_MEASURE_WITH_UNIT(LENGTH_MEASURE(0.01),#1120,
'DISTANCE_ACCURACY_VALUE',
'Maximum model space distance between geometric entities at asserted c
onnectivities');
#1117=UNCERTAINTY_MEASURE_WITH_UNIT(LENGTH_MEASURE(0.01),#1120,
'DISTANCE_ACCURACY_VALUE',
'Maximum model space distance between geometric entities at asserted c
onnectivities');
#1118=(
GEOMETRIC_REPRESENTATION_CONTEXT(3)
GLOBAL_UNCERTAINTY_ASSIGNED_CONTEXT((#1116))
GLOBAL_UNIT_ASSIGNED_CONTEXT((#1120,#1122,#1123))
REPRESENTATION_CONTEXT('','3D')
);
#1119=(
GEOMETRIC_REPRESENTATION_CONTEXT(3)
GLOBAL_UNCERTAINTY_ASSIGNED_CONTEXT((#1117))
GLOBAL_UNIT_ASSIGNED_CONTEXT((#1120,#1122,#1123))
REPRESENTATION_CONTEXT('','3D')
);
#1120=(
LENGTH_UNIT()
NAMED_UNIT(*)
SI_UNIT(.MILLI.,.METRE.)
);
#1121=(
LENGTH_UNIT()
NAMED_UNIT(*)
SI_UNIT($,.METRE.)
);
#1122=(
NAMED_UNIT(*)
PLANE_ANGLE_UNIT()
SI_UNIT($,.RADIAN.)
);
#1123=(
NAMED_UNIT(*)
SI_UNIT($,.STERADIAN.)
SOLID_ANGLE_UNIT()
);
#1124=SHAPE_DEFINITION_REPRESENTATION(#1125,#1126);
#1125=PRODUCT_DEFINITION_SHAPE('',$,#1128);
#1126=SHAPE_REPRESENTATION('',(#712),#1118);
#1127=PRODUCT_DEFINITION_CONTEXT('part definition',#1132,'design');
#1128=PRODUCT_DEFINITION('wii_and_hdmi_mount','wii_and_hdmi_mount v5',#1129,
#1127);
#1129=PRODUCT_DEFINITION_FORMATION('',$,#1134);
#1130=PRODUCT_RELATED_PRODUCT_CATEGORY('wii_and_hdmi_mount v5',
'wii_and_hdmi_mount v5',(#1134));
#1131=APPLICATION_PROTOCOL_DEFINITION('international standard',
'automotive_design',2009,#1132);
#1132=APPLICATION_CONTEXT(
'Core Data for Automotive Mechanical Design Process');
#1133=PRODUCT_CONTEXT('part definition',#1132,'mechanical');
#1134=PRODUCT('wii_and_hdmi_mount','wii_and_hdmi_mount v5',$,(#1133));
#1135=PRESENTATION_STYLE_ASSIGNMENT((#1136));
#1136=SURFACE_STYLE_USAGE(.BOTH.,#1137);
#1137=SURFACE_SIDE_STYLE('',(#1138));
#1138=SURFACE_STYLE_FILL_AREA(#1139);
#1139=FILL_AREA_STYLE('Steel - Satin',(#1140));
#1140=FILL_AREA_STYLE_COLOUR('Steel - Satin',#1141);
#1141=COLOUR_RGB('Steel - Satin',0.627450980392157,0.627450980392157,0.627450980392157);
ENDSEC;
END-ISO-10303-21;
