ISO-10303-21;
HEADER;
/* Generated by software containing ST-Developer
 * from STEP Tools, Inc. (www.steptools.com) 
 */

FILE_DESCRIPTION(
/* description */ (''),
/* implementation_level */ '2;1');

FILE_NAME(
/* name */ 'wii_jack_holder_bottom_v2b.step',
/* time_stamp */ '2026-02-14T16:08:05-06:00',
/* author */ (''),
/* organization */ (''),
/* preprocessor_version */ 'ST-DEVELOPER v20.1',
/* originating_system */ 'Autodesk Translation Framework v14.21.0.0',
/* authorisation */ '');

FILE_SCHEMA (('AUTOMOTIVE_DESIGN { 1 0 10303 214 3 1 1 }'));
ENDSEC;

DATA;
#10=MECHANICAL_DESIGN_GEOMETRIC_PRESENTATION_REPRESENTATION('',(#13),#478);
#11=SHAPE_REPRESENTATION_RELATIONSHIP('SRR','None',#485,#12);
#12=ADVANCED_BREP_SHAPE_REPRESENTATION('',(#14),#477);
#13=STYLED_ITEM('',(#494),#14);
#14=MANIFOLD_SOLID_BREP('wii_jack_holder_bottom_v2b',#290);
#15=FACE_BOUND('',#43,.T.);
#16=CYLINDRICAL_SURFACE('',#316,1.5);
#17=FACE_OUTER_BOUND('',#31,.T.);
#18=FACE_OUTER_BOUND('',#32,.T.);
#19=FACE_OUTER_BOUND('',#33,.T.);
#20=FACE_OUTER_BOUND('',#34,.T.);
#21=FACE_OUTER_BOUND('',#35,.T.);
#22=FACE_OUTER_BOUND('',#36,.T.);
#23=FACE_OUTER_BOUND('',#37,.T.);
#24=FACE_OUTER_BOUND('',#38,.T.);
#25=FACE_OUTER_BOUND('',#39,.T.);
#26=FACE_OUTER_BOUND('',#40,.T.);
#27=FACE_OUTER_BOUND('',#41,.T.);
#28=FACE_OUTER_BOUND('',#42,.T.);
#29=FACE_OUTER_BOUND('',#44,.T.);
#30=FACE_OUTER_BOUND('',#45,.T.);
#31=EDGE_LOOP('',(#185,#186,#187,#188));
#32=EDGE_LOOP('',(#189,#190,#191,#192));
#33=EDGE_LOOP('',(#193,#194,#195,#196));
#34=EDGE_LOOP('',(#197,#198,#199,#200,#201,#202,#203,#204));
#35=EDGE_LOOP('',(#205,#206,#207,#208,#209,#210,#211,#212));
#36=EDGE_LOOP('',(#213,#214,#215,#216));
#37=EDGE_LOOP('',(#217,#218,#219,#220,#221,#222,#223,#224,#225));
#38=EDGE_LOOP('',(#226,#227,#228,#229,#230,#231,#232,#233));
#39=EDGE_LOOP('',(#234,#235,#236,#237));
#40=EDGE_LOOP('',(#238,#239,#240,#241,#242,#243,#244,#245));
#41=EDGE_LOOP('',(#246,#247,#248,#249));
#42=EDGE_LOOP('',(#250,#251,#252,#253));
#43=EDGE_LOOP('',(#254));
#44=EDGE_LOOP('',(#255,#256,#257,#258));
#45=EDGE_LOOP('',(#259,#260,#261,#262));
#46=LINE('',#401,#81);
#47=LINE('',#403,#82);
#48=LINE('',#404,#83);
#49=LINE('',#407,#84);
#50=LINE('',#409,#85);
#51=LINE('',#410,#86);
#52=LINE('',#413,#87);
#53=LINE('',#415,#88);
#54=LINE('',#416,#89);
#55=LINE('',#420,#90);
#56=LINE('',#421,#91);
#57=LINE('',#423,#92);
#58=LINE('',#425,#93);
#59=LINE('',#426,#94);
#60=LINE('',#429,#95);
#61=LINE('',#431,#96);
#62=LINE('',#433,#97);
#63=LINE('',#435,#98);
#64=LINE('',#437,#99);
#65=LINE('',#439,#100);
#66=LINE('',#440,#101);
#67=LINE('',#443,#102);
#68=LINE('',#445,#103);
#69=LINE('',#446,#104);
#70=LINE('',#449,#105);
#71=LINE('',#450,#106);
#72=LINE('',#456,#107);
#73=LINE('',#457,#108);
#74=LINE('',#459,#109);
#75=LINE('',#461,#110);
#76=LINE('',#462,#111);
#77=LINE('',#464,#112);
#78=LINE('',#467,#113);
#79=LINE('',#470,#114);
#80=LINE('',#473,#115);
#81=VECTOR('',#328,10.);
#82=VECTOR('',#329,10.);
#83=VECTOR('',#330,10.);
#84=VECTOR('',#333,10.);
#85=VECTOR('',#334,10.);
#86=VECTOR('',#335,10.);
#87=VECTOR('',#338,10.);
#88=VECTOR('',#339,10.);
#89=VECTOR('',#340,10.);
#90=VECTOR('',#343,10.);
#91=VECTOR('',#344,10.);
#92=VECTOR('',#345,10.);
#93=VECTOR('',#346,10.);
#94=VECTOR('',#347,10.);
#95=VECTOR('',#350,10.);
#96=VECTOR('',#351,10.);
#97=VECTOR('',#352,10.);
#98=VECTOR('',#353,10.);
#99=VECTOR('',#354,10.);
#100=VECTOR('',#355,10.);
#101=VECTOR('',#356,10.);
#102=VECTOR('',#359,10.);
#103=VECTOR('',#360,10.);
#104=VECTOR('',#361,10.);
#105=VECTOR('',#364,10.);
#106=VECTOR('',#365,10.);
#107=VECTOR('',#372,10.);
#108=VECTOR('',#373,10.);
#109=VECTOR('',#374,10.);
#110=VECTOR('',#375,10.);
#111=VECTOR('',#376,10.);
#112=VECTOR('',#379,10.);
#113=VECTOR('',#382,1.5);
#114=VECTOR('',#387,10.);
#115=VECTOR('',#392,10.);
#116=CIRCLE('',#305,1.5);
#117=CIRCLE('',#312,1.5);
#118=CIRCLE('',#313,1.5);
#119=CIRCLE('',#317,1.5);
#120=VERTEX_POINT('',#397);
#121=VERTEX_POINT('',#398);
#122=VERTEX_POINT('',#400);
#123=VERTEX_POINT('',#402);
#124=VERTEX_POINT('',#406);
#125=VERTEX_POINT('',#408);
#126=VERTEX_POINT('',#412);
#127=VERTEX_POINT('',#414);
#128=VERTEX_POINT('',#418);
#129=VERTEX_POINT('',#419);
#130=VERTEX_POINT('',#422);
#131=VERTEX_POINT('',#424);
#132=VERTEX_POINT('',#428);
#133=VERTEX_POINT('',#430);
#134=VERTEX_POINT('',#432);
#135=VERTEX_POINT('',#434);
#136=VERTEX_POINT('',#436);
#137=VERTEX_POINT('',#438);
#138=VERTEX_POINT('',#442);
#139=VERTEX_POINT('',#444);
#140=VERTEX_POINT('',#448);
#141=VERTEX_POINT('',#451);
#142=VERTEX_POINT('',#455);
#143=VERTEX_POINT('',#458);
#144=VERTEX_POINT('',#460);
#145=VERTEX_POINT('',#466);
#146=EDGE_CURVE('',#120,#121,#116,.T.);
#147=EDGE_CURVE('',#121,#122,#46,.T.);
#148=EDGE_CURVE('',#122,#123,#47,.T.);
#149=EDGE_CURVE('',#120,#123,#48,.T.);
#150=EDGE_CURVE('',#120,#124,#49,.T.);
#151=EDGE_CURVE('',#123,#125,#50,.T.);
#152=EDGE_CURVE('',#124,#125,#51,.T.);
#153=EDGE_CURVE('',#126,#121,#52,.T.);
#154=EDGE_CURVE('',#126,#127,#53,.T.);
#155=EDGE_CURVE('',#127,#122,#54,.T.);
#156=EDGE_CURVE('',#128,#129,#55,.T.);
#157=EDGE_CURVE('',#125,#128,#56,.T.);
#158=EDGE_CURVE('',#130,#127,#57,.T.);
#159=EDGE_CURVE('',#131,#130,#58,.T.);
#160=EDGE_CURVE('',#129,#131,#59,.T.);
#161=EDGE_CURVE('',#132,#128,#60,.T.);
#162=EDGE_CURVE('',#129,#133,#61,.T.);
#163=EDGE_CURVE('',#134,#133,#62,.T.);
#164=EDGE_CURVE('',#135,#134,#63,.T.);
#165=EDGE_CURVE('',#135,#136,#64,.T.);
#166=EDGE_CURVE('',#137,#136,#65,.T.);
#167=EDGE_CURVE('',#137,#132,#66,.T.);
#168=EDGE_CURVE('',#135,#138,#67,.T.);
#169=EDGE_CURVE('',#139,#138,#68,.T.);
#170=EDGE_CURVE('',#136,#139,#69,.T.);
#171=EDGE_CURVE('',#140,#132,#70,.T.);
#172=EDGE_CURVE('',#130,#140,#71,.T.);
#173=EDGE_CURVE('',#141,#126,#117,.T.);
#174=EDGE_CURVE('',#124,#141,#118,.T.);
#175=EDGE_CURVE('',#140,#142,#72,.T.);
#176=EDGE_CURVE('',#139,#142,#73,.T.);
#177=EDGE_CURVE('',#143,#138,#74,.T.);
#178=EDGE_CURVE('',#144,#143,#75,.T.);
#179=EDGE_CURVE('',#131,#144,#76,.T.);
#180=EDGE_CURVE('',#142,#137,#77,.T.);
#181=EDGE_CURVE('',#141,#145,#78,.T.);
#182=EDGE_CURVE('',#145,#145,#119,.T.);
#183=EDGE_CURVE('',#144,#133,#79,.T.);
#184=EDGE_CURVE('',#143,#134,#80,.T.);
#185=ORIENTED_EDGE('',*,*,#146,.T.);
#186=ORIENTED_EDGE('',*,*,#147,.T.);
#187=ORIENTED_EDGE('',*,*,#148,.T.);
#188=ORIENTED_EDGE('',*,*,#149,.F.);
#189=ORIENTED_EDGE('',*,*,#150,.F.);
#190=ORIENTED_EDGE('',*,*,#149,.T.);
#191=ORIENTED_EDGE('',*,*,#151,.T.);
#192=ORIENTED_EDGE('',*,*,#152,.F.);
#193=ORIENTED_EDGE('',*,*,#153,.F.);
#194=ORIENTED_EDGE('',*,*,#154,.T.);
#195=ORIENTED_EDGE('',*,*,#155,.T.);
#196=ORIENTED_EDGE('',*,*,#147,.F.);
#197=ORIENTED_EDGE('',*,*,#156,.F.);
#198=ORIENTED_EDGE('',*,*,#157,.F.);
#199=ORIENTED_EDGE('',*,*,#151,.F.);
#200=ORIENTED_EDGE('',*,*,#148,.F.);
#201=ORIENTED_EDGE('',*,*,#155,.F.);
#202=ORIENTED_EDGE('',*,*,#158,.F.);
#203=ORIENTED_EDGE('',*,*,#159,.F.);
#204=ORIENTED_EDGE('',*,*,#160,.F.);
#205=ORIENTED_EDGE('',*,*,#161,.T.);
#206=ORIENTED_EDGE('',*,*,#156,.T.);
#207=ORIENTED_EDGE('',*,*,#162,.T.);
#208=ORIENTED_EDGE('',*,*,#163,.F.);
#209=ORIENTED_EDGE('',*,*,#164,.F.);
#210=ORIENTED_EDGE('',*,*,#165,.T.);
#211=ORIENTED_EDGE('',*,*,#166,.F.);
#212=ORIENTED_EDGE('',*,*,#167,.T.);
#213=ORIENTED_EDGE('',*,*,#168,.T.);
#214=ORIENTED_EDGE('',*,*,#169,.F.);
#215=ORIENTED_EDGE('',*,*,#170,.F.);
#216=ORIENTED_EDGE('',*,*,#165,.F.);
#217=ORIENTED_EDGE('',*,*,#171,.F.);
#218=ORIENTED_EDGE('',*,*,#172,.F.);
#219=ORIENTED_EDGE('',*,*,#158,.T.);
#220=ORIENTED_EDGE('',*,*,#154,.F.);
#221=ORIENTED_EDGE('',*,*,#173,.F.);
#222=ORIENTED_EDGE('',*,*,#174,.F.);
#223=ORIENTED_EDGE('',*,*,#152,.T.);
#224=ORIENTED_EDGE('',*,*,#157,.T.);
#225=ORIENTED_EDGE('',*,*,#161,.F.);
#226=ORIENTED_EDGE('',*,*,#172,.T.);
#227=ORIENTED_EDGE('',*,*,#175,.T.);
#228=ORIENTED_EDGE('',*,*,#176,.F.);
#229=ORIENTED_EDGE('',*,*,#169,.T.);
#230=ORIENTED_EDGE('',*,*,#177,.F.);
#231=ORIENTED_EDGE('',*,*,#178,.F.);
#232=ORIENTED_EDGE('',*,*,#179,.F.);
#233=ORIENTED_EDGE('',*,*,#159,.T.);
#234=ORIENTED_EDGE('',*,*,#171,.T.);
#235=ORIENTED_EDGE('',*,*,#167,.F.);
#236=ORIENTED_EDGE('',*,*,#180,.F.);
#237=ORIENTED_EDGE('',*,*,#175,.F.);
#238=ORIENTED_EDGE('',*,*,#153,.T.);
#239=ORIENTED_EDGE('',*,*,#146,.F.);
#240=ORIENTED_EDGE('',*,*,#150,.T.);
#241=ORIENTED_EDGE('',*,*,#174,.T.);
#242=ORIENTED_EDGE('',*,*,#181,.T.);
#243=ORIENTED_EDGE('',*,*,#182,.F.);
#244=ORIENTED_EDGE('',*,*,#181,.F.);
#245=ORIENTED_EDGE('',*,*,#173,.T.);
#246=ORIENTED_EDGE('',*,*,#160,.T.);
#247=ORIENTED_EDGE('',*,*,#179,.T.);
#248=ORIENTED_EDGE('',*,*,#183,.T.);
#249=ORIENTED_EDGE('',*,*,#162,.F.);
#250=ORIENTED_EDGE('',*,*,#170,.T.);
#251=ORIENTED_EDGE('',*,*,#176,.T.);
#252=ORIENTED_EDGE('',*,*,#180,.T.);
#253=ORIENTED_EDGE('',*,*,#166,.T.);
#254=ORIENTED_EDGE('',*,*,#182,.T.);
#255=ORIENTED_EDGE('',*,*,#178,.T.);
#256=ORIENTED_EDGE('',*,*,#184,.T.);
#257=ORIENTED_EDGE('',*,*,#163,.T.);
#258=ORIENTED_EDGE('',*,*,#183,.F.);
#259=ORIENTED_EDGE('',*,*,#164,.T.);
#260=ORIENTED_EDGE('',*,*,#184,.F.);
#261=ORIENTED_EDGE('',*,*,#177,.T.);
#262=ORIENTED_EDGE('',*,*,#168,.F.);
#263=PLANE('',#304);
#264=PLANE('',#306);
#265=PLANE('',#307);
#266=PLANE('',#308);
#267=PLANE('',#309);
#268=PLANE('',#310);
#269=PLANE('',#311);
#270=PLANE('',#314);
#271=PLANE('',#315);
#272=PLANE('',#318);
#273=PLANE('',#319);
#274=PLANE('',#320);
#275=PLANE('',#321);
#276=ADVANCED_FACE('',(#17),#263,.F.);
#277=ADVANCED_FACE('',(#18),#264,.F.);
#278=ADVANCED_FACE('',(#19),#265,.F.);
#279=ADVANCED_FACE('',(#20),#266,.F.);
#280=ADVANCED_FACE('',(#21),#267,.F.);
#281=ADVANCED_FACE('',(#22),#268,.F.);
#282=ADVANCED_FACE('',(#23),#269,.F.);
#283=ADVANCED_FACE('',(#24),#270,.F.);
#284=ADVANCED_FACE('',(#25),#271,.F.);
#285=ADVANCED_FACE('',(#26),#16,.F.);
#286=ADVANCED_FACE('',(#27),#272,.F.);
#287=ADVANCED_FACE('',(#28,#15),#273,.T.);
#288=ADVANCED_FACE('',(#29),#274,.F.);
#289=ADVANCED_FACE('',(#30),#275,.F.);
#290=CLOSED_SHELL('',(#276,#277,#278,#279,#280,#281,#282,#283,#284,#285,
#286,#287,#288,#289));
#291=DERIVED_UNIT_ELEMENT(#293,1.);
#292=DERIVED_UNIT_ELEMENT(#480,-3.);
#293=(
MASS_UNIT()
NAMED_UNIT(*)
SI_UNIT(.KILO.,.GRAM.)
);
#294=DERIVED_UNIT((#291,#292));
#295=MEASURE_REPRESENTATION_ITEM('density measure',
POSITIVE_RATIO_MEASURE(7850.),#294);
#296=PROPERTY_DEFINITION_REPRESENTATION(#301,#298);
#297=PROPERTY_DEFINITION_REPRESENTATION(#302,#299);
#298=REPRESENTATION('material name',(#300),#477);
#299=REPRESENTATION('density',(#295),#477);
#300=DESCRIPTIVE_REPRESENTATION_ITEM('Steel','Steel');
#301=PROPERTY_DEFINITION('material property','material name',#487);
#302=PROPERTY_DEFINITION('material property','density of part',#487);
#303=AXIS2_PLACEMENT_3D('',#395,#322,#323);
#304=AXIS2_PLACEMENT_3D('',#396,#324,#325);
#305=AXIS2_PLACEMENT_3D('',#399,#326,#327);
#306=AXIS2_PLACEMENT_3D('',#405,#331,#332);
#307=AXIS2_PLACEMENT_3D('',#411,#336,#337);
#308=AXIS2_PLACEMENT_3D('',#417,#341,#342);
#309=AXIS2_PLACEMENT_3D('',#427,#348,#349);
#310=AXIS2_PLACEMENT_3D('',#441,#357,#358);
#311=AXIS2_PLACEMENT_3D('',#447,#362,#363);
#312=AXIS2_PLACEMENT_3D('',#452,#366,#367);
#313=AXIS2_PLACEMENT_3D('',#453,#368,#369);
#314=AXIS2_PLACEMENT_3D('',#454,#370,#371);
#315=AXIS2_PLACEMENT_3D('',#463,#377,#378);
#316=AXIS2_PLACEMENT_3D('',#465,#380,#381);
#317=AXIS2_PLACEMENT_3D('',#468,#383,#384);
#318=AXIS2_PLACEMENT_3D('',#469,#385,#386);
#319=AXIS2_PLACEMENT_3D('',#471,#388,#389);
#320=AXIS2_PLACEMENT_3D('',#472,#390,#391);
#321=AXIS2_PLACEMENT_3D('',#474,#393,#394);
#322=DIRECTION('axis',(0.,0.,1.));
#323=DIRECTION('refdir',(1.,0.,0.));
#324=DIRECTION('center_axis',(0.,0.,1.));
#325=DIRECTION('ref_axis',(1.,0.,0.));
#326=DIRECTION('center_axis',(0.,0.,1.));
#327=DIRECTION('ref_axis',(-1.,0.,0.));
#328=DIRECTION('',(0.,1.,0.));
#329=DIRECTION('',(1.,0.,0.));
#330=DIRECTION('',(0.,1.,0.));
#331=DIRECTION('center_axis',(-1.,0.,0.));
#332=DIRECTION('ref_axis',(0.,0.,1.));
#333=DIRECTION('',(0.,0.,1.));
#334=DIRECTION('',(0.,0.,1.));
#335=DIRECTION('',(0.,1.,0.));
#336=DIRECTION('center_axis',(1.,0.,0.));
#337=DIRECTION('ref_axis',(0.,0.,-1.));
#338=DIRECTION('',(0.,0.,-1.));
#339=DIRECTION('',(0.,1.,0.));
#340=DIRECTION('',(0.,0.,-1.));
#341=DIRECTION('center_axis',(0.,1.,0.));
#342=DIRECTION('ref_axis',(0.,0.,1.));
#343=DIRECTION('',(0.,0.,-1.));
#344=DIRECTION('',(1.,0.,0.));
#345=DIRECTION('',(1.,0.,0.));
#346=DIRECTION('',(0.,0.,1.));
#347=DIRECTION('',(-1.,0.,0.));
#348=DIRECTION('center_axis',(-1.,0.,0.));
#349=DIRECTION('ref_axis',(0.,0.,1.));
#350=DIRECTION('',(0.,1.,0.));
#351=DIRECTION('',(0.,1.,0.));
#352=DIRECTION('',(0.,0.,-1.));
#353=DIRECTION('',(0.,-1.,0.));
#354=DIRECTION('',(0.,0.,1.));
#355=DIRECTION('',(0.,1.,0.));
#356=DIRECTION('',(0.,0.,-1.));
#357=DIRECTION('center_axis',(0.,-1.,0.));
#358=DIRECTION('ref_axis',(0.,0.,-1.));
#359=DIRECTION('',(-1.,0.,0.));
#360=DIRECTION('',(0.,0.,-1.));
#361=DIRECTION('',(-1.,0.,0.));
#362=DIRECTION('center_axis',(0.,0.,1.));
#363=DIRECTION('ref_axis',(0.,-1.,0.));
#364=DIRECTION('',(1.,0.,0.));
#365=DIRECTION('',(0.,-1.,0.));
#366=DIRECTION('center_axis',(0.,0.,-1.));
#367=DIRECTION('ref_axis',(-1.,0.,0.));
#368=DIRECTION('center_axis',(0.,0.,-1.));
#369=DIRECTION('ref_axis',(-1.,0.,0.));
#370=DIRECTION('center_axis',(1.,0.,0.));
#371=DIRECTION('ref_axis',(0.,0.,-1.));
#372=DIRECTION('',(0.,0.,1.));
#373=DIRECTION('',(0.,-1.,0.));
#374=DIRECTION('',(0.,1.,0.));
#375=DIRECTION('',(0.,0.,1.));
#376=DIRECTION('',(0.,1.,0.));
#377=DIRECTION('center_axis',(0.,1.,0.));
#378=DIRECTION('ref_axis',(0.,0.,1.));
#379=DIRECTION('',(1.,0.,0.));
#380=DIRECTION('center_axis',(0.,0.,1.));
#381=DIRECTION('ref_axis',(-1.,0.,0.));
#382=DIRECTION('',(0.,0.,1.));
#383=DIRECTION('center_axis',(0.,0.,-1.));
#384=DIRECTION('ref_axis',(-1.,0.,0.));
#385=DIRECTION('center_axis',(0.,0.,1.));
#386=DIRECTION('ref_axis',(1.,0.,0.));
#387=DIRECTION('',(1.,0.,0.));
#388=DIRECTION('center_axis',(0.,0.,1.));
#389=DIRECTION('ref_axis',(1.,0.,0.));
#390=DIRECTION('center_axis',(0.,-1.,0.));
#391=DIRECTION('ref_axis',(1.,0.,0.));
#392=DIRECTION('',(1.,0.,0.));
#393=DIRECTION('center_axis',(0.,0.,1.));
#394=DIRECTION('ref_axis',(1.,0.,0.));
#395=CARTESIAN_POINT('',(0.,0.,0.));
#396=CARTESIAN_POINT('Origin',(-99.6997727084868,-99.4,4.));
#397=CARTESIAN_POINT('',(-96.9502272915133,-99.4,4.));
#398=CARTESIAN_POINT('',(-99.6997727084868,-99.4,4.));
#399=CARTESIAN_POINT('Origin',(-98.325,-100.,4.));
#400=CARTESIAN_POINT('',(-99.6997727084868,-96.4,4.));
#401=CARTESIAN_POINT('',(-99.6997727084868,-99.4,4.));
#402=CARTESIAN_POINT('',(-96.9502272915133,-96.4,4.));
#403=CARTESIAN_POINT('',(-119.075,-96.4,4.));
#404=CARTESIAN_POINT('',(-96.9502272915133,-99.4,4.));
#405=CARTESIAN_POINT('Origin',(-96.9502272915133,-99.4,4.));
#406=CARTESIAN_POINT('',(-96.9502272915133,-99.4,4.1));
#407=CARTESIAN_POINT('',(-96.9502272915133,-99.4,4.));
#408=CARTESIAN_POINT('',(-96.9502272915133,-96.4,4.1));
#409=CARTESIAN_POINT('',(-96.9502272915133,-96.4,4.));
#410=CARTESIAN_POINT('',(-96.9502272915133,-99.4,4.1));
#411=CARTESIAN_POINT('Origin',(-99.6997727084868,-99.4,4.1));
#412=CARTESIAN_POINT('',(-99.6997727084868,-99.4,4.1));
#413=CARTESIAN_POINT('',(-99.6997727084868,-99.4,4.));
#414=CARTESIAN_POINT('',(-99.6997727084868,-96.4,4.1));
#415=CARTESIAN_POINT('',(-99.6997727084868,-99.4,4.1));
#416=CARTESIAN_POINT('',(-99.6997727084868,-96.4,4.));
#417=CARTESIAN_POINT('Origin',(-139.825,-96.4,0.));
#418=CARTESIAN_POINT('',(-89.825,-96.4,4.1));
#419=CARTESIAN_POINT('',(-89.825,-96.4,0.));
#420=CARTESIAN_POINT('',(-89.825,-96.4,0.));
#421=CARTESIAN_POINT('',(-139.825,-96.4,4.1));
#422=CARTESIAN_POINT('',(-106.825,-96.4,4.1));
#423=CARTESIAN_POINT('',(-139.825,-96.4,4.1));
#424=CARTESIAN_POINT('',(-106.825,-96.4,0.));
#425=CARTESIAN_POINT('',(-106.825,-96.4,0.));
#426=CARTESIAN_POINT('',(-119.075,-96.4,0.));
#427=CARTESIAN_POINT('Origin',(-89.825,-108.5,0.));
#428=CARTESIAN_POINT('',(-89.825,-106.4,4.1));
#429=CARTESIAN_POINT('',(-89.825,-103.95,4.1));
#430=CARTESIAN_POINT('',(-89.825,-93.5,0.));
#431=CARTESIAN_POINT('',(-89.825,-119.,0.));
#432=CARTESIAN_POINT('',(-89.825,-93.5,6.));
#433=CARTESIAN_POINT('',(-89.825,-93.5,0.));
#434=CARTESIAN_POINT('',(-89.825,-81.,6.));
#435=CARTESIAN_POINT('',(-89.825,-97.875,6.));
#436=CARTESIAN_POINT('',(-89.825,-81.,8.));
#437=CARTESIAN_POINT('',(-89.825,-81.,0.));
#438=CARTESIAN_POINT('',(-89.825,-106.4,8.));
#439=CARTESIAN_POINT('',(-89.825,-100.75,8.));
#440=CARTESIAN_POINT('',(-89.825,-106.4,0.));
#441=CARTESIAN_POINT('Origin',(-81.825,-81.,0.));
#442=CARTESIAN_POINT('',(-106.825,-81.,6.));
#443=CARTESIAN_POINT('',(-114.825,-81.,6.));
#444=CARTESIAN_POINT('',(-106.825,-81.,8.));
#445=CARTESIAN_POINT('',(-106.825,-81.,0.));
#446=CARTESIAN_POINT('',(-92.075,-81.,8.));
#447=CARTESIAN_POINT('Origin',(-139.825,-99.5,4.1));
#448=CARTESIAN_POINT('',(-106.825,-106.4,4.1));
#449=CARTESIAN_POINT('',(-123.325,-106.4,4.1));
#450=CARTESIAN_POINT('',(-106.825,-96.45,4.1));
#451=CARTESIAN_POINT('',(-96.825,-100.,4.1));
#452=CARTESIAN_POINT('Origin',(-98.325,-100.,4.1));
#453=CARTESIAN_POINT('Origin',(-98.325,-100.,4.1));
#454=CARTESIAN_POINT('Origin',(-106.825,-93.5,0.));
#455=CARTESIAN_POINT('',(-106.825,-106.4,8.));
#456=CARTESIAN_POINT('',(-106.825,-106.4,0.));
#457=CARTESIAN_POINT('',(-106.825,-100.75,8.));
#458=CARTESIAN_POINT('',(-106.825,-93.5,6.));
#459=CARTESIAN_POINT('',(-106.825,-90.375,6.));
#460=CARTESIAN_POINT('',(-106.825,-93.5,0.));
#461=CARTESIAN_POINT('',(-106.825,-93.5,0.));
#462=CARTESIAN_POINT('',(-106.825,-107.625,0.));
#463=CARTESIAN_POINT('Origin',(-106.825,-106.4,0.));
#464=CARTESIAN_POINT('',(-104.575,-106.4,8.));
#465=CARTESIAN_POINT('Origin',(-98.325,-100.,4.));
#466=CARTESIAN_POINT('',(-96.825,-100.,8.));
#467=CARTESIAN_POINT('',(-96.825,-100.,4.));
#468=CARTESIAN_POINT('Origin',(-98.325,-100.,8.));
#469=CARTESIAN_POINT('Origin',(-98.325,-114.75,0.));
#470=CARTESIAN_POINT('',(-106.575,-93.5,0.));
#471=CARTESIAN_POINT('Origin',(-102.325,-101.,8.));
#472=CARTESIAN_POINT('Origin',(-114.825,-93.5,0.));
#473=CARTESIAN_POINT('',(-114.825,-93.5,6.));
#474=CARTESIAN_POINT('Origin',(-98.325,-87.25,6.));
#475=UNCERTAINTY_MEASURE_WITH_UNIT(LENGTH_MEASURE(0.01),#479,
'DISTANCE_ACCURACY_VALUE',
'Maximum model space distance between geometric entities at asserted c
onnectivities');
#476=UNCERTAINTY_MEASURE_WITH_UNIT(LENGTH_MEASURE(0.01),#479,
'DISTANCE_ACCURACY_VALUE',
'Maximum model space distance between geometric entities at asserted c
onnectivities');
#477=(
GEOMETRIC_REPRESENTATION_CONTEXT(3)
GLOBAL_UNCERTAINTY_ASSIGNED_CONTEXT((#475))
GLOBAL_UNIT_ASSIGNED_CONTEXT((#479,#481,#482))
REPRESENTATION_CONTEXT('','3D')
);
#478=(
GEOMETRIC_REPRESENTATION_CONTEXT(3)
GLOBAL_UNCERTAINTY_ASSIGNED_CONTEXT((#476))
GLOBAL_UNIT_ASSIGNED_CONTEXT((#479,#481,#482))
REPRESENTATION_CONTEXT('','3D')
);
#479=(
LENGTH_UNIT()
NAMED_UNIT(*)
SI_UNIT(.MILLI.,.METRE.)
);
#480=(
LENGTH_UNIT()
NAMED_UNIT(*)
SI_UNIT($,.METRE.)
);
#481=(
NAMED_UNIT(*)
PLANE_ANGLE_UNIT()
SI_UNIT($,.RADIAN.)
);
#482=(
NAMED_UNIT(*)
SI_UNIT($,.STERADIAN.)
SOLID_ANGLE_UNIT()
);
#483=SHAPE_DEFINITION_REPRESENTATION(#484,#485);
#484=PRODUCT_DEFINITION_SHAPE('',$,#487);
#485=SHAPE_REPRESENTATION('',(#303),#477);
#486=PRODUCT_DEFINITION_CONTEXT('part definition',#491,'design');
#487=PRODUCT_DEFINITION('wii_and_hdmi_mount','wii_and_hdmi_mount v13',#488,
#486);
#488=PRODUCT_DEFINITION_FORMATION('',$,#493);
#489=PRODUCT_RELATED_PRODUCT_CATEGORY('wii_and_hdmi_mount v13',
'wii_and_hdmi_mount v13',(#493));
#490=APPLICATION_PROTOCOL_DEFINITION('international standard',
'automotive_design',2009,#491);
#491=APPLICATION_CONTEXT(
'Core Data for Automotive Mechanical Design Process');
#492=PRODUCT_CONTEXT('part definition',#491,'mechanical');
#493=PRODUCT('wii_and_hdmi_mount','wii_and_hdmi_mount v13',$,(#492));
#494=PRESENTATION_STYLE_ASSIGNMENT((#495));
#495=SURFACE_STYLE_USAGE(.BOTH.,#496);
#496=SURFACE_SIDE_STYLE('',(#497));
#497=SURFACE_STYLE_FILL_AREA(#498);
#498=FILL_AREA_STYLE('Steel - Satin',(#499));
#499=FILL_AREA_STYLE_COLOUR('Steel - Satin',#500);
#500=COLOUR_RGB('Steel - Satin',0.627450980392157,0.627450980392157,0.627450980392157);
ENDSEC;
END-ISO-10303-21;
