ISO-10303-21;
HEADER;
/* Generated by software containing ST-Developer
 * from STEP Tools, Inc. (www.steptools.com) 
 */

FILE_DESCRIPTION(
/* description */ (''),
/* implementation_level */ '2;1');

FILE_NAME(
/* name */ 'wii_jack_holder_top_v2.step',
/* time_stamp */ '2026-02-14T16:08:33-06:00',
/* author */ (''),
/* organization */ (''),
/* preprocessor_version */ 'ST-DEVELOPER v20.1',
/* originating_system */ 'Autodesk Translation Framework v14.21.0.0',
/* authorisation */ '');

FILE_SCHEMA (('AUTOMOTIVE_DESIGN { 1 0 10303 214 3 1 1 }'));
ENDSEC;

DATA;
#10=MECHANICAL_DESIGN_GEOMETRIC_PRESENTATION_REPRESENTATION('',(#13),#1061);
#11=SHAPE_REPRESENTATION_RELATIONSHIP('SRR','None',#1068,#12);
#12=ADVANCED_BREP_SHAPE_REPRESENTATION('',(#14),#1060);
#13=STYLED_ITEM('',(#1077),#14);
#14=MANIFOLD_SOLID_BREP('wii_jack_holder_top_v2',#649);
#15=FACE_BOUND('',#80,.T.);
#16=FACE_BOUND('',#81,.T.);
#17=FACE_BOUND('',#98,.T.);
#18=FACE_BOUND('',#100,.T.);
#19=PLANE('',#669);
#20=PLANE('',#676);
#21=PLANE('',#679);
#22=PLANE('',#680);
#23=PLANE('',#681);
#24=PLANE('',#682);
#25=PLANE('',#683);
#26=PLANE('',#684);
#27=PLANE('',#685);
#28=PLANE('',#686);
#29=PLANE('',#687);
#30=PLANE('',#688);
#31=PLANE('',#689);
#32=PLANE('',#690);
#33=PLANE('',#691);
#34=PLANE('',#693);
#35=PLANE('',#695);
#36=PLANE('',#696);
#37=PLANE('',#697);
#38=PLANE('',#698);
#39=PLANE('',#701);
#40=PLANE('',#702);
#41=PLANE('',#703);
#42=PLANE('',#704);
#43=PLANE('',#705);
#44=PLANE('',#706);
#45=FACE_OUTER_BOUND('',#77,.T.);
#46=FACE_OUTER_BOUND('',#78,.T.);
#47=FACE_OUTER_BOUND('',#79,.T.);
#48=FACE_OUTER_BOUND('',#82,.T.);
#49=FACE_OUTER_BOUND('',#83,.T.);
#50=FACE_OUTER_BOUND('',#84,.T.);
#51=FACE_OUTER_BOUND('',#85,.T.);
#52=FACE_OUTER_BOUND('',#86,.T.);
#53=FACE_OUTER_BOUND('',#87,.T.);
#54=FACE_OUTER_BOUND('',#88,.T.);
#55=FACE_OUTER_BOUND('',#89,.T.);
#56=FACE_OUTER_BOUND('',#90,.T.);
#57=FACE_OUTER_BOUND('',#91,.T.);
#58=FACE_OUTER_BOUND('',#92,.T.);
#59=FACE_OUTER_BOUND('',#93,.T.);
#60=FACE_OUTER_BOUND('',#94,.T.);
#61=FACE_OUTER_BOUND('',#95,.T.);
#62=FACE_OUTER_BOUND('',#96,.T.);
#63=FACE_OUTER_BOUND('',#97,.T.);
#64=FACE_OUTER_BOUND('',#99,.T.);
#65=FACE_OUTER_BOUND('',#101,.T.);
#66=FACE_OUTER_BOUND('',#102,.T.);
#67=FACE_OUTER_BOUND('',#103,.T.);
#68=FACE_OUTER_BOUND('',#104,.T.);
#69=FACE_OUTER_BOUND('',#105,.T.);
#70=FACE_OUTER_BOUND('',#106,.T.);
#71=FACE_OUTER_BOUND('',#107,.T.);
#72=FACE_OUTER_BOUND('',#108,.T.);
#73=FACE_OUTER_BOUND('',#109,.T.);
#74=FACE_OUTER_BOUND('',#110,.T.);
#75=FACE_OUTER_BOUND('',#111,.T.);
#76=FACE_OUTER_BOUND('',#112,.T.);
#77=EDGE_LOOP('',(#431,#432,#433,#434));
#78=EDGE_LOOP('',(#435,#436,#437,#438));
#79=EDGE_LOOP('',(#439,#440,#441,#442,#443,#444,#445,#446));
#80=EDGE_LOOP('',(#447));
#81=EDGE_LOOP('',(#448));
#82=EDGE_LOOP('',(#449,#450,#451,#452));
#83=EDGE_LOOP('',(#453,#454,#455,#456));
#84=EDGE_LOOP('',(#457,#458,#459,#460));
#85=EDGE_LOOP('',(#461,#462,#463,#464));
#86=EDGE_LOOP('',(#465,#466,#467,#468,#469,#470,#471,#472,#473,#474,#475,
#476));
#87=EDGE_LOOP('',(#477,#478,#479,#480));
#88=EDGE_LOOP('',(#481,#482,#483,#484));
#89=EDGE_LOOP('',(#485,#486,#487,#488));
#90=EDGE_LOOP('',(#489,#490,#491,#492));
#91=EDGE_LOOP('',(#493,#494,#495,#496));
#92=EDGE_LOOP('',(#497,#498,#499,#500));
#93=EDGE_LOOP('',(#501,#502,#503,#504));
#94=EDGE_LOOP('',(#505,#506,#507,#508));
#95=EDGE_LOOP('',(#509,#510,#511,#512,#513,#514,#515,#516,#517,#518,#519,
#520));
#96=EDGE_LOOP('',(#521,#522,#523,#524,#525,#526,#527,#528));
#97=EDGE_LOOP('',(#529,#530,#531,#532,#533,#534));
#98=EDGE_LOOP('',(#535));
#99=EDGE_LOOP('',(#536,#537,#538,#539,#540,#541));
#100=EDGE_LOOP('',(#542));
#101=EDGE_LOOP('',(#543,#544,#545,#546,#547,#548,#549,#550,#551,#552,#553,
#554));
#102=EDGE_LOOP('',(#555,#556,#557,#558,#559,#560,#561,#562));
#103=EDGE_LOOP('',(#563,#564,#565,#566,#567,#568,#569,#570));
#104=EDGE_LOOP('',(#571,#572,#573,#574,#575,#576));
#105=EDGE_LOOP('',(#577,#578,#579,#580));
#106=EDGE_LOOP('',(#581,#582,#583,#584));
#107=EDGE_LOOP('',(#585,#586,#587,#588));
#108=EDGE_LOOP('',(#589,#590,#591,#592));
#109=EDGE_LOOP('',(#593,#594,#595,#596));
#110=EDGE_LOOP('',(#597,#598,#599,#600));
#111=EDGE_LOOP('',(#601,#602,#603,#604));
#112=EDGE_LOOP('',(#605,#606,#607,#608,#609,#610));
#113=LINE('',#881,#191);
#114=LINE('',#884,#192);
#115=LINE('',#889,#193);
#116=LINE('',#893,#194);
#117=LINE('',#895,#195);
#118=LINE('',#897,#196);
#119=LINE('',#902,#197);
#120=LINE('',#911,#198);
#121=LINE('',#912,#199);
#122=LINE('',#915,#200);
#123=LINE('',#916,#201);
#124=LINE('',#920,#202);
#125=LINE('',#923,#203);
#126=LINE('',#924,#204);
#127=LINE('',#928,#205);
#128=LINE('',#930,#206);
#129=LINE('',#932,#207);
#130=LINE('',#934,#208);
#131=LINE('',#936,#209);
#132=LINE('',#938,#210);
#133=LINE('',#940,#211);
#134=LINE('',#941,#212);
#135=LINE('',#942,#213);
#136=LINE('',#946,#214);
#137=LINE('',#948,#215);
#138=LINE('',#950,#216);
#139=LINE('',#951,#217);
#140=LINE('',#954,#218);
#141=LINE('',#956,#219);
#142=LINE('',#957,#220);
#143=LINE('',#960,#221);
#144=LINE('',#961,#222);
#145=LINE('',#965,#223);
#146=LINE('',#967,#224);
#147=LINE('',#969,#225);
#148=LINE('',#970,#226);
#149=LINE('',#973,#227);
#150=LINE('',#975,#228);
#151=LINE('',#976,#229);
#152=LINE('',#979,#230);
#153=LINE('',#980,#231);
#154=LINE('',#983,#232);
#155=LINE('',#984,#233);
#156=LINE('',#987,#234);
#157=LINE('',#988,#235);
#158=LINE('',#990,#236);
#159=LINE('',#992,#237);
#160=LINE('',#994,#238);
#161=LINE('',#995,#239);
#162=LINE('',#996,#240);
#163=LINE('',#1000,#241);
#164=LINE('',#1002,#242);
#165=LINE('',#1004,#243);
#166=LINE('',#1005,#244);
#167=LINE('',#1007,#245);
#168=LINE('',#1009,#246);
#169=LINE('',#1010,#247);
#170=LINE('',#1013,#248);
#171=LINE('',#1014,#249);
#172=LINE('',#1019,#250);
#173=LINE('',#1020,#251);
#174=LINE('',#1025,#252);
#175=LINE('',#1027,#253);
#176=LINE('',#1029,#254);
#177=LINE('',#1031,#255);
#178=LINE('',#1033,#256);
#179=LINE('',#1035,#257);
#180=LINE('',#1036,#258);
#181=LINE('',#1038,#259);
#182=LINE('',#1040,#260);
#183=LINE('',#1042,#261);
#184=LINE('',#1043,#262);
#185=LINE('',#1045,#263);
#186=LINE('',#1047,#264);
#187=LINE('',#1050,#265);
#188=LINE('',#1051,#266);
#189=LINE('',#1053,#267);
#190=LINE('',#1056,#268);
#191=VECTOR('',#713,2.5);
#192=VECTOR('',#716,2.5);
#193=VECTOR('',#721,10.);
#194=VECTOR('',#726,10.);
#195=VECTOR('',#727,10.);
#196=VECTOR('',#728,10.);
#197=VECTOR('',#733,10.);
#198=VECTOR('',#742,2.5);
#199=VECTOR('',#743,2.5);
#200=VECTOR('',#746,10.);
#201=VECTOR('',#747,10.);
#202=VECTOR('',#752,10.);
#203=VECTOR('',#755,10.);
#204=VECTOR('',#756,10.);
#205=VECTOR('',#759,10.);
#206=VECTOR('',#760,10.);
#207=VECTOR('',#761,10.);
#208=VECTOR('',#762,10.);
#209=VECTOR('',#763,10.);
#210=VECTOR('',#764,10.);
#211=VECTOR('',#765,10.);
#212=VECTOR('',#766,10.);
#213=VECTOR('',#767,10.);
#214=VECTOR('',#770,10.);
#215=VECTOR('',#771,10.);
#216=VECTOR('',#772,10.);
#217=VECTOR('',#773,10.);
#218=VECTOR('',#776,10.);
#219=VECTOR('',#777,10.);
#220=VECTOR('',#778,10.);
#221=VECTOR('',#781,10.);
#222=VECTOR('',#782,10.);
#223=VECTOR('',#785,10.);
#224=VECTOR('',#786,10.);
#225=VECTOR('',#787,10.);
#226=VECTOR('',#788,10.);
#227=VECTOR('',#791,10.);
#228=VECTOR('',#792,10.);
#229=VECTOR('',#793,10.);
#230=VECTOR('',#796,10.);
#231=VECTOR('',#797,10.);
#232=VECTOR('',#800,10.);
#233=VECTOR('',#801,10.);
#234=VECTOR('',#804,10.);
#235=VECTOR('',#805,10.);
#236=VECTOR('',#808,10.);
#237=VECTOR('',#809,10.);
#238=VECTOR('',#810,10.);
#239=VECTOR('',#811,10.);
#240=VECTOR('',#812,10.);
#241=VECTOR('',#815,10.);
#242=VECTOR('',#816,10.);
#243=VECTOR('',#817,10.);
#244=VECTOR('',#818,10.);
#245=VECTOR('',#819,10.);
#246=VECTOR('',#820,10.);
#247=VECTOR('',#821,10.);
#248=VECTOR('',#824,10.);
#249=VECTOR('',#825,10.);
#250=VECTOR('',#830,10.);
#251=VECTOR('',#831,10.);
#252=VECTOR('',#836,10.);
#253=VECTOR('',#837,10.);
#254=VECTOR('',#838,10.);
#255=VECTOR('',#839,10.);
#256=VECTOR('',#840,10.);
#257=VECTOR('',#841,10.);
#258=VECTOR('',#842,10.);
#259=VECTOR('',#845,10.);
#260=VECTOR('',#848,10.);
#261=VECTOR('',#851,10.);
#262=VECTOR('',#852,10.);
#263=VECTOR('',#855,1.00000000000001);
#264=VECTOR('',#858,1.00000000000001);
#265=VECTOR('',#863,10.);
#266=VECTOR('',#864,10.);
#267=VECTOR('',#867,10.);
#268=VECTOR('',#872,10.);
#269=CIRCLE('',#664,2.5);
#270=CIRCLE('',#665,2.5);
#271=CIRCLE('',#667,3.);
#272=CIRCLE('',#668,3.);
#273=CIRCLE('',#670,2.5);
#274=CIRCLE('',#671,3.);
#275=CIRCLE('',#672,1.00000000000001);
#276=CIRCLE('',#673,1.00000000000001);
#277=CIRCLE('',#675,2.5);
#278=CIRCLE('',#678,3.);
#279=CIRCLE('',#692,1.00000000000001);
#280=CIRCLE('',#694,1.00000000000001);
#281=VERTEX_POINT('',#877);
#282=VERTEX_POINT('',#878);
#283=VERTEX_POINT('',#880);
#284=VERTEX_POINT('',#882);
#285=VERTEX_POINT('',#886);
#286=VERTEX_POINT('',#888);
#287=VERTEX_POINT('',#892);
#288=VERTEX_POINT('',#894);
#289=VERTEX_POINT('',#896);
#290=VERTEX_POINT('',#898);
#291=VERTEX_POINT('',#900);
#292=VERTEX_POINT('',#903);
#293=VERTEX_POINT('',#905);
#294=VERTEX_POINT('',#908);
#295=VERTEX_POINT('',#909);
#296=VERTEX_POINT('',#914);
#297=VERTEX_POINT('',#918);
#298=VERTEX_POINT('',#922);
#299=VERTEX_POINT('',#926);
#300=VERTEX_POINT('',#927);
#301=VERTEX_POINT('',#929);
#302=VERTEX_POINT('',#931);
#303=VERTEX_POINT('',#933);
#304=VERTEX_POINT('',#935);
#305=VERTEX_POINT('',#937);
#306=VERTEX_POINT('',#939);
#307=VERTEX_POINT('',#944);
#308=VERTEX_POINT('',#945);
#309=VERTEX_POINT('',#947);
#310=VERTEX_POINT('',#949);
#311=VERTEX_POINT('',#953);
#312=VERTEX_POINT('',#955);
#313=VERTEX_POINT('',#959);
#314=VERTEX_POINT('',#963);
#315=VERTEX_POINT('',#964);
#316=VERTEX_POINT('',#966);
#317=VERTEX_POINT('',#968);
#318=VERTEX_POINT('',#972);
#319=VERTEX_POINT('',#974);
#320=VERTEX_POINT('',#978);
#321=VERTEX_POINT('',#982);
#322=VERTEX_POINT('',#986);
#323=VERTEX_POINT('',#991);
#324=VERTEX_POINT('',#993);
#325=VERTEX_POINT('',#998);
#326=VERTEX_POINT('',#999);
#327=VERTEX_POINT('',#1001);
#328=VERTEX_POINT('',#1003);
#329=VERTEX_POINT('',#1006);
#330=VERTEX_POINT('',#1008);
#331=VERTEX_POINT('',#1012);
#332=VERTEX_POINT('',#1015);
#333=VERTEX_POINT('',#1018);
#334=VERTEX_POINT('',#1021);
#335=VERTEX_POINT('',#1024);
#336=VERTEX_POINT('',#1026);
#337=VERTEX_POINT('',#1028);
#338=VERTEX_POINT('',#1030);
#339=VERTEX_POINT('',#1032);
#340=VERTEX_POINT('',#1034);
#341=EDGE_CURVE('',#281,#282,#269,.T.);
#342=EDGE_CURVE('',#282,#283,#113,.T.);
#343=EDGE_CURVE('',#283,#284,#270,.T.);
#344=EDGE_CURVE('',#284,#281,#114,.T.);
#345=EDGE_CURVE('',#282,#285,#271,.T.);
#346=EDGE_CURVE('',#285,#286,#115,.T.);
#347=EDGE_CURVE('',#286,#283,#272,.T.);
#348=EDGE_CURVE('',#281,#287,#116,.T.);
#349=EDGE_CURVE('',#288,#287,#117,.T.);
#350=EDGE_CURVE('',#289,#288,#118,.T.);
#351=EDGE_CURVE('',#290,#289,#273,.T.);
#352=EDGE_CURVE('',#291,#290,#274,.T.);
#353=EDGE_CURVE('',#291,#285,#119,.T.);
#354=EDGE_CURVE('',#292,#292,#275,.T.);
#355=EDGE_CURVE('',#293,#293,#276,.T.);
#356=EDGE_CURVE('',#294,#295,#277,.T.);
#357=EDGE_CURVE('',#295,#290,#120,.T.);
#358=EDGE_CURVE('',#289,#294,#121,.T.);
#359=EDGE_CURVE('',#296,#288,#122,.T.);
#360=EDGE_CURVE('',#296,#294,#123,.T.);
#361=EDGE_CURVE('',#295,#297,#278,.T.);
#362=EDGE_CURVE('',#297,#291,#124,.T.);
#363=EDGE_CURVE('',#284,#298,#125,.T.);
#364=EDGE_CURVE('',#287,#298,#126,.T.);
#365=EDGE_CURVE('',#299,#300,#127,.T.);
#366=EDGE_CURVE('',#301,#299,#128,.T.);
#367=EDGE_CURVE('',#302,#301,#129,.T.);
#368=EDGE_CURVE('',#303,#302,#130,.T.);
#369=EDGE_CURVE('',#304,#303,#131,.T.);
#370=EDGE_CURVE('',#305,#304,#132,.T.);
#371=EDGE_CURVE('',#306,#305,#133,.T.);
#372=EDGE_CURVE('',#286,#306,#134,.T.);
#373=EDGE_CURVE('',#300,#297,#135,.T.);
#374=EDGE_CURVE('',#307,#308,#136,.T.);
#375=EDGE_CURVE('',#309,#308,#137,.T.);
#376=EDGE_CURVE('',#310,#309,#138,.T.);
#377=EDGE_CURVE('',#307,#310,#139,.T.);
#378=EDGE_CURVE('',#310,#311,#140,.T.);
#379=EDGE_CURVE('',#311,#312,#141,.T.);
#380=EDGE_CURVE('',#307,#312,#142,.T.);
#381=EDGE_CURVE('',#313,#309,#143,.T.);
#382=EDGE_CURVE('',#313,#311,#144,.T.);
#383=EDGE_CURVE('',#314,#315,#145,.T.);
#384=EDGE_CURVE('',#316,#315,#146,.T.);
#385=EDGE_CURVE('',#317,#316,#147,.T.);
#386=EDGE_CURVE('',#314,#317,#148,.T.);
#387=EDGE_CURVE('',#318,#316,#149,.T.);
#388=EDGE_CURVE('',#318,#319,#150,.T.);
#389=EDGE_CURVE('',#317,#319,#151,.T.);
#390=EDGE_CURVE('',#320,#315,#152,.T.);
#391=EDGE_CURVE('',#320,#318,#153,.T.);
#392=EDGE_CURVE('',#312,#321,#154,.T.);
#393=EDGE_CURVE('',#321,#313,#155,.T.);
#394=EDGE_CURVE('',#322,#320,#156,.T.);
#395=EDGE_CURVE('',#319,#322,#157,.T.);
#396=EDGE_CURVE('',#302,#308,#158,.T.);
#397=EDGE_CURVE('',#321,#323,#159,.T.);
#398=EDGE_CURVE('',#324,#323,#160,.T.);
#399=EDGE_CURVE('',#322,#324,#161,.T.);
#400=EDGE_CURVE('',#303,#314,#162,.T.);
#401=EDGE_CURVE('',#325,#326,#163,.T.);
#402=EDGE_CURVE('',#326,#327,#164,.T.);
#403=EDGE_CURVE('',#327,#328,#165,.T.);
#404=EDGE_CURVE('',#328,#324,#166,.T.);
#405=EDGE_CURVE('',#323,#329,#167,.T.);
#406=EDGE_CURVE('',#329,#330,#168,.T.);
#407=EDGE_CURVE('',#330,#325,#169,.T.);
#408=EDGE_CURVE('',#331,#296,#170,.T.);
#409=EDGE_CURVE('',#300,#331,#171,.T.);
#410=EDGE_CURVE('',#332,#332,#279,.T.);
#411=EDGE_CURVE('',#333,#306,#172,.T.);
#412=EDGE_CURVE('',#298,#333,#173,.T.);
#413=EDGE_CURVE('',#334,#334,#280,.T.);
#414=EDGE_CURVE('',#335,#331,#174,.T.);
#415=EDGE_CURVE('',#333,#336,#175,.T.);
#416=EDGE_CURVE('',#336,#337,#176,.T.);
#417=EDGE_CURVE('',#337,#338,#177,.T.);
#418=EDGE_CURVE('',#338,#339,#178,.T.);
#419=EDGE_CURVE('',#339,#340,#179,.T.);
#420=EDGE_CURVE('',#340,#335,#180,.T.);
#421=EDGE_CURVE('',#301,#329,#181,.T.);
#422=EDGE_CURVE('',#304,#328,#182,.T.);
#423=EDGE_CURVE('',#337,#327,#183,.T.);
#424=EDGE_CURVE('',#305,#336,#184,.T.);
#425=EDGE_CURVE('',#293,#334,#185,.T.);
#426=EDGE_CURVE('',#292,#332,#186,.T.);
#427=EDGE_CURVE('',#340,#330,#187,.T.);
#428=EDGE_CURVE('',#339,#325,#188,.T.);
#429=EDGE_CURVE('',#338,#326,#189,.T.);
#430=EDGE_CURVE('',#299,#335,#190,.T.);
#431=ORIENTED_EDGE('',*,*,#341,.T.);
#432=ORIENTED_EDGE('',*,*,#342,.T.);
#433=ORIENTED_EDGE('',*,*,#343,.T.);
#434=ORIENTED_EDGE('',*,*,#344,.T.);
#435=ORIENTED_EDGE('',*,*,#342,.F.);
#436=ORIENTED_EDGE('',*,*,#345,.T.);
#437=ORIENTED_EDGE('',*,*,#346,.T.);
#438=ORIENTED_EDGE('',*,*,#347,.T.);
#439=ORIENTED_EDGE('',*,*,#341,.F.);
#440=ORIENTED_EDGE('',*,*,#348,.T.);
#441=ORIENTED_EDGE('',*,*,#349,.F.);
#442=ORIENTED_EDGE('',*,*,#350,.F.);
#443=ORIENTED_EDGE('',*,*,#351,.F.);
#444=ORIENTED_EDGE('',*,*,#352,.F.);
#445=ORIENTED_EDGE('',*,*,#353,.T.);
#446=ORIENTED_EDGE('',*,*,#345,.F.);
#447=ORIENTED_EDGE('',*,*,#354,.T.);
#448=ORIENTED_EDGE('',*,*,#355,.T.);
#449=ORIENTED_EDGE('',*,*,#356,.T.);
#450=ORIENTED_EDGE('',*,*,#357,.T.);
#451=ORIENTED_EDGE('',*,*,#351,.T.);
#452=ORIENTED_EDGE('',*,*,#358,.T.);
#453=ORIENTED_EDGE('',*,*,#358,.F.);
#454=ORIENTED_EDGE('',*,*,#350,.T.);
#455=ORIENTED_EDGE('',*,*,#359,.F.);
#456=ORIENTED_EDGE('',*,*,#360,.T.);
#457=ORIENTED_EDGE('',*,*,#357,.F.);
#458=ORIENTED_EDGE('',*,*,#361,.T.);
#459=ORIENTED_EDGE('',*,*,#362,.T.);
#460=ORIENTED_EDGE('',*,*,#352,.T.);
#461=ORIENTED_EDGE('',*,*,#344,.F.);
#462=ORIENTED_EDGE('',*,*,#363,.T.);
#463=ORIENTED_EDGE('',*,*,#364,.F.);
#464=ORIENTED_EDGE('',*,*,#348,.F.);
#465=ORIENTED_EDGE('',*,*,#365,.F.);
#466=ORIENTED_EDGE('',*,*,#366,.F.);
#467=ORIENTED_EDGE('',*,*,#367,.F.);
#468=ORIENTED_EDGE('',*,*,#368,.F.);
#469=ORIENTED_EDGE('',*,*,#369,.F.);
#470=ORIENTED_EDGE('',*,*,#370,.F.);
#471=ORIENTED_EDGE('',*,*,#371,.F.);
#472=ORIENTED_EDGE('',*,*,#372,.F.);
#473=ORIENTED_EDGE('',*,*,#346,.F.);
#474=ORIENTED_EDGE('',*,*,#353,.F.);
#475=ORIENTED_EDGE('',*,*,#362,.F.);
#476=ORIENTED_EDGE('',*,*,#373,.F.);
#477=ORIENTED_EDGE('',*,*,#374,.T.);
#478=ORIENTED_EDGE('',*,*,#375,.F.);
#479=ORIENTED_EDGE('',*,*,#376,.F.);
#480=ORIENTED_EDGE('',*,*,#377,.F.);
#481=ORIENTED_EDGE('',*,*,#377,.T.);
#482=ORIENTED_EDGE('',*,*,#378,.T.);
#483=ORIENTED_EDGE('',*,*,#379,.T.);
#484=ORIENTED_EDGE('',*,*,#380,.F.);
#485=ORIENTED_EDGE('',*,*,#376,.T.);
#486=ORIENTED_EDGE('',*,*,#381,.F.);
#487=ORIENTED_EDGE('',*,*,#382,.T.);
#488=ORIENTED_EDGE('',*,*,#378,.F.);
#489=ORIENTED_EDGE('',*,*,#383,.T.);
#490=ORIENTED_EDGE('',*,*,#384,.F.);
#491=ORIENTED_EDGE('',*,*,#385,.F.);
#492=ORIENTED_EDGE('',*,*,#386,.F.);
#493=ORIENTED_EDGE('',*,*,#385,.T.);
#494=ORIENTED_EDGE('',*,*,#387,.F.);
#495=ORIENTED_EDGE('',*,*,#388,.T.);
#496=ORIENTED_EDGE('',*,*,#389,.F.);
#497=ORIENTED_EDGE('',*,*,#384,.T.);
#498=ORIENTED_EDGE('',*,*,#390,.F.);
#499=ORIENTED_EDGE('',*,*,#391,.T.);
#500=ORIENTED_EDGE('',*,*,#387,.T.);
#501=ORIENTED_EDGE('',*,*,#392,.F.);
#502=ORIENTED_EDGE('',*,*,#379,.F.);
#503=ORIENTED_EDGE('',*,*,#382,.F.);
#504=ORIENTED_EDGE('',*,*,#393,.F.);
#505=ORIENTED_EDGE('',*,*,#394,.F.);
#506=ORIENTED_EDGE('',*,*,#395,.F.);
#507=ORIENTED_EDGE('',*,*,#388,.F.);
#508=ORIENTED_EDGE('',*,*,#391,.F.);
#509=ORIENTED_EDGE('',*,*,#368,.T.);
#510=ORIENTED_EDGE('',*,*,#396,.T.);
#511=ORIENTED_EDGE('',*,*,#374,.F.);
#512=ORIENTED_EDGE('',*,*,#380,.T.);
#513=ORIENTED_EDGE('',*,*,#392,.T.);
#514=ORIENTED_EDGE('',*,*,#397,.T.);
#515=ORIENTED_EDGE('',*,*,#398,.F.);
#516=ORIENTED_EDGE('',*,*,#399,.F.);
#517=ORIENTED_EDGE('',*,*,#394,.T.);
#518=ORIENTED_EDGE('',*,*,#390,.T.);
#519=ORIENTED_EDGE('',*,*,#383,.F.);
#520=ORIENTED_EDGE('',*,*,#400,.F.);
#521=ORIENTED_EDGE('',*,*,#401,.T.);
#522=ORIENTED_EDGE('',*,*,#402,.T.);
#523=ORIENTED_EDGE('',*,*,#403,.T.);
#524=ORIENTED_EDGE('',*,*,#404,.T.);
#525=ORIENTED_EDGE('',*,*,#398,.T.);
#526=ORIENTED_EDGE('',*,*,#405,.T.);
#527=ORIENTED_EDGE('',*,*,#406,.T.);
#528=ORIENTED_EDGE('',*,*,#407,.T.);
#529=ORIENTED_EDGE('',*,*,#356,.F.);
#530=ORIENTED_EDGE('',*,*,#360,.F.);
#531=ORIENTED_EDGE('',*,*,#408,.F.);
#532=ORIENTED_EDGE('',*,*,#409,.F.);
#533=ORIENTED_EDGE('',*,*,#373,.T.);
#534=ORIENTED_EDGE('',*,*,#361,.F.);
#535=ORIENTED_EDGE('',*,*,#410,.F.);
#536=ORIENTED_EDGE('',*,*,#343,.F.);
#537=ORIENTED_EDGE('',*,*,#347,.F.);
#538=ORIENTED_EDGE('',*,*,#372,.T.);
#539=ORIENTED_EDGE('',*,*,#411,.F.);
#540=ORIENTED_EDGE('',*,*,#412,.F.);
#541=ORIENTED_EDGE('',*,*,#363,.F.);
#542=ORIENTED_EDGE('',*,*,#413,.F.);
#543=ORIENTED_EDGE('',*,*,#414,.T.);
#544=ORIENTED_EDGE('',*,*,#408,.T.);
#545=ORIENTED_EDGE('',*,*,#359,.T.);
#546=ORIENTED_EDGE('',*,*,#349,.T.);
#547=ORIENTED_EDGE('',*,*,#364,.T.);
#548=ORIENTED_EDGE('',*,*,#412,.T.);
#549=ORIENTED_EDGE('',*,*,#415,.T.);
#550=ORIENTED_EDGE('',*,*,#416,.T.);
#551=ORIENTED_EDGE('',*,*,#417,.T.);
#552=ORIENTED_EDGE('',*,*,#418,.T.);
#553=ORIENTED_EDGE('',*,*,#419,.T.);
#554=ORIENTED_EDGE('',*,*,#420,.T.);
#555=ORIENTED_EDGE('',*,*,#367,.T.);
#556=ORIENTED_EDGE('',*,*,#421,.T.);
#557=ORIENTED_EDGE('',*,*,#405,.F.);
#558=ORIENTED_EDGE('',*,*,#397,.F.);
#559=ORIENTED_EDGE('',*,*,#393,.T.);
#560=ORIENTED_EDGE('',*,*,#381,.T.);
#561=ORIENTED_EDGE('',*,*,#375,.T.);
#562=ORIENTED_EDGE('',*,*,#396,.F.);
#563=ORIENTED_EDGE('',*,*,#369,.T.);
#564=ORIENTED_EDGE('',*,*,#400,.T.);
#565=ORIENTED_EDGE('',*,*,#386,.T.);
#566=ORIENTED_EDGE('',*,*,#389,.T.);
#567=ORIENTED_EDGE('',*,*,#395,.T.);
#568=ORIENTED_EDGE('',*,*,#399,.T.);
#569=ORIENTED_EDGE('',*,*,#404,.F.);
#570=ORIENTED_EDGE('',*,*,#422,.F.);
#571=ORIENTED_EDGE('',*,*,#370,.T.);
#572=ORIENTED_EDGE('',*,*,#422,.T.);
#573=ORIENTED_EDGE('',*,*,#403,.F.);
#574=ORIENTED_EDGE('',*,*,#423,.F.);
#575=ORIENTED_EDGE('',*,*,#416,.F.);
#576=ORIENTED_EDGE('',*,*,#424,.F.);
#577=ORIENTED_EDGE('',*,*,#355,.F.);
#578=ORIENTED_EDGE('',*,*,#425,.T.);
#579=ORIENTED_EDGE('',*,*,#413,.T.);
#580=ORIENTED_EDGE('',*,*,#425,.F.);
#581=ORIENTED_EDGE('',*,*,#354,.F.);
#582=ORIENTED_EDGE('',*,*,#426,.T.);
#583=ORIENTED_EDGE('',*,*,#410,.T.);
#584=ORIENTED_EDGE('',*,*,#426,.F.);
#585=ORIENTED_EDGE('',*,*,#371,.T.);
#586=ORIENTED_EDGE('',*,*,#424,.T.);
#587=ORIENTED_EDGE('',*,*,#415,.F.);
#588=ORIENTED_EDGE('',*,*,#411,.T.);
#589=ORIENTED_EDGE('',*,*,#427,.F.);
#590=ORIENTED_EDGE('',*,*,#419,.F.);
#591=ORIENTED_EDGE('',*,*,#428,.T.);
#592=ORIENTED_EDGE('',*,*,#407,.F.);
#593=ORIENTED_EDGE('',*,*,#428,.F.);
#594=ORIENTED_EDGE('',*,*,#418,.F.);
#595=ORIENTED_EDGE('',*,*,#429,.T.);
#596=ORIENTED_EDGE('',*,*,#401,.F.);
#597=ORIENTED_EDGE('',*,*,#429,.F.);
#598=ORIENTED_EDGE('',*,*,#417,.F.);
#599=ORIENTED_EDGE('',*,*,#423,.T.);
#600=ORIENTED_EDGE('',*,*,#402,.F.);
#601=ORIENTED_EDGE('',*,*,#365,.T.);
#602=ORIENTED_EDGE('',*,*,#409,.T.);
#603=ORIENTED_EDGE('',*,*,#414,.F.);
#604=ORIENTED_EDGE('',*,*,#430,.F.);
#605=ORIENTED_EDGE('',*,*,#366,.T.);
#606=ORIENTED_EDGE('',*,*,#430,.T.);
#607=ORIENTED_EDGE('',*,*,#420,.F.);
#608=ORIENTED_EDGE('',*,*,#427,.T.);
#609=ORIENTED_EDGE('',*,*,#406,.F.);
#610=ORIENTED_EDGE('',*,*,#421,.F.);
#611=CYLINDRICAL_SURFACE('',#663,2.5);
#612=CYLINDRICAL_SURFACE('',#666,3.);
#613=CYLINDRICAL_SURFACE('',#674,2.5);
#614=CYLINDRICAL_SURFACE('',#677,3.);
#615=CYLINDRICAL_SURFACE('',#699,1.00000000000001);
#616=CYLINDRICAL_SURFACE('',#700,1.00000000000001);
#617=ADVANCED_FACE('',(#45),#611,.T.);
#618=ADVANCED_FACE('',(#46),#612,.T.);
#619=ADVANCED_FACE('',(#47,#15,#16),#19,.T.);
#620=ADVANCED_FACE('',(#48),#613,.T.);
#621=ADVANCED_FACE('',(#49),#20,.T.);
#622=ADVANCED_FACE('',(#50),#614,.T.);
#623=ADVANCED_FACE('',(#51),#21,.T.);
#624=ADVANCED_FACE('',(#52),#22,.F.);
#625=ADVANCED_FACE('',(#53),#23,.T.);
#626=ADVANCED_FACE('',(#54),#24,.F.);
#627=ADVANCED_FACE('',(#55),#25,.F.);
#628=ADVANCED_FACE('',(#56),#26,.T.);
#629=ADVANCED_FACE('',(#57),#27,.F.);
#630=ADVANCED_FACE('',(#58),#28,.F.);
#631=ADVANCED_FACE('',(#59),#29,.F.);
#632=ADVANCED_FACE('',(#60),#30,.F.);
#633=ADVANCED_FACE('',(#61),#31,.T.);
#634=ADVANCED_FACE('',(#62),#32,.T.);
#635=ADVANCED_FACE('',(#63,#17),#33,.T.);
#636=ADVANCED_FACE('',(#64,#18),#34,.T.);
#637=ADVANCED_FACE('',(#65),#35,.T.);
#638=ADVANCED_FACE('',(#66),#36,.T.);
#639=ADVANCED_FACE('',(#67),#37,.T.);
#640=ADVANCED_FACE('',(#68),#38,.T.);
#641=ADVANCED_FACE('',(#69),#615,.F.);
#642=ADVANCED_FACE('',(#70),#616,.F.);
#643=ADVANCED_FACE('',(#71),#39,.T.);
#644=ADVANCED_FACE('',(#72),#40,.T.);
#645=ADVANCED_FACE('',(#73),#41,.T.);
#646=ADVANCED_FACE('',(#74),#42,.T.);
#647=ADVANCED_FACE('',(#75),#43,.T.);
#648=ADVANCED_FACE('',(#76),#44,.T.);
#649=CLOSED_SHELL('',(#617,#618,#619,#620,#621,#622,#623,#624,#625,#626,
#627,#628,#629,#630,#631,#632,#633,#634,#635,#636,#637,#638,#639,#640,#641,
#642,#643,#644,#645,#646,#647,#648));
#650=DERIVED_UNIT_ELEMENT(#652,1.);
#651=DERIVED_UNIT_ELEMENT(#1063,-3.);
#652=(
MASS_UNIT()
NAMED_UNIT(*)
SI_UNIT(.KILO.,.GRAM.)
);
#653=DERIVED_UNIT((#650,#651));
#654=MEASURE_REPRESENTATION_ITEM('density measure',
POSITIVE_RATIO_MEASURE(7850.),#653);
#655=PROPERTY_DEFINITION_REPRESENTATION(#660,#657);
#656=PROPERTY_DEFINITION_REPRESENTATION(#661,#658);
#657=REPRESENTATION('material name',(#659),#1060);
#658=REPRESENTATION('density',(#654),#1060);
#659=DESCRIPTIVE_REPRESENTATION_ITEM('Steel','Steel');
#660=PROPERTY_DEFINITION('material property','material name',#1070);
#661=PROPERTY_DEFINITION('material property','density of part',#1070);
#662=AXIS2_PLACEMENT_3D('',#875,#707,#708);
#663=AXIS2_PLACEMENT_3D('',#876,#709,#710);
#664=AXIS2_PLACEMENT_3D('',#879,#711,#712);
#665=AXIS2_PLACEMENT_3D('',#883,#714,#715);
#666=AXIS2_PLACEMENT_3D('',#885,#717,#718);
#667=AXIS2_PLACEMENT_3D('',#887,#719,#720);
#668=AXIS2_PLACEMENT_3D('',#890,#722,#723);
#669=AXIS2_PLACEMENT_3D('',#891,#724,#725);
#670=AXIS2_PLACEMENT_3D('',#899,#729,#730);
#671=AXIS2_PLACEMENT_3D('',#901,#731,#732);
#672=AXIS2_PLACEMENT_3D('',#904,#734,#735);
#673=AXIS2_PLACEMENT_3D('',#906,#736,#737);
#674=AXIS2_PLACEMENT_3D('',#907,#738,#739);
#675=AXIS2_PLACEMENT_3D('',#910,#740,#741);
#676=AXIS2_PLACEMENT_3D('',#913,#744,#745);
#677=AXIS2_PLACEMENT_3D('',#917,#748,#749);
#678=AXIS2_PLACEMENT_3D('',#919,#750,#751);
#679=AXIS2_PLACEMENT_3D('',#921,#753,#754);
#680=AXIS2_PLACEMENT_3D('',#925,#757,#758);
#681=AXIS2_PLACEMENT_3D('',#943,#768,#769);
#682=AXIS2_PLACEMENT_3D('',#952,#774,#775);
#683=AXIS2_PLACEMENT_3D('',#958,#779,#780);
#684=AXIS2_PLACEMENT_3D('',#962,#783,#784);
#685=AXIS2_PLACEMENT_3D('',#971,#789,#790);
#686=AXIS2_PLACEMENT_3D('',#977,#794,#795);
#687=AXIS2_PLACEMENT_3D('',#981,#798,#799);
#688=AXIS2_PLACEMENT_3D('',#985,#802,#803);
#689=AXIS2_PLACEMENT_3D('',#989,#806,#807);
#690=AXIS2_PLACEMENT_3D('',#997,#813,#814);
#691=AXIS2_PLACEMENT_3D('',#1011,#822,#823);
#692=AXIS2_PLACEMENT_3D('',#1016,#826,#827);
#693=AXIS2_PLACEMENT_3D('',#1017,#828,#829);
#694=AXIS2_PLACEMENT_3D('',#1022,#832,#833);
#695=AXIS2_PLACEMENT_3D('',#1023,#834,#835);
#696=AXIS2_PLACEMENT_3D('',#1037,#843,#844);
#697=AXIS2_PLACEMENT_3D('',#1039,#846,#847);
#698=AXIS2_PLACEMENT_3D('',#1041,#849,#850);
#699=AXIS2_PLACEMENT_3D('',#1044,#853,#854);
#700=AXIS2_PLACEMENT_3D('',#1046,#856,#857);
#701=AXIS2_PLACEMENT_3D('',#1048,#859,#860);
#702=AXIS2_PLACEMENT_3D('',#1049,#861,#862);
#703=AXIS2_PLACEMENT_3D('',#1052,#865,#866);
#704=AXIS2_PLACEMENT_3D('',#1054,#868,#869);
#705=AXIS2_PLACEMENT_3D('',#1055,#870,#871);
#706=AXIS2_PLACEMENT_3D('',#1057,#873,#874);
#707=DIRECTION('axis',(0.,0.,1.));
#708=DIRECTION('refdir',(1.,0.,0.));
#709=DIRECTION('center_axis',(0.,-1.,0.));
#710=DIRECTION('ref_axis',(1.,0.,0.));
#711=DIRECTION('center_axis',(0.,-1.,0.));
#712=DIRECTION('ref_axis',(1.,0.,0.));
#713=DIRECTION('',(0.,-1.,0.));
#714=DIRECTION('center_axis',(0.,1.,0.));
#715=DIRECTION('ref_axis',(1.,0.,0.));
#716=DIRECTION('',(0.,1.,0.));
#717=DIRECTION('center_axis',(0.,1.,0.));
#718=DIRECTION('ref_axis',(0.986013297183269,0.,-0.166666666666667));
#719=DIRECTION('center_axis',(0.,-1.,0.));
#720=DIRECTION('ref_axis',(0.986013297183269,0.,-0.166666666666667));
#721=DIRECTION('',(0.,-1.,0.));
#722=DIRECTION('center_axis',(0.,1.,0.));
#723=DIRECTION('ref_axis',(0.986013297183269,0.,-0.166666666666667));
#724=DIRECTION('center_axis',(0.,1.,0.));
#725=DIRECTION('ref_axis',(-1.,0.,0.));
#726=DIRECTION('',(0.,0.,1.));
#727=DIRECTION('',(-1.,0.,0.));
#728=DIRECTION('',(0.,0.,1.));
#729=DIRECTION('center_axis',(0.,-1.,0.));
#730=DIRECTION('ref_axis',(-1.,0.,0.));
#731=DIRECTION('center_axis',(0.,-1.,0.));
#732=DIRECTION('ref_axis',(-0.986013297183269,0.,-0.166666666666667));
#733=DIRECTION('',(-1.,0.,0.));
#734=DIRECTION('center_axis',(0.,-1.,0.));
#735=DIRECTION('ref_axis',(-1.,0.,0.));
#736=DIRECTION('center_axis',(0.,-1.,0.));
#737=DIRECTION('ref_axis',(-1.,0.,0.));
#738=DIRECTION('center_axis',(0.,1.,0.));
#739=DIRECTION('ref_axis',(-1.,0.,0.));
#740=DIRECTION('center_axis',(0.,1.,0.));
#741=DIRECTION('ref_axis',(-1.,0.,0.));
#742=DIRECTION('',(0.,1.,0.));
#743=DIRECTION('',(0.,-1.,0.));
#744=DIRECTION('center_axis',(1.,0.,0.));
#745=DIRECTION('ref_axis',(0.,1.,0.));
#746=DIRECTION('',(0.,1.,0.));
#747=DIRECTION('',(0.,0.,-1.));
#748=DIRECTION('center_axis',(0.,-1.,0.));
#749=DIRECTION('ref_axis',(-0.986013297183269,0.,-0.166666666666667));
#750=DIRECTION('center_axis',(0.,1.,0.));
#751=DIRECTION('ref_axis',(-0.986013297183269,0.,-0.166666666666667));
#752=DIRECTION('',(0.,1.,0.));
#753=DIRECTION('center_axis',(-1.,0.,0.));
#754=DIRECTION('ref_axis',(0.,-1.,0.));
#755=DIRECTION('',(0.,0.,1.));
#756=DIRECTION('',(0.,-1.,0.));
#757=DIRECTION('center_axis',(0.,0.,1.));
#758=DIRECTION('ref_axis',(1.,0.,0.));
#759=DIRECTION('',(0.,1.,0.));
#760=DIRECTION('',(1.,0.,0.));
#761=DIRECTION('',(0.,-1.,0.));
#762=DIRECTION('',(1.,0.,0.));
#763=DIRECTION('',(0.,1.,0.));
#764=DIRECTION('',(1.,0.,0.));
#765=DIRECTION('',(0.,-1.,0.));
#766=DIRECTION('',(-1.,0.,0.));
#767=DIRECTION('',(-1.,0.,0.));
#768=DIRECTION('center_axis',(0.,0.,1.));
#769=DIRECTION('ref_axis',(1.,0.,0.));
#770=DIRECTION('',(1.,0.,0.));
#771=DIRECTION('',(0.,-1.,0.));
#772=DIRECTION('',(1.,0.,0.));
#773=DIRECTION('',(0.,1.,0.));
#774=DIRECTION('center_axis',(-1.,0.,0.));
#775=DIRECTION('ref_axis',(0.,0.,1.));
#776=DIRECTION('',(0.,0.,1.));
#777=DIRECTION('',(0.,-1.,0.));
#778=DIRECTION('',(0.,0.,1.));
#779=DIRECTION('center_axis',(0.,1.,0.));
#780=DIRECTION('ref_axis',(0.,0.,1.));
#781=DIRECTION('',(0.,0.,-1.));
#782=DIRECTION('',(-1.,0.,0.));
#783=DIRECTION('center_axis',(0.,0.,1.));
#784=DIRECTION('ref_axis',(1.,0.,0.));
#785=DIRECTION('',(1.,0.,0.));
#786=DIRECTION('',(0.,-1.,0.));
#787=DIRECTION('',(1.,0.,0.));
#788=DIRECTION('',(0.,1.,0.));
#789=DIRECTION('center_axis',(0.,1.,0.));
#790=DIRECTION('ref_axis',(0.,0.,1.));
#791=DIRECTION('',(0.,0.,-1.));
#792=DIRECTION('',(-1.,0.,0.));
#793=DIRECTION('',(0.,0.,1.));
#794=DIRECTION('center_axis',(1.,0.,0.));
#795=DIRECTION('ref_axis',(0.,0.,-1.));
#796=DIRECTION('',(0.,0.,-1.));
#797=DIRECTION('',(0.,1.,0.));
#798=DIRECTION('center_axis',(0.,0.,1.));
#799=DIRECTION('ref_axis',(1.,0.,0.));
#800=DIRECTION('',(1.,0.,0.));
#801=DIRECTION('',(0.,1.,0.));
#802=DIRECTION('center_axis',(0.,0.,1.));
#803=DIRECTION('ref_axis',(1.,0.,0.));
#804=DIRECTION('',(1.,0.,0.));
#805=DIRECTION('',(0.,-1.,0.));
#806=DIRECTION('center_axis',(0.,-1.,0.));
#807=DIRECTION('ref_axis',(1.,0.,0.));
#808=DIRECTION('',(0.,0.,1.));
#809=DIRECTION('',(0.,0.,1.));
#810=DIRECTION('',(1.,0.,0.));
#811=DIRECTION('',(0.,0.,1.));
#812=DIRECTION('',(0.,0.,1.));
#813=DIRECTION('center_axis',(0.,0.,1.));
#814=DIRECTION('ref_axis',(1.,0.,0.));
#815=DIRECTION('',(-1.,0.,0.));
#816=DIRECTION('',(0.,-1.,0.));
#817=DIRECTION('',(1.,0.,0.));
#818=DIRECTION('',(0.,1.,0.));
#819=DIRECTION('',(0.,-1.,0.));
#820=DIRECTION('',(1.,0.,0.));
#821=DIRECTION('',(0.,1.,0.));
#822=DIRECTION('center_axis',(0.,-1.,0.));
#823=DIRECTION('ref_axis',(1.,0.,0.));
#824=DIRECTION('',(1.,0.,0.));
#825=DIRECTION('',(0.,0.,1.));
#826=DIRECTION('center_axis',(0.,-1.,0.));
#827=DIRECTION('ref_axis',(-1.,0.,0.));
#828=DIRECTION('center_axis',(0.,-1.,0.));
#829=DIRECTION('ref_axis',(1.,0.,0.));
#830=DIRECTION('',(0.,0.,-1.));
#831=DIRECTION('',(1.,0.,0.));
#832=DIRECTION('center_axis',(0.,-1.,0.));
#833=DIRECTION('ref_axis',(-1.,0.,0.));
#834=DIRECTION('center_axis',(0.,0.,1.));
#835=DIRECTION('ref_axis',(1.,0.,0.));
#836=DIRECTION('',(0.,1.,0.));
#837=DIRECTION('',(0.,-1.,0.));
#838=DIRECTION('',(1.,0.,0.));
#839=DIRECTION('',(0.,1.,0.));
#840=DIRECTION('',(1.,0.,0.));
#841=DIRECTION('',(0.,-1.,0.));
#842=DIRECTION('',(1.,0.,0.));
#843=DIRECTION('center_axis',(-1.,0.,0.));
#844=DIRECTION('ref_axis',(0.,-1.,0.));
#845=DIRECTION('',(0.,0.,1.));
#846=DIRECTION('center_axis',(1.,0.,0.));
#847=DIRECTION('ref_axis',(0.,1.,0.));
#848=DIRECTION('',(0.,0.,1.));
#849=DIRECTION('center_axis',(0.,-1.,0.));
#850=DIRECTION('ref_axis',(1.,0.,0.));
#851=DIRECTION('',(0.,0.,1.));
#852=DIRECTION('',(0.,0.,1.));
#853=DIRECTION('center_axis',(0.,-1.,0.));
#854=DIRECTION('ref_axis',(-1.,0.,0.));
#855=DIRECTION('',(0.,-1.,0.));
#856=DIRECTION('center_axis',(0.,-1.,0.));
#857=DIRECTION('ref_axis',(-1.,0.,0.));
#858=DIRECTION('',(0.,-1.,0.));
#859=DIRECTION('center_axis',(-1.,0.,0.));
#860=DIRECTION('ref_axis',(0.,-1.,0.));
#861=DIRECTION('center_axis',(1.,0.,0.));
#862=DIRECTION('ref_axis',(0.,1.,0.));
#863=DIRECTION('',(0.,0.,1.));
#864=DIRECTION('',(0.,0.,1.));
#865=DIRECTION('center_axis',(0.,1.,0.));
#866=DIRECTION('ref_axis',(-1.,0.,0.));
#867=DIRECTION('',(0.,0.,1.));
#868=DIRECTION('center_axis',(-1.,0.,0.));
#869=DIRECTION('ref_axis',(0.,-1.,0.));
#870=DIRECTION('center_axis',(1.,0.,0.));
#871=DIRECTION('ref_axis',(0.,1.,0.));
#872=DIRECTION('',(0.,0.,1.));
#873=DIRECTION('center_axis',(0.,-1.,0.));
#874=DIRECTION('ref_axis',(1.,0.,0.));
#875=CARTESIAN_POINT('',(0.,0.,0.));
#876=CARTESIAN_POINT('Origin',(-154.239753312901,-105.875,0.799501975697832));
#877=CARTESIAN_POINT('',(-156.739753312901,-103.5,0.799501975697831));
#878=CARTESIAN_POINT('',(-151.949553855152,-103.5,-0.202988145812999));
#879=CARTESIAN_POINT('Origin',(-154.239753312901,-103.5,0.799501975697832));
#880=CARTESIAN_POINT('',(-151.949553855152,-105.2,-0.202988145812999));
#881=CARTESIAN_POINT('',(-151.949553855152,-105.875,-0.202988145813));
#882=CARTESIAN_POINT('',(-156.739753312901,-105.2,0.799501975697831));
#883=CARTESIAN_POINT('Origin',(-154.239753312901,-105.2,0.799501975697832));
#884=CARTESIAN_POINT('',(-156.739753312901,-105.875,0.799501975697831));
#885=CARTESIAN_POINT('Origin',(-154.697793204451,-105.875,1.));
#886=CARTESIAN_POINT('',(-151.739753312901,-103.5,0.5));
#887=CARTESIAN_POINT('Origin',(-154.697793204451,-103.5,1.));
#888=CARTESIAN_POINT('',(-151.739753312901,-105.2,0.5));
#889=CARTESIAN_POINT('',(-151.739753312901,-105.875,0.5));
#890=CARTESIAN_POINT('Origin',(-154.697793204451,-105.2,1.));
#891=CARTESIAN_POINT('Origin',(-135.739753312901,-103.5,0.));
#892=CARTESIAN_POINT('',(-156.739753312901,-103.5,6.));
#893=CARTESIAN_POINT('',(-156.739753312901,-103.5,0.));
#894=CARTESIAN_POINT('',(-131.739753312901,-103.5,6.));
#895=CARTESIAN_POINT('',(-135.739753312901,-103.5,6.));
#896=CARTESIAN_POINT('',(-131.739753312901,-103.5,0.799501975697912));
#897=CARTESIAN_POINT('',(-131.739753312901,-103.5,0.));
#898=CARTESIAN_POINT('',(-136.52995277065,-103.5,-0.202988145812513));
#899=CARTESIAN_POINT('Origin',(-134.239753312901,-103.5,0.799501975697913));
#900=CARTESIAN_POINT('',(-136.739753312901,-103.5,0.5));
#901=CARTESIAN_POINT('Origin',(-133.781713421351,-103.5,1.));
#902=CARTESIAN_POINT('',(-139.989753312901,-103.5,0.5));
#903=CARTESIAN_POINT('',(-132.639753312901,-103.5,1.));
#904=CARTESIAN_POINT('Origin',(-133.639753312901,-103.5,1.));
#905=CARTESIAN_POINT('',(-153.839753312901,-103.5,1.));
#906=CARTESIAN_POINT('Origin',(-154.839753312901,-103.5,1.));
#907=CARTESIAN_POINT('Origin',(-134.239753312901,-107.375,0.799501975697913));
#908=CARTESIAN_POINT('',(-131.739753312901,-105.2,0.799501975697912));
#909=CARTESIAN_POINT('',(-136.52995277065,-105.2,-0.202988145812513));
#910=CARTESIAN_POINT('Origin',(-134.239753312901,-105.2,0.799501975697913));
#911=CARTESIAN_POINT('',(-136.52995277065,-107.375,-0.202988145812514));
#912=CARTESIAN_POINT('',(-131.739753312901,-107.375,0.799501975697912));
#913=CARTESIAN_POINT('Origin',(-131.739753312901,-106.5,0.));
#914=CARTESIAN_POINT('',(-131.739753312901,-105.2,6.));
#915=CARTESIAN_POINT('',(-131.739753312901,-103.5,6.));
#916=CARTESIAN_POINT('',(-131.739753312901,-105.2,0.));
#917=CARTESIAN_POINT('Origin',(-133.781713421351,-107.375,1.));
#918=CARTESIAN_POINT('',(-136.739753312901,-105.2,0.5));
#919=CARTESIAN_POINT('Origin',(-133.781713421351,-105.2,1.));
#920=CARTESIAN_POINT('',(-136.739753312901,-107.375,0.5));
#921=CARTESIAN_POINT('Origin',(-156.739753312901,-103.5,0.));
#922=CARTESIAN_POINT('',(-156.739753312901,-105.2,6.));
#923=CARTESIAN_POINT('',(-156.739753312901,-105.2,0.));
#924=CARTESIAN_POINT('',(-156.739753312901,-103.5,6.));
#925=CARTESIAN_POINT('Origin',(-144.239753312901,-108.25,0.5));
#926=CARTESIAN_POINT('',(-135.739753312901,-113.,0.5));
#927=CARTESIAN_POINT('',(-135.739753312901,-105.2,0.5));
#928=CARTESIAN_POINT('',(-135.739753312901,-110.625,0.5));
#929=CARTESIAN_POINT('',(-137.564753312901,-113.,0.5));
#930=CARTESIAN_POINT('',(-140.539753312901,-113.,0.5));
#931=CARTESIAN_POINT('',(-137.564753312901,-108.875,0.5));
#932=CARTESIAN_POINT('',(-137.564753312901,-108.5625,0.5));
#933=CARTESIAN_POINT('',(-150.914753312901,-108.875,0.5));
#934=CARTESIAN_POINT('',(-147.577253312901,-108.875,0.5));
#935=CARTESIAN_POINT('',(-150.914753312901,-113.,0.5));
#936=CARTESIAN_POINT('',(-150.914753312901,-110.625,0.5));
#937=CARTESIAN_POINT('',(-152.739753312901,-113.,0.5));
#938=CARTESIAN_POINT('',(-148.489753312901,-113.,0.5));
#939=CARTESIAN_POINT('',(-152.739753312901,-105.2,0.5));
#940=CARTESIAN_POINT('',(-152.739753312901,-105.875,0.5));
#941=CARTESIAN_POINT('',(-150.489753312901,-105.2,0.5));
#942=CARTESIAN_POINT('',(-139.989753312901,-105.2,0.5));
#943=CARTESIAN_POINT('Origin',(-137.564753312901,-108.875,3.5));
#944=CARTESIAN_POINT('',(-138.564753312901,-108.875,3.5));
#945=CARTESIAN_POINT('',(-137.564753312901,-108.875,3.5));
#946=CARTESIAN_POINT('',(-144.239753312901,-108.875,3.5));
#947=CARTESIAN_POINT('',(-137.564753312901,-104.875,3.5));
#948=CARTESIAN_POINT('',(-137.564753312901,-108.875,3.5));
#949=CARTESIAN_POINT('',(-138.564753312901,-104.875,3.5));
#950=CARTESIAN_POINT('',(-137.814753312901,-104.875,3.5));
#951=CARTESIAN_POINT('',(-138.564753312901,-108.875,3.5));
#952=CARTESIAN_POINT('Origin',(-138.564753312901,-108.875,3.));
#953=CARTESIAN_POINT('',(-138.564753312901,-104.875,5.5));
#954=CARTESIAN_POINT('',(-138.564753312901,-104.875,5.));
#955=CARTESIAN_POINT('',(-138.564753312901,-108.875,5.5));
#956=CARTESIAN_POINT('',(-138.564753312901,-108.875,5.5));
#957=CARTESIAN_POINT('',(-138.564753312901,-108.875,1.5));
#958=CARTESIAN_POINT('Origin',(-138.064753312901,-104.875,4.));
#959=CARTESIAN_POINT('',(-137.564753312901,-104.875,5.5));
#960=CARTESIAN_POINT('',(-137.564753312901,-104.875,5.));
#961=CARTESIAN_POINT('',(-138.564753312901,-104.875,5.5));
#962=CARTESIAN_POINT('Origin',(-149.914753312901,-108.875,3.5));
#963=CARTESIAN_POINT('',(-150.914753312901,-108.875,3.5));
#964=CARTESIAN_POINT('',(-149.914753312901,-108.875,3.5));
#965=CARTESIAN_POINT('',(-150.414753312901,-108.875,3.5));
#966=CARTESIAN_POINT('',(-149.914753312901,-104.875,3.5));
#967=CARTESIAN_POINT('',(-149.914753312901,-108.875,3.5));
#968=CARTESIAN_POINT('',(-150.914753312901,-104.875,3.5));
#969=CARTESIAN_POINT('',(-150.164753312901,-104.875,3.5));
#970=CARTESIAN_POINT('',(-150.914753312901,-110.9375,3.5));
#971=CARTESIAN_POINT('Origin',(-150.414753312901,-104.875,4.));
#972=CARTESIAN_POINT('',(-149.914753312901,-104.875,5.5));
#973=CARTESIAN_POINT('',(-149.914753312901,-104.875,3.));
#974=CARTESIAN_POINT('',(-150.914753312901,-104.875,5.5));
#975=CARTESIAN_POINT('',(-149.914753312901,-104.875,5.5));
#976=CARTESIAN_POINT('',(-150.914753312901,-104.875,5.));
#977=CARTESIAN_POINT('Origin',(-149.914753312901,-108.875,5.));
#978=CARTESIAN_POINT('',(-149.914753312901,-108.875,5.5));
#979=CARTESIAN_POINT('',(-149.914753312901,-108.875,2.5));
#980=CARTESIAN_POINT('',(-149.914753312901,-108.875,5.5));
#981=CARTESIAN_POINT('Origin',(-138.564753312901,-108.875,5.5));
#982=CARTESIAN_POINT('',(-137.564753312901,-108.875,5.5));
#983=CARTESIAN_POINT('',(-144.739753312901,-108.875,5.5));
#984=CARTESIAN_POINT('',(-137.564753312901,-108.875,5.5));
#985=CARTESIAN_POINT('Origin',(-150.914753312901,-108.875,5.5));
#986=CARTESIAN_POINT('',(-150.914753312901,-108.875,5.5));
#987=CARTESIAN_POINT('',(-150.914753312901,-108.875,5.5));
#988=CARTESIAN_POINT('',(-150.914753312901,-108.875,5.5));
#989=CARTESIAN_POINT('Origin',(-150.914753312901,-108.875,0.));
#990=CARTESIAN_POINT('',(-137.564753312901,-108.875,0.));
#991=CARTESIAN_POINT('',(-137.564753312901,-108.875,8.5));
#992=CARTESIAN_POINT('',(-137.564753312901,-108.875,8.));
#993=CARTESIAN_POINT('',(-150.914753312901,-108.875,8.5));
#994=CARTESIAN_POINT('',(-147.577253312901,-108.875,8.5));
#995=CARTESIAN_POINT('',(-150.914753312901,-108.875,8.));
#996=CARTESIAN_POINT('',(-150.914753312901,-108.875,1.5));
#997=CARTESIAN_POINT('Origin',(-144.239753312901,-109.75,8.5));
#998=CARTESIAN_POINT('',(-136.839753312901,-106.5,8.5));
#999=CARTESIAN_POINT('',(-151.639753312901,-106.5,8.5));
#1000=CARTESIAN_POINT('',(-140.539753312901,-106.5,8.5));
#1001=CARTESIAN_POINT('',(-151.639753312901,-113.,8.5));
#1002=CARTESIAN_POINT('',(-151.639753312901,-108.125,8.5));
#1003=CARTESIAN_POINT('',(-150.914753312901,-113.,8.5));
#1004=CARTESIAN_POINT('',(-148.489753312901,-113.,8.5));
#1005=CARTESIAN_POINT('',(-150.914753312901,-111.375,8.5));
#1006=CARTESIAN_POINT('',(-137.564753312901,-113.,8.5));
#1007=CARTESIAN_POINT('',(-137.564753312901,-109.3125,8.5));
#1008=CARTESIAN_POINT('',(-136.839753312901,-113.,8.5));
#1009=CARTESIAN_POINT('',(-140.539753312901,-113.,8.5));
#1010=CARTESIAN_POINT('',(-136.839753312901,-111.375,8.5));
#1011=CARTESIAN_POINT('Origin',(-135.739753312901,-105.2,0.));
#1012=CARTESIAN_POINT('',(-135.739753312901,-105.2,6.));
#1013=CARTESIAN_POINT('',(-139.989753312901,-105.2,6.));
#1014=CARTESIAN_POINT('',(-135.739753312901,-105.2,0.));
#1015=CARTESIAN_POINT('',(-132.639753312901,-105.2,1.));
#1016=CARTESIAN_POINT('Origin',(-133.639753312901,-105.2,1.));
#1017=CARTESIAN_POINT('Origin',(-156.739753312901,-105.2,0.));
#1018=CARTESIAN_POINT('',(-152.739753312901,-105.2,6.));
#1019=CARTESIAN_POINT('',(-152.739753312901,-105.2,0.));
#1020=CARTESIAN_POINT('',(-150.489753312901,-105.2,6.));
#1021=CARTESIAN_POINT('',(-153.839753312901,-105.2,1.));
#1022=CARTESIAN_POINT('Origin',(-154.839753312901,-105.2,1.));
#1023=CARTESIAN_POINT('Origin',(-144.239753312901,-108.25,6.));
#1024=CARTESIAN_POINT('',(-135.739753312901,-113.,6.));
#1025=CARTESIAN_POINT('',(-135.739753312901,-107.375,6.));
#1026=CARTESIAN_POINT('',(-152.739753312901,-113.,6.));
#1027=CARTESIAN_POINT('',(-152.739753312901,-113.,6.));
#1028=CARTESIAN_POINT('',(-151.639753312901,-113.,6.));
#1029=CARTESIAN_POINT('',(-152.739753312901,-113.,6.));
#1030=CARTESIAN_POINT('',(-151.639753312901,-106.5,6.));
#1031=CARTESIAN_POINT('',(-151.639753312901,-113.,6.));
#1032=CARTESIAN_POINT('',(-136.839753312901,-106.5,6.));
#1033=CARTESIAN_POINT('',(-151.639753312901,-106.5,6.));
#1034=CARTESIAN_POINT('',(-136.839753312901,-113.,6.));
#1035=CARTESIAN_POINT('',(-136.839753312901,-106.5,6.));
#1036=CARTESIAN_POINT('',(-135.739753312901,-113.,6.));
#1037=CARTESIAN_POINT('Origin',(-137.564753312901,-108.875,0.));
#1038=CARTESIAN_POINT('',(-137.564753312901,-113.,0.));
#1039=CARTESIAN_POINT('Origin',(-150.914753312901,-113.,0.));
#1040=CARTESIAN_POINT('',(-150.914753312901,-113.,8.));
#1041=CARTESIAN_POINT('Origin',(-152.739753312901,-113.,0.));
#1042=CARTESIAN_POINT('',(-151.639753312901,-113.,8.));
#1043=CARTESIAN_POINT('',(-152.739753312901,-113.,0.));
#1044=CARTESIAN_POINT('Origin',(-154.839753312901,-103.5,1.));
#1045=CARTESIAN_POINT('',(-153.839753312901,-103.5,1.));
#1046=CARTESIAN_POINT('Origin',(-133.639753312901,-103.5,1.));
#1047=CARTESIAN_POINT('',(-132.639753312901,-103.5,1.));
#1048=CARTESIAN_POINT('Origin',(-152.739753312901,-103.5,0.));
#1049=CARTESIAN_POINT('Origin',(-136.839753312901,-113.,0.));
#1050=CARTESIAN_POINT('',(-136.839753312901,-113.,0.));
#1051=CARTESIAN_POINT('',(-136.839753312901,-106.5,0.));
#1052=CARTESIAN_POINT('Origin',(-136.839753312901,-106.5,0.));
#1053=CARTESIAN_POINT('',(-151.639753312901,-106.5,0.));
#1054=CARTESIAN_POINT('Origin',(-151.639753312901,-106.5,0.));
#1055=CARTESIAN_POINT('Origin',(-135.739753312901,-113.,0.));
#1056=CARTESIAN_POINT('',(-135.739753312901,-113.,0.));
#1057=CARTESIAN_POINT('Origin',(-136.839753312901,-113.,0.));
#1058=UNCERTAINTY_MEASURE_WITH_UNIT(LENGTH_MEASURE(0.01),#1062,
'DISTANCE_ACCURACY_VALUE',
'Maximum model space distance between geometric entities at asserted c
onnectivities');
#1059=UNCERTAINTY_MEASURE_WITH_UNIT(LENGTH_MEASURE(0.01),#1062,
'DISTANCE_ACCURACY_VALUE',
'Maximum model space distance between geometric entities at asserted c
onnectivities');
#1060=(
GEOMETRIC_REPRESENTATION_CONTEXT(3)
GLOBAL_UNCERTAINTY_ASSIGNED_CONTEXT((#1058))
GLOBAL_UNIT_ASSIGNED_CONTEXT((#1062,#1064,#1065))
REPRESENTATION_CONTEXT('','3D')
);
#1061=(
GEOMETRIC_REPRESENTATION_CONTEXT(3)
GLOBAL_UNCERTAINTY_ASSIGNED_CONTEXT((#1059))
GLOBAL_UNIT_ASSIGNED_CONTEXT((#1062,#1064,#1065))
REPRESENTATION_CONTEXT('','3D')
);
#1062=(
LENGTH_UNIT()
NAMED_UNIT(*)
SI_UNIT(.MILLI.,.METRE.)
);
#1063=(
LENGTH_UNIT()
NAMED_UNIT(*)
SI_UNIT($,.METRE.)
);
#1064=(
NAMED_UNIT(*)
PLANE_ANGLE_UNIT()
SI_UNIT($,.RADIAN.)
);
#1065=(
NAMED_UNIT(*)
SI_UNIT($,.STERADIAN.)
SOLID_ANGLE_UNIT()
);
#1066=SHAPE_DEFINITION_REPRESENTATION(#1067,#1068);
#1067=PRODUCT_DEFINITION_SHAPE('',$,#1070);
#1068=SHAPE_REPRESENTATION('',(#662),#1060);
#1069=PRODUCT_DEFINITION_CONTEXT('part definition',#1074,'design');
#1070=PRODUCT_DEFINITION('wii_and_hdmi_mount','wii_and_hdmi_mount v13',
#1071,#1069);
#1071=PRODUCT_DEFINITION_FORMATION('',$,#1076);
#1072=PRODUCT_RELATED_PRODUCT_CATEGORY('wii_and_hdmi_mount v13',
'wii_and_hdmi_mount v13',(#1076));
#1073=APPLICATION_PROTOCOL_DEFINITION('international standard',
'automotive_design',2009,#1074);
#1074=APPLICATION_CONTEXT(
'Core Data for Automotive Mechanical Design Process');
#1075=PRODUCT_CONTEXT('part definition',#1074,'mechanical');
#1076=PRODUCT('wii_and_hdmi_mount','wii_and_hdmi_mount v13',$,(#1075));
#1077=PRESENTATION_STYLE_ASSIGNMENT((#1078));
#1078=SURFACE_STYLE_USAGE(.BOTH.,#1079);
#1079=SURFACE_SIDE_STYLE('',(#1080));
#1080=SURFACE_STYLE_FILL_AREA(#1081);
#1081=FILL_AREA_STYLE('Steel - Satin',(#1082));
#1082=FILL_AREA_STYLE_COLOUR('Steel - Satin',#1083);
#1083=COLOUR_RGB('Steel - Satin',0.627450980392157,0.627450980392157,0.627450980392157);
ENDSEC;
END-ISO-10303-21;
